M48
; DRILL file {KiCad 9.0.5} date 2025-11-09T03:03:31+0200
; FORMAT={-:-/ absolute / inch / decimal}
; #@! TF.CreationDate,2025-11-09T03:03:31+02:00
; #@! TF.GenerationSoftware,Kicad,Pcbnew,9.0.5
; #@! TF.FileFunction,Plated,1,4,PTH
FMAT,2
INCH
; #@! TA.AperFunction,Plated,PTH,ViaDrill
T1C0.0157
; #@! TA.AperFunction,Plated,PTH,ComponentDrill
T2C0.0394
%
G90
G05
T1
X4.226Y-3.884
X4.25Y-3.96
X4.35Y-3.96
X4.442Y-3.424
X4.4508Y-3.9708
X4.458Y-3.874
X4.4645Y-3.82
X4.49Y-3.474
X4.5Y-3.175
X4.586Y-3.474
X4.596Y-3.422
X4.606Y-3.34
X4.644Y-3.774
X4.6595Y-3.712
X4.6695Y-3.8725
X4.6731Y-3.3069
X4.69Y-3.232
X4.692Y-3.58
X4.7205Y-3.614
X4.7205Y-3.833
X4.75Y-3.739
X4.8041Y-3.2645
X4.8539Y-3.4289
X4.858Y-3.3898
X4.86Y-3.15
X4.8625Y-3.8615
X4.912Y-3.652
X4.916Y-3.336
X4.9257Y-3.736
X4.9673Y-3.5398
X4.975Y-3.4528
X4.986Y-3.206
X5.0173Y-3.7357
X5.06Y-3.414
X5.086Y-3.11
X5.09Y-3.286
X5.0935Y-3.5157
X5.122Y-3.39
X5.16Y-3.906
X5.174Y-3.718
X5.252Y-3.91
X5.292Y-3.662
X5.294Y-3.6112
X5.338Y-3.2039
X5.376Y-3.47
X5.408Y-3.5
X5.416Y-3.692
X5.5025Y-3.47
X5.55Y-3.654
X5.561Y-3.7233
X5.596Y-3.874
X5.602Y-3.776
X5.728Y-3.324
T2
X4.2Y-3.2
X4.2Y-3.3
X4.25Y-4.025
X4.35Y-4.025
X4.45Y-4.025
X4.55Y-4.025
X4.65Y-4.025
X4.75Y-4.025
X4.85Y-4.025
X4.95Y-4.025
X5.05Y-4.025
X5.25Y-4.025
X5.35Y-4.025
X5.45Y-4.025
X5.55Y-3.175
X5.55Y-3.275
X5.55Y-3.375
X5.55Y-4.025
X5.65Y-3.175
X5.65Y-3.275
X5.65Y-3.375
X5.675Y-3.575
X5.675Y-3.675
X5.675Y-3.775
X5.675Y-3.875
M30
