%TF.GenerationSoftware,KiCad,Pcbnew,9.0.5*%
%TF.CreationDate,2025-11-09T03:03:21+02:00*%
%TF.ProjectId,Project 4 MCU Datalogger,50726f6a-6563-4742-9034-204d43552044,1*%
%TF.SameCoordinates,Original*%
%TF.FileFunction,Soldermask,Top*%
%TF.FilePolarity,Negative*%
%FSLAX46Y46*%
G04 Gerber Fmt 4.6, Leading zero omitted, Abs format (unit mm)*
G04 Created by KiCad (PCBNEW 9.0.5) date 2025-11-09 03:03:21*
%MOMM*%
%LPD*%
G01*
G04 APERTURE LIST*
G04 Aperture macros list*
%AMRoundRect*
0 Rectangle with rounded corners*
0 $1 Rounding radius*
0 $2 $3 $4 $5 $6 $7 $8 $9 X,Y pos of 4 corners*
0 Add a 4 corners polygon primitive as box body*
4,1,4,$2,$3,$4,$5,$6,$7,$8,$9,$2,$3,0*
0 Add four circle primitives for the rounded corners*
1,1,$1+$1,$2,$3*
1,1,$1+$1,$4,$5*
1,1,$1+$1,$6,$7*
1,1,$1+$1,$8,$9*
0 Add four rect primitives between the rounded corners*
20,1,$1+$1,$2,$3,$4,$5,0*
20,1,$1+$1,$4,$5,$6,$7,0*
20,1,$1+$1,$6,$7,$8,$9,0*
20,1,$1+$1,$8,$9,$2,$3,0*%
G04 Aperture macros list end*
%ADD10RoundRect,0.250000X0.250000X0.475000X-0.250000X0.475000X-0.250000X-0.475000X0.250000X-0.475000X0*%
%ADD11RoundRect,0.250000X-0.250000X-0.475000X0.250000X-0.475000X0.250000X0.475000X-0.250000X0.475000X0*%
%ADD12R,1.700000X1.700000*%
%ADD13C,1.700000*%
%ADD14RoundRect,0.250000X-0.262500X-0.450000X0.262500X-0.450000X0.262500X0.450000X-0.262500X0.450000X0*%
%ADD15RoundRect,0.243750X-0.456250X0.243750X-0.456250X-0.243750X0.456250X-0.243750X0.456250X0.243750X0*%
%ADD16RoundRect,0.250000X-0.450000X0.262500X-0.450000X-0.262500X0.450000X-0.262500X0.450000X0.262500X0*%
%ADD17RoundRect,0.250000X0.450000X-0.262500X0.450000X0.262500X-0.450000X0.262500X-0.450000X-0.262500X0*%
%ADD18C,2.100000*%
%ADD19RoundRect,0.099250X-0.987750X-0.297750X0.987750X-0.297750X0.987750X0.297750X-0.987750X0.297750X0*%
%ADD20RoundRect,0.250000X-0.475000X0.250000X-0.475000X-0.250000X0.475000X-0.250000X0.475000X0.250000X0*%
%ADD21RoundRect,0.250000X0.950000X-0.750000X0.950000X0.750000X-0.950000X0.750000X-0.950000X-0.750000X0*%
%ADD22RoundRect,0.243750X-0.243750X-0.456250X0.243750X-0.456250X0.243750X0.456250X-0.243750X0.456250X0*%
%ADD23RoundRect,0.250000X0.475000X-0.250000X0.475000X0.250000X-0.475000X0.250000X-0.475000X-0.250000X0*%
%ADD24RoundRect,0.162500X-0.650000X-0.162500X0.650000X-0.162500X0.650000X0.162500X-0.650000X0.162500X0*%
%ADD25RoundRect,0.250000X0.750000X0.950000X-0.750000X0.950000X-0.750000X-0.950000X0.750000X-0.950000X0*%
%ADD26RoundRect,0.094250X-0.742750X-0.282750X0.742750X-0.282750X0.742750X0.282750X-0.742750X0.282750X0*%
%ADD27RoundRect,0.094250X-0.282750X-0.742750X0.282750X-0.742750X0.282750X0.742750X-0.282750X0.742750X0*%
G04 APERTURE END LIST*
D10*
%TO.C,C3*%
X120335000Y-80010000D03*
X122235000Y-80010000D03*
%TD*%
D11*
%TO.C,C4*%
X124780000Y-80010000D03*
X126680000Y-80010000D03*
%TD*%
D12*
%TO.C,J4*%
X133350000Y-102235000D03*
D13*
X135890000Y-102235000D03*
X138430000Y-102235000D03*
X140970000Y-102235000D03*
%TD*%
D12*
%TO.C,J3*%
X107950000Y-102235000D03*
D13*
X110490000Y-102235000D03*
X113030000Y-102235000D03*
X115570000Y-102235000D03*
X118110000Y-102235000D03*
X120650000Y-102235000D03*
X123190000Y-102235000D03*
X125730000Y-102235000D03*
X128270000Y-102235000D03*
%TD*%
D12*
%TO.C,J2*%
X144145000Y-90805000D03*
D13*
X144145000Y-93345000D03*
X144145000Y-95885000D03*
X144145000Y-98425000D03*
%TD*%
D14*
%TO.C,R4*%
X129262500Y-80010000D03*
X131087500Y-80010000D03*
%TD*%
D15*
%TO.C,D2*%
X105410000Y-96852500D03*
X105410000Y-98727500D03*
%TD*%
D16*
%TO.C,R6*%
X120650000Y-96242500D03*
X120650000Y-98067500D03*
%TD*%
D17*
%TO.C,R7*%
X137160000Y-96797500D03*
X137160000Y-94972500D03*
%TD*%
D12*
%TO.C,J1*%
X140970000Y-80645000D03*
D13*
X143510000Y-80645000D03*
X140970000Y-83185000D03*
X143510000Y-83185000D03*
X140970000Y-85725000D03*
X143510000Y-85725000D03*
%TD*%
D12*
%TO.C,BT1*%
X106680000Y-81280000D03*
D13*
X106680000Y-83820000D03*
%TD*%
D18*
%TO.C,H3*%
X146685000Y-104775000D03*
%TD*%
%TO.C,H4*%
X103505000Y-104775000D03*
%TD*%
D16*
%TO.C,R1*%
X108585000Y-96877500D03*
X108585000Y-98702500D03*
%TD*%
D19*
%TO.C,U3*%
X111825000Y-94615000D03*
X111825000Y-95885000D03*
X111825000Y-97155000D03*
X111825000Y-98425000D03*
X116775000Y-98425000D03*
X116775000Y-97155000D03*
X116775000Y-95885000D03*
X116775000Y-94615000D03*
%TD*%
D20*
%TO.C,C1*%
X120650000Y-82870000D03*
X120650000Y-84770000D03*
%TD*%
D21*
%TO.C,Y1*%
X106680000Y-91385000D03*
X106680000Y-87685000D03*
%TD*%
D22*
%TO.C,D1*%
X133682500Y-80010000D03*
X135557500Y-80010000D03*
%TD*%
D23*
%TO.C,C5*%
X120650000Y-89215000D03*
X120650000Y-87315000D03*
%TD*%
D24*
%TO.C,U2*%
X110712500Y-79375000D03*
X110712500Y-80645000D03*
X110712500Y-81915000D03*
X110712500Y-83185000D03*
X117887500Y-83185000D03*
X117887500Y-81915000D03*
X117887500Y-80645000D03*
X117887500Y-79375000D03*
%TD*%
D17*
%TO.C,R3*%
X137160000Y-86002500D03*
X137160000Y-84177500D03*
%TD*%
D18*
%TO.C,H2*%
X146685000Y-76835000D03*
%TD*%
D17*
%TO.C,R5*%
X120650000Y-93622500D03*
X120650000Y-91797500D03*
%TD*%
D25*
%TO.C,Y2*%
X131390000Y-97155000D03*
X127690000Y-97155000D03*
%TD*%
D17*
%TO.C,R2*%
X137160000Y-91717500D03*
X137160000Y-89892500D03*
%TD*%
D18*
%TO.C,H1*%
X103505000Y-76835000D03*
%TD*%
D23*
%TO.C,C2*%
X124460000Y-98105000D03*
X124460000Y-96205000D03*
%TD*%
D24*
%TO.C,U1*%
X110712500Y-86995000D03*
X110712500Y-88265000D03*
X110712500Y-89535000D03*
X110712500Y-90805000D03*
X117887500Y-90805000D03*
X117887500Y-89535000D03*
X117887500Y-88265000D03*
X117887500Y-86995000D03*
%TD*%
D26*
%TO.C,U4*%
X124735000Y-86100000D03*
X124735000Y-86900000D03*
X124735000Y-87700000D03*
X124735000Y-88500000D03*
X124735000Y-89300000D03*
X124735000Y-90100000D03*
X124735000Y-90900000D03*
X124735000Y-91700000D03*
D27*
X126105000Y-93070000D03*
X126905000Y-93070000D03*
X127705000Y-93070000D03*
X128505000Y-93070000D03*
X129305000Y-93070000D03*
X130105000Y-93070000D03*
X130905000Y-93070000D03*
X131705000Y-93070000D03*
D26*
X133075000Y-91700000D03*
X133075000Y-90900000D03*
X133075000Y-90100000D03*
X133075000Y-89300000D03*
X133075000Y-88500000D03*
X133075000Y-87700000D03*
X133075000Y-86900000D03*
X133075000Y-86100000D03*
D27*
X131705000Y-84730000D03*
X130905000Y-84730000D03*
X130105000Y-84730000D03*
X129305000Y-84730000D03*
X128505000Y-84730000D03*
X127705000Y-84730000D03*
X126905000Y-84730000D03*
X126105000Y-84730000D03*
%TD*%
M02*
