%TF.GenerationSoftware,KiCad,Pcbnew,9.0.5*%
%TF.CreationDate,2025-11-09T03:03:17+02:00*%
%TF.ProjectId,Project 4 MCU Datalogger,50726f6a-6563-4742-9034-204d43552044,1*%
%TF.SameCoordinates,Original*%
%TF.FileFunction,Copper,L2,Inr*%
%TF.FilePolarity,Positive*%
%FSLAX46Y46*%
G04 Gerber Fmt 4.6, Leading zero omitted, Abs format (unit mm)*
G04 Created by KiCad (PCBNEW 9.0.5) date 2025-11-09 03:03:17*
%MOMM*%
%LPD*%
G01*
G04 APERTURE LIST*
%TA.AperFunction,ComponentPad*%
%ADD10R,1.700000X1.700000*%
%TD*%
%TA.AperFunction,ComponentPad*%
%ADD11C,1.700000*%
%TD*%
%TA.AperFunction,ViaPad*%
%ADD12C,0.900000*%
%TD*%
%TA.AperFunction,ViaPad*%
%ADD13C,0.800000*%
%TD*%
%TA.AperFunction,Conductor*%
%ADD14C,0.250000*%
%TD*%
G04 APERTURE END LIST*
D10*
%TO.N,GND*%
%TO.C,J4*%
X133350000Y-102235000D03*
D11*
%TO.N,/Vcc*%
X135890000Y-102235000D03*
%TO.N,/RX*%
X138430000Y-102235000D03*
%TO.N,/TX*%
X140970000Y-102235000D03*
%TD*%
D10*
%TO.N,/D2*%
%TO.C,J3*%
X107950000Y-102235000D03*
D11*
%TO.N,/D3*%
X110490000Y-102235000D03*
%TO.N,/D4*%
X113030000Y-102235000D03*
%TO.N,/D5*%
X115570000Y-102235000D03*
%TO.N,/D6*%
X118110000Y-102235000D03*
%TO.N,/D7*%
X120650000Y-102235000D03*
%TO.N,/D8*%
X123190000Y-102235000D03*
%TO.N,GND*%
X125730000Y-102235000D03*
%TO.N,/Vcc*%
X128270000Y-102235000D03*
%TD*%
D10*
%TO.N,GND*%
%TO.C,J2*%
X144145000Y-90805000D03*
D11*
%TO.N,/Vcc*%
X144145000Y-93345000D03*
%TO.N,/SDA*%
X144145000Y-95885000D03*
%TO.N,/SCL*%
X144145000Y-98425000D03*
%TD*%
D10*
%TO.N,/MOSI*%
%TO.C,J1*%
X140970000Y-80645000D03*
D11*
%TO.N,/Vcc*%
X143510000Y-80645000D03*
%TO.N,/SCK*%
X140970000Y-83185000D03*
%TO.N,/MISO*%
X143510000Y-83185000D03*
%TO.N,/RESET*%
X140970000Y-85725000D03*
%TO.N,GND*%
X143510000Y-85725000D03*
%TD*%
D10*
%TO.N,/Vcc*%
%TO.C,BT1*%
X106680000Y-81280000D03*
D11*
%TO.N,GND*%
X106680000Y-83820000D03*
%TD*%
D12*
%TO.N,GND*%
X116992400Y-84836000D03*
D13*
%TO.N,/SDA*%
X119176800Y-90932000D03*
X118697250Y-83994750D03*
%TO.N,GND*%
X123444000Y-80010000D03*
D12*
X113233200Y-98399600D03*
X107340400Y-98653600D03*
X114046000Y-88239600D03*
X116484400Y-88239600D03*
X126169999Y-89910577D03*
D13*
%TO.N,Net-(U4-AREF)*%
X129373800Y-89300000D03*
D12*
%TO.N,GND*%
X123507000Y-98081449D03*
X129184400Y-78994000D03*
D13*
%TO.N,/SDA*%
X133400800Y-99314000D03*
X118605300Y-98361500D03*
D12*
%TO.N,/Vcc*%
X112826800Y-86969600D03*
X116738400Y-86918800D03*
X118351800Y-94284800D03*
D13*
X120650000Y-94970600D03*
%TO.N,/SCL*%
X137363200Y-88900000D03*
%TO.N,Net-(U4-PB7)*%
X124764800Y-92760800D03*
X131064000Y-99212400D03*
X122025000Y-82919400D03*
%TO.N,/RESET*%
X139764600Y-88138000D03*
X128524000Y-86715600D03*
X136550400Y-88138000D03*
%TO.N,/SCL*%
X142138400Y-98399600D03*
X119126000Y-82092800D03*
%TO.N,/RESET*%
X140970000Y-92811600D03*
X137566400Y-93776800D03*
%TO.N,/MOSI*%
X141249400Y-94571000D03*
X131419600Y-94437200D03*
%TO.N,/MISO*%
X145491200Y-84429600D03*
X134416800Y-93014800D03*
%TO.N,Net-(U4-PB6)*%
X125112800Y-94894400D03*
X127439770Y-94886276D03*
%TO.N,/D4*%
X123289155Y-87094575D03*
%TO.N,Net-(U3-SQW{slash}~INT)*%
X119901800Y-97358748D03*
X117957600Y-95859600D03*
%TO.N,/D3*%
X123393200Y-86100000D03*
%TO.N,/D2*%
X124866400Y-84734400D03*
%TO.N,/D4*%
X113049200Y-100857200D03*
%TO.N,/D3*%
X110490000Y-100584000D03*
%TO.N,/D2*%
X107950000Y-100584000D03*
%TO.N,Net-(U3-~{INTA})*%
X113397185Y-97028000D03*
X119901800Y-91795600D03*
%TO.N,Net-(U4-AREF)*%
X126644400Y-81432400D03*
%TO.N,/SDA*%
X130098800Y-86106000D03*
X142290800Y-95910400D03*
%TO.N,/SCK*%
X135585200Y-81380200D03*
X134467600Y-91725000D03*
%TO.N,/SCL*%
X129286000Y-83464400D03*
%TO.N,GND*%
X114300000Y-80645000D03*
X126365000Y-87700000D03*
%TD*%
D14*
%TO.N,/SDA*%
X119176800Y-84474300D02*
X118697250Y-83994750D01*
X119176800Y-90932000D02*
X119176800Y-84474300D01*
%TO.N,Net-(U4-AREF)*%
X126644400Y-86570600D02*
X129373800Y-89300000D01*
X126644400Y-86360000D02*
X126644400Y-86570600D01*
X126644400Y-86360000D02*
X126644400Y-81432400D01*
%TO.N,/SDA*%
X133400800Y-99314000D02*
X133400800Y-95910400D01*
X142290800Y-95910400D02*
X133400800Y-95910400D01*
%TO.N,/RESET*%
X136550400Y-88138000D02*
X139764600Y-88138000D01*
X140004800Y-93776800D02*
X140970000Y-92811600D01*
X137566400Y-93776800D02*
X140004800Y-93776800D01*
%TO.N,/MOSI*%
X131553400Y-94571000D02*
X141249400Y-94571000D01*
X131419600Y-94437200D02*
X131553400Y-94571000D01*
%TO.N,/MISO*%
X138328400Y-93014800D02*
X145491200Y-85852000D01*
X145491200Y-85852000D02*
X145491200Y-84429600D01*
X134416800Y-93014800D02*
X138328400Y-93014800D01*
%TO.N,Net-(U4-PB6)*%
X125120924Y-94886276D02*
X125112800Y-94894400D01*
X127439770Y-94886276D02*
X125120924Y-94886276D01*
%TO.N,Net-(U3-~{INTA})*%
X114731800Y-91795600D02*
X119901800Y-91795600D01*
X113397185Y-93130215D02*
X114731800Y-91795600D01*
X113397185Y-97028000D02*
X113397185Y-93130215D01*
%TO.N,/D2*%
X121767600Y-86283800D02*
X123317000Y-84734400D01*
%TO.N,/D4*%
X123289155Y-87094575D02*
X123166625Y-87094575D01*
X123166625Y-87094575D02*
X122682000Y-87579200D01*
%TO.N,Net-(U3-SQW{slash}~INT)*%
X117957600Y-95859600D02*
X118402652Y-95859600D01*
X118402652Y-95859600D02*
X119901800Y-97358748D01*
%TO.N,/D4*%
X122682000Y-98450400D02*
X122682000Y-87579200D01*
X122682000Y-99065620D02*
X122682000Y-98450400D01*
X121430020Y-100317600D02*
X122682000Y-99065620D01*
X113588800Y-100317600D02*
X121430020Y-100317600D01*
X113049200Y-100857200D02*
X113588800Y-100317600D01*
%TO.N,/D3*%
X110490000Y-100584000D02*
X111207400Y-99866600D01*
X111207400Y-99866600D02*
X114001400Y-99866600D01*
X114249200Y-99866600D02*
X114001400Y-99866600D01*
X122224800Y-98885010D02*
X121324505Y-99785305D01*
X122224800Y-86614000D02*
X122224800Y-98885010D01*
X121243210Y-99866600D02*
X114249200Y-99866600D01*
X122738800Y-86100000D02*
X122224800Y-86614000D01*
X121324505Y-99785305D02*
X121243210Y-99866600D01*
X123393200Y-86100000D02*
X122738800Y-86100000D01*
%TO.N,/D2*%
X124866400Y-84734400D02*
X123317000Y-84734400D01*
%TO.N,/SDA*%
X133400800Y-95910400D02*
X131267200Y-95910400D01*
X131267200Y-95910400D02*
X130098800Y-94742000D01*
X130098800Y-94742000D02*
X130098800Y-86106000D01*
%TO.N,/SCK*%
X135585200Y-90607400D02*
X135585200Y-81380200D01*
X134467600Y-91725000D02*
X135585200Y-90607400D01*
%TO.N,/D2*%
X107950000Y-100584000D02*
X109118400Y-99415600D01*
X121767600Y-98704400D02*
X121767600Y-86283800D01*
X109118400Y-99415600D02*
X121056400Y-99415600D01*
X121056400Y-99415600D02*
X121767600Y-98704400D01*
%TD*%
M02*
