%TF.GenerationSoftware,KiCad,Pcbnew,9.0.5*%
%TF.CreationDate,2025-11-09T03:03:20+02:00*%
%TF.ProjectId,Project 4 MCU Datalogger,50726f6a-6563-4742-9034-204d43552044,1*%
%TF.SameCoordinates,Original*%
%TF.FileFunction,Legend,Bot*%
%TF.FilePolarity,Positive*%
%FSLAX46Y46*%
G04 Gerber Fmt 4.6, Leading zero omitted, Abs format (unit mm)*
G04 Created by KiCad (PCBNEW 9.0.5) date 2025-11-09 03:03:20*
%MOMM*%
%LPD*%
G01*
G04 APERTURE LIST*
%ADD10C,0.200000*%
%ADD11C,0.010000*%
G04 APERTURE END LIST*
D10*
X141430326Y-96957275D02*
X141430326Y-95957275D01*
X141430326Y-95957275D02*
X141192231Y-95957275D01*
X141192231Y-95957275D02*
X141049374Y-96004894D01*
X141049374Y-96004894D02*
X140954136Y-96100132D01*
X140954136Y-96100132D02*
X140906517Y-96195370D01*
X140906517Y-96195370D02*
X140858898Y-96385846D01*
X140858898Y-96385846D02*
X140858898Y-96528703D01*
X140858898Y-96528703D02*
X140906517Y-96719179D01*
X140906517Y-96719179D02*
X140954136Y-96814417D01*
X140954136Y-96814417D02*
X141049374Y-96909656D01*
X141049374Y-96909656D02*
X141192231Y-96957275D01*
X141192231Y-96957275D02*
X141430326Y-96957275D01*
X140001755Y-96957275D02*
X140001755Y-96433465D01*
X140001755Y-96433465D02*
X140049374Y-96338227D01*
X140049374Y-96338227D02*
X140144612Y-96290608D01*
X140144612Y-96290608D02*
X140335088Y-96290608D01*
X140335088Y-96290608D02*
X140430326Y-96338227D01*
X140001755Y-96909656D02*
X140096993Y-96957275D01*
X140096993Y-96957275D02*
X140335088Y-96957275D01*
X140335088Y-96957275D02*
X140430326Y-96909656D01*
X140430326Y-96909656D02*
X140477945Y-96814417D01*
X140477945Y-96814417D02*
X140477945Y-96719179D01*
X140477945Y-96719179D02*
X140430326Y-96623941D01*
X140430326Y-96623941D02*
X140335088Y-96576322D01*
X140335088Y-96576322D02*
X140096993Y-96576322D01*
X140096993Y-96576322D02*
X140001755Y-96528703D01*
X139668421Y-96290608D02*
X139287469Y-96290608D01*
X139525564Y-95957275D02*
X139525564Y-96814417D01*
X139525564Y-96814417D02*
X139477945Y-96909656D01*
X139477945Y-96909656D02*
X139382707Y-96957275D01*
X139382707Y-96957275D02*
X139287469Y-96957275D01*
X138525564Y-96957275D02*
X138525564Y-96433465D01*
X138525564Y-96433465D02*
X138573183Y-96338227D01*
X138573183Y-96338227D02*
X138668421Y-96290608D01*
X138668421Y-96290608D02*
X138858897Y-96290608D01*
X138858897Y-96290608D02*
X138954135Y-96338227D01*
X138525564Y-96909656D02*
X138620802Y-96957275D01*
X138620802Y-96957275D02*
X138858897Y-96957275D01*
X138858897Y-96957275D02*
X138954135Y-96909656D01*
X138954135Y-96909656D02*
X139001754Y-96814417D01*
X139001754Y-96814417D02*
X139001754Y-96719179D01*
X139001754Y-96719179D02*
X138954135Y-96623941D01*
X138954135Y-96623941D02*
X138858897Y-96576322D01*
X138858897Y-96576322D02*
X138620802Y-96576322D01*
X138620802Y-96576322D02*
X138525564Y-96528703D01*
X136811278Y-96957275D02*
X137287468Y-96957275D01*
X137287468Y-96957275D02*
X137287468Y-95957275D01*
X136335087Y-96957275D02*
X136430325Y-96909656D01*
X136430325Y-96909656D02*
X136477944Y-96862036D01*
X136477944Y-96862036D02*
X136525563Y-96766798D01*
X136525563Y-96766798D02*
X136525563Y-96481084D01*
X136525563Y-96481084D02*
X136477944Y-96385846D01*
X136477944Y-96385846D02*
X136430325Y-96338227D01*
X136430325Y-96338227D02*
X136335087Y-96290608D01*
X136335087Y-96290608D02*
X136192230Y-96290608D01*
X136192230Y-96290608D02*
X136096992Y-96338227D01*
X136096992Y-96338227D02*
X136049373Y-96385846D01*
X136049373Y-96385846D02*
X136001754Y-96481084D01*
X136001754Y-96481084D02*
X136001754Y-96766798D01*
X136001754Y-96766798D02*
X136049373Y-96862036D01*
X136049373Y-96862036D02*
X136096992Y-96909656D01*
X136096992Y-96909656D02*
X136192230Y-96957275D01*
X136192230Y-96957275D02*
X136335087Y-96957275D01*
X135144611Y-96290608D02*
X135144611Y-97100132D01*
X135144611Y-97100132D02*
X135192230Y-97195370D01*
X135192230Y-97195370D02*
X135239849Y-97242989D01*
X135239849Y-97242989D02*
X135335087Y-97290608D01*
X135335087Y-97290608D02*
X135477944Y-97290608D01*
X135477944Y-97290608D02*
X135573182Y-97242989D01*
X135144611Y-96909656D02*
X135239849Y-96957275D01*
X135239849Y-96957275D02*
X135430325Y-96957275D01*
X135430325Y-96957275D02*
X135525563Y-96909656D01*
X135525563Y-96909656D02*
X135573182Y-96862036D01*
X135573182Y-96862036D02*
X135620801Y-96766798D01*
X135620801Y-96766798D02*
X135620801Y-96481084D01*
X135620801Y-96481084D02*
X135573182Y-96385846D01*
X135573182Y-96385846D02*
X135525563Y-96338227D01*
X135525563Y-96338227D02*
X135430325Y-96290608D01*
X135430325Y-96290608D02*
X135239849Y-96290608D01*
X135239849Y-96290608D02*
X135144611Y-96338227D01*
X134239849Y-96290608D02*
X134239849Y-97100132D01*
X134239849Y-97100132D02*
X134287468Y-97195370D01*
X134287468Y-97195370D02*
X134335087Y-97242989D01*
X134335087Y-97242989D02*
X134430325Y-97290608D01*
X134430325Y-97290608D02*
X134573182Y-97290608D01*
X134573182Y-97290608D02*
X134668420Y-97242989D01*
X134239849Y-96909656D02*
X134335087Y-96957275D01*
X134335087Y-96957275D02*
X134525563Y-96957275D01*
X134525563Y-96957275D02*
X134620801Y-96909656D01*
X134620801Y-96909656D02*
X134668420Y-96862036D01*
X134668420Y-96862036D02*
X134716039Y-96766798D01*
X134716039Y-96766798D02*
X134716039Y-96481084D01*
X134716039Y-96481084D02*
X134668420Y-96385846D01*
X134668420Y-96385846D02*
X134620801Y-96338227D01*
X134620801Y-96338227D02*
X134525563Y-96290608D01*
X134525563Y-96290608D02*
X134335087Y-96290608D01*
X134335087Y-96290608D02*
X134239849Y-96338227D01*
X133382706Y-96909656D02*
X133477944Y-96957275D01*
X133477944Y-96957275D02*
X133668420Y-96957275D01*
X133668420Y-96957275D02*
X133763658Y-96909656D01*
X133763658Y-96909656D02*
X133811277Y-96814417D01*
X133811277Y-96814417D02*
X133811277Y-96433465D01*
X133811277Y-96433465D02*
X133763658Y-96338227D01*
X133763658Y-96338227D02*
X133668420Y-96290608D01*
X133668420Y-96290608D02*
X133477944Y-96290608D01*
X133477944Y-96290608D02*
X133382706Y-96338227D01*
X133382706Y-96338227D02*
X133335087Y-96433465D01*
X133335087Y-96433465D02*
X133335087Y-96528703D01*
X133335087Y-96528703D02*
X133811277Y-96623941D01*
X132906515Y-96957275D02*
X132906515Y-96290608D01*
X132906515Y-96481084D02*
X132858896Y-96385846D01*
X132858896Y-96385846D02*
X132811277Y-96338227D01*
X132811277Y-96338227D02*
X132716039Y-96290608D01*
X132716039Y-96290608D02*
X132620801Y-96290608D01*
X131620800Y-96290608D02*
X131430324Y-96957275D01*
X131430324Y-96957275D02*
X131239848Y-96481084D01*
X131239848Y-96481084D02*
X131049372Y-96957275D01*
X131049372Y-96957275D02*
X130858896Y-96290608D01*
X130477943Y-96957275D02*
X130477943Y-96290608D01*
X130477943Y-95957275D02*
X130525562Y-96004894D01*
X130525562Y-96004894D02*
X130477943Y-96052513D01*
X130477943Y-96052513D02*
X130430324Y-96004894D01*
X130430324Y-96004894D02*
X130477943Y-95957275D01*
X130477943Y-95957275D02*
X130477943Y-96052513D01*
X130144610Y-96290608D02*
X129763658Y-96290608D01*
X130001753Y-95957275D02*
X130001753Y-96814417D01*
X130001753Y-96814417D02*
X129954134Y-96909656D01*
X129954134Y-96909656D02*
X129858896Y-96957275D01*
X129858896Y-96957275D02*
X129763658Y-96957275D01*
X129430324Y-96957275D02*
X129430324Y-95957275D01*
X129001753Y-96957275D02*
X129001753Y-96433465D01*
X129001753Y-96433465D02*
X129049372Y-96338227D01*
X129049372Y-96338227D02*
X129144610Y-96290608D01*
X129144610Y-96290608D02*
X129287467Y-96290608D01*
X129287467Y-96290608D02*
X129382705Y-96338227D01*
X129382705Y-96338227D02*
X129430324Y-96385846D01*
X141573183Y-97900552D02*
X141192231Y-97900552D01*
X141430326Y-97567219D02*
X141430326Y-98424361D01*
X141430326Y-98424361D02*
X141382707Y-98519600D01*
X141382707Y-98519600D02*
X141287469Y-98567219D01*
X141287469Y-98567219D02*
X141192231Y-98567219D01*
X140858897Y-98567219D02*
X140858897Y-97567219D01*
X140430326Y-98567219D02*
X140430326Y-98043409D01*
X140430326Y-98043409D02*
X140477945Y-97948171D01*
X140477945Y-97948171D02*
X140573183Y-97900552D01*
X140573183Y-97900552D02*
X140716040Y-97900552D01*
X140716040Y-97900552D02*
X140811278Y-97948171D01*
X140811278Y-97948171D02*
X140858897Y-97995790D01*
X139573183Y-98519600D02*
X139668421Y-98567219D01*
X139668421Y-98567219D02*
X139858897Y-98567219D01*
X139858897Y-98567219D02*
X139954135Y-98519600D01*
X139954135Y-98519600D02*
X140001754Y-98424361D01*
X140001754Y-98424361D02*
X140001754Y-98043409D01*
X140001754Y-98043409D02*
X139954135Y-97948171D01*
X139954135Y-97948171D02*
X139858897Y-97900552D01*
X139858897Y-97900552D02*
X139668421Y-97900552D01*
X139668421Y-97900552D02*
X139573183Y-97948171D01*
X139573183Y-97948171D02*
X139525564Y-98043409D01*
X139525564Y-98043409D02*
X139525564Y-98138647D01*
X139525564Y-98138647D02*
X140001754Y-98233885D01*
X138382706Y-98281504D02*
X137906516Y-98281504D01*
X138477944Y-98567219D02*
X138144611Y-97567219D01*
X138144611Y-97567219D02*
X137811278Y-98567219D01*
X137620801Y-97567219D02*
X137049373Y-97567219D01*
X137335087Y-98567219D02*
X137335087Y-97567219D01*
X136716039Y-98567219D02*
X136716039Y-97567219D01*
X136716039Y-97567219D02*
X136382706Y-98281504D01*
X136382706Y-98281504D02*
X136049373Y-97567219D01*
X136049373Y-97567219D02*
X136049373Y-98567219D01*
X135192230Y-98519600D02*
X135287468Y-98567219D01*
X135287468Y-98567219D02*
X135477944Y-98567219D01*
X135477944Y-98567219D02*
X135573182Y-98519600D01*
X135573182Y-98519600D02*
X135620801Y-98424361D01*
X135620801Y-98424361D02*
X135620801Y-98043409D01*
X135620801Y-98043409D02*
X135573182Y-97948171D01*
X135573182Y-97948171D02*
X135477944Y-97900552D01*
X135477944Y-97900552D02*
X135287468Y-97900552D01*
X135287468Y-97900552D02*
X135192230Y-97948171D01*
X135192230Y-97948171D02*
X135144611Y-98043409D01*
X135144611Y-98043409D02*
X135144611Y-98138647D01*
X135144611Y-98138647D02*
X135620801Y-98233885D01*
X134287468Y-97900552D02*
X134287468Y-98710076D01*
X134287468Y-98710076D02*
X134335087Y-98805314D01*
X134335087Y-98805314D02*
X134382706Y-98852933D01*
X134382706Y-98852933D02*
X134477944Y-98900552D01*
X134477944Y-98900552D02*
X134620801Y-98900552D01*
X134620801Y-98900552D02*
X134716039Y-98852933D01*
X134287468Y-98519600D02*
X134382706Y-98567219D01*
X134382706Y-98567219D02*
X134573182Y-98567219D01*
X134573182Y-98567219D02*
X134668420Y-98519600D01*
X134668420Y-98519600D02*
X134716039Y-98471980D01*
X134716039Y-98471980D02*
X134763658Y-98376742D01*
X134763658Y-98376742D02*
X134763658Y-98091028D01*
X134763658Y-98091028D02*
X134716039Y-97995790D01*
X134716039Y-97995790D02*
X134668420Y-97948171D01*
X134668420Y-97948171D02*
X134573182Y-97900552D01*
X134573182Y-97900552D02*
X134382706Y-97900552D01*
X134382706Y-97900552D02*
X134287468Y-97948171D01*
X133382706Y-98567219D02*
X133382706Y-98043409D01*
X133382706Y-98043409D02*
X133430325Y-97948171D01*
X133430325Y-97948171D02*
X133525563Y-97900552D01*
X133525563Y-97900552D02*
X133716039Y-97900552D01*
X133716039Y-97900552D02*
X133811277Y-97948171D01*
X133382706Y-98519600D02*
X133477944Y-98567219D01*
X133477944Y-98567219D02*
X133716039Y-98567219D01*
X133716039Y-98567219D02*
X133811277Y-98519600D01*
X133811277Y-98519600D02*
X133858896Y-98424361D01*
X133858896Y-98424361D02*
X133858896Y-98329123D01*
X133858896Y-98329123D02*
X133811277Y-98233885D01*
X133811277Y-98233885D02*
X133716039Y-98186266D01*
X133716039Y-98186266D02*
X133477944Y-98186266D01*
X133477944Y-98186266D02*
X133382706Y-98138647D01*
X133001753Y-97567219D02*
X132382706Y-97567219D01*
X132382706Y-97567219D02*
X132716039Y-97948171D01*
X132716039Y-97948171D02*
X132573182Y-97948171D01*
X132573182Y-97948171D02*
X132477944Y-97995790D01*
X132477944Y-97995790D02*
X132430325Y-98043409D01*
X132430325Y-98043409D02*
X132382706Y-98138647D01*
X132382706Y-98138647D02*
X132382706Y-98376742D01*
X132382706Y-98376742D02*
X132430325Y-98471980D01*
X132430325Y-98471980D02*
X132477944Y-98519600D01*
X132477944Y-98519600D02*
X132573182Y-98567219D01*
X132573182Y-98567219D02*
X132858896Y-98567219D01*
X132858896Y-98567219D02*
X132954134Y-98519600D01*
X132954134Y-98519600D02*
X133001753Y-98471980D01*
X132001753Y-97662457D02*
X131954134Y-97614838D01*
X131954134Y-97614838D02*
X131858896Y-97567219D01*
X131858896Y-97567219D02*
X131620801Y-97567219D01*
X131620801Y-97567219D02*
X131525563Y-97614838D01*
X131525563Y-97614838D02*
X131477944Y-97662457D01*
X131477944Y-97662457D02*
X131430325Y-97757695D01*
X131430325Y-97757695D02*
X131430325Y-97852933D01*
X131430325Y-97852933D02*
X131477944Y-97995790D01*
X131477944Y-97995790D02*
X132049372Y-98567219D01*
X132049372Y-98567219D02*
X131430325Y-98567219D01*
X130858896Y-97995790D02*
X130954134Y-97948171D01*
X130954134Y-97948171D02*
X131001753Y-97900552D01*
X131001753Y-97900552D02*
X131049372Y-97805314D01*
X131049372Y-97805314D02*
X131049372Y-97757695D01*
X131049372Y-97757695D02*
X131001753Y-97662457D01*
X131001753Y-97662457D02*
X130954134Y-97614838D01*
X130954134Y-97614838D02*
X130858896Y-97567219D01*
X130858896Y-97567219D02*
X130668420Y-97567219D01*
X130668420Y-97567219D02*
X130573182Y-97614838D01*
X130573182Y-97614838D02*
X130525563Y-97662457D01*
X130525563Y-97662457D02*
X130477944Y-97757695D01*
X130477944Y-97757695D02*
X130477944Y-97805314D01*
X130477944Y-97805314D02*
X130525563Y-97900552D01*
X130525563Y-97900552D02*
X130573182Y-97948171D01*
X130573182Y-97948171D02*
X130668420Y-97995790D01*
X130668420Y-97995790D02*
X130858896Y-97995790D01*
X130858896Y-97995790D02*
X130954134Y-98043409D01*
X130954134Y-98043409D02*
X131001753Y-98091028D01*
X131001753Y-98091028D02*
X131049372Y-98186266D01*
X131049372Y-98186266D02*
X131049372Y-98376742D01*
X131049372Y-98376742D02*
X131001753Y-98471980D01*
X131001753Y-98471980D02*
X130954134Y-98519600D01*
X130954134Y-98519600D02*
X130858896Y-98567219D01*
X130858896Y-98567219D02*
X130668420Y-98567219D01*
X130668420Y-98567219D02*
X130573182Y-98519600D01*
X130573182Y-98519600D02*
X130525563Y-98471980D01*
X130525563Y-98471980D02*
X130477944Y-98376742D01*
X130477944Y-98376742D02*
X130477944Y-98186266D01*
X130477944Y-98186266D02*
X130525563Y-98091028D01*
X130525563Y-98091028D02*
X130573182Y-98043409D01*
X130573182Y-98043409D02*
X130668420Y-97995790D01*
X130049372Y-98567219D02*
X130049372Y-97567219D01*
X130049372Y-97567219D02*
X129668420Y-97567219D01*
X129668420Y-97567219D02*
X129573182Y-97614838D01*
X129573182Y-97614838D02*
X129525563Y-97662457D01*
X129525563Y-97662457D02*
X129477944Y-97757695D01*
X129477944Y-97757695D02*
X129477944Y-97900552D01*
X129477944Y-97900552D02*
X129525563Y-97995790D01*
X129525563Y-97995790D02*
X129573182Y-98043409D01*
X129573182Y-98043409D02*
X129668420Y-98091028D01*
X129668420Y-98091028D02*
X130049372Y-98091028D01*
X129049372Y-98471980D02*
X129001753Y-98519600D01*
X129001753Y-98519600D02*
X129049372Y-98567219D01*
X129049372Y-98567219D02*
X129096991Y-98519600D01*
X129096991Y-98519600D02*
X129049372Y-98471980D01*
X129049372Y-98471980D02*
X129049372Y-98567219D01*
X137030326Y-78366378D02*
X136268422Y-78366378D01*
X135077945Y-77842569D02*
X135030326Y-77794950D01*
X135030326Y-77794950D02*
X134935088Y-77747331D01*
X134935088Y-77747331D02*
X134696993Y-77747331D01*
X134696993Y-77747331D02*
X134601755Y-77794950D01*
X134601755Y-77794950D02*
X134554136Y-77842569D01*
X134554136Y-77842569D02*
X134506517Y-77937807D01*
X134506517Y-77937807D02*
X134506517Y-78033045D01*
X134506517Y-78033045D02*
X134554136Y-78175902D01*
X134554136Y-78175902D02*
X135125564Y-78747331D01*
X135125564Y-78747331D02*
X134506517Y-78747331D01*
X134077945Y-78747331D02*
X134077945Y-77747331D01*
X134077945Y-77747331D02*
X133744612Y-78461616D01*
X133744612Y-78461616D02*
X133411279Y-77747331D01*
X133411279Y-77747331D02*
X133411279Y-78747331D01*
X132935088Y-78747331D02*
X132935088Y-77747331D01*
X132935088Y-78128283D02*
X132839850Y-78080664D01*
X132839850Y-78080664D02*
X132649374Y-78080664D01*
X132649374Y-78080664D02*
X132554136Y-78128283D01*
X132554136Y-78128283D02*
X132506517Y-78175902D01*
X132506517Y-78175902D02*
X132458898Y-78271140D01*
X132458898Y-78271140D02*
X132458898Y-78556854D01*
X132458898Y-78556854D02*
X132506517Y-78652092D01*
X132506517Y-78652092D02*
X132554136Y-78699712D01*
X132554136Y-78699712D02*
X132649374Y-78747331D01*
X132649374Y-78747331D02*
X132839850Y-78747331D01*
X132839850Y-78747331D02*
X132935088Y-78699712D01*
X132030326Y-78747331D02*
X132030326Y-78080664D01*
X132030326Y-77747331D02*
X132077945Y-77794950D01*
X132077945Y-77794950D02*
X132030326Y-77842569D01*
X132030326Y-77842569D02*
X131982707Y-77794950D01*
X131982707Y-77794950D02*
X132030326Y-77747331D01*
X132030326Y-77747331D02*
X132030326Y-77842569D01*
X131696993Y-78080664D02*
X131316041Y-78080664D01*
X131554136Y-77747331D02*
X131554136Y-78604473D01*
X131554136Y-78604473D02*
X131506517Y-78699712D01*
X131506517Y-78699712D02*
X131411279Y-78747331D01*
X131411279Y-78747331D02*
X131316041Y-78747331D01*
X130220802Y-78223521D02*
X129887469Y-78223521D01*
X129744612Y-78747331D02*
X130220802Y-78747331D01*
X130220802Y-78747331D02*
X130220802Y-77747331D01*
X130220802Y-77747331D02*
X129744612Y-77747331D01*
X129316040Y-78223521D02*
X128982707Y-78223521D01*
X128839850Y-78747331D02*
X129316040Y-78747331D01*
X129316040Y-78747331D02*
X129316040Y-77747331D01*
X129316040Y-77747331D02*
X128839850Y-77747331D01*
X128411278Y-78747331D02*
X128411278Y-77747331D01*
X128411278Y-77747331D02*
X128030326Y-77747331D01*
X128030326Y-77747331D02*
X127935088Y-77794950D01*
X127935088Y-77794950D02*
X127887469Y-77842569D01*
X127887469Y-77842569D02*
X127839850Y-77937807D01*
X127839850Y-77937807D02*
X127839850Y-78080664D01*
X127839850Y-78080664D02*
X127887469Y-78175902D01*
X127887469Y-78175902D02*
X127935088Y-78223521D01*
X127935088Y-78223521D02*
X128030326Y-78271140D01*
X128030326Y-78271140D02*
X128411278Y-78271140D01*
X126839850Y-78747331D02*
X127173183Y-78271140D01*
X127411278Y-78747331D02*
X127411278Y-77747331D01*
X127411278Y-77747331D02*
X127030326Y-77747331D01*
X127030326Y-77747331D02*
X126935088Y-77794950D01*
X126935088Y-77794950D02*
X126887469Y-77842569D01*
X126887469Y-77842569D02*
X126839850Y-77937807D01*
X126839850Y-77937807D02*
X126839850Y-78080664D01*
X126839850Y-78080664D02*
X126887469Y-78175902D01*
X126887469Y-78175902D02*
X126935088Y-78223521D01*
X126935088Y-78223521D02*
X127030326Y-78271140D01*
X127030326Y-78271140D02*
X127411278Y-78271140D01*
X126220802Y-77747331D02*
X126030326Y-77747331D01*
X126030326Y-77747331D02*
X125935088Y-77794950D01*
X125935088Y-77794950D02*
X125839850Y-77890188D01*
X125839850Y-77890188D02*
X125792231Y-78080664D01*
X125792231Y-78080664D02*
X125792231Y-78413997D01*
X125792231Y-78413997D02*
X125839850Y-78604473D01*
X125839850Y-78604473D02*
X125935088Y-78699712D01*
X125935088Y-78699712D02*
X126030326Y-78747331D01*
X126030326Y-78747331D02*
X126220802Y-78747331D01*
X126220802Y-78747331D02*
X126316040Y-78699712D01*
X126316040Y-78699712D02*
X126411278Y-78604473D01*
X126411278Y-78604473D02*
X126458897Y-78413997D01*
X126458897Y-78413997D02*
X126458897Y-78080664D01*
X126458897Y-78080664D02*
X126411278Y-77890188D01*
X126411278Y-77890188D02*
X126316040Y-77794950D01*
X126316040Y-77794950D02*
X126220802Y-77747331D01*
X125363659Y-78747331D02*
X125363659Y-77747331D01*
X125363659Y-77747331D02*
X125030326Y-78461616D01*
X125030326Y-78461616D02*
X124696993Y-77747331D01*
X124696993Y-77747331D02*
X124696993Y-78747331D01*
X137030326Y-79976322D02*
X136268422Y-79976322D01*
X134458898Y-80357275D02*
X134792231Y-79881084D01*
X135030326Y-80357275D02*
X135030326Y-79357275D01*
X135030326Y-79357275D02*
X134649374Y-79357275D01*
X134649374Y-79357275D02*
X134554136Y-79404894D01*
X134554136Y-79404894D02*
X134506517Y-79452513D01*
X134506517Y-79452513D02*
X134458898Y-79547751D01*
X134458898Y-79547751D02*
X134458898Y-79690608D01*
X134458898Y-79690608D02*
X134506517Y-79785846D01*
X134506517Y-79785846D02*
X134554136Y-79833465D01*
X134554136Y-79833465D02*
X134649374Y-79881084D01*
X134649374Y-79881084D02*
X135030326Y-79881084D01*
X134173183Y-79357275D02*
X133601755Y-79357275D01*
X133887469Y-80357275D02*
X133887469Y-79357275D01*
X132696993Y-80262036D02*
X132744612Y-80309656D01*
X132744612Y-80309656D02*
X132887469Y-80357275D01*
X132887469Y-80357275D02*
X132982707Y-80357275D01*
X132982707Y-80357275D02*
X133125564Y-80309656D01*
X133125564Y-80309656D02*
X133220802Y-80214417D01*
X133220802Y-80214417D02*
X133268421Y-80119179D01*
X133268421Y-80119179D02*
X133316040Y-79928703D01*
X133316040Y-79928703D02*
X133316040Y-79785846D01*
X133316040Y-79785846D02*
X133268421Y-79595370D01*
X133268421Y-79595370D02*
X133220802Y-79500132D01*
X133220802Y-79500132D02*
X133125564Y-79404894D01*
X133125564Y-79404894D02*
X132982707Y-79357275D01*
X132982707Y-79357275D02*
X132887469Y-79357275D01*
X132887469Y-79357275D02*
X132744612Y-79404894D01*
X132744612Y-79404894D02*
X132696993Y-79452513D01*
X137030326Y-81586266D02*
X136268422Y-81586266D01*
X135030326Y-81967219D02*
X135030326Y-80967219D01*
X134601755Y-81062457D02*
X134554136Y-81014838D01*
X134554136Y-81014838D02*
X134458898Y-80967219D01*
X134458898Y-80967219D02*
X134220803Y-80967219D01*
X134220803Y-80967219D02*
X134125565Y-81014838D01*
X134125565Y-81014838D02*
X134077946Y-81062457D01*
X134077946Y-81062457D02*
X134030327Y-81157695D01*
X134030327Y-81157695D02*
X134030327Y-81252933D01*
X134030327Y-81252933D02*
X134077946Y-81395790D01*
X134077946Y-81395790D02*
X134649374Y-81967219D01*
X134649374Y-81967219D02*
X134030327Y-81967219D01*
X133030327Y-81871980D02*
X133077946Y-81919600D01*
X133077946Y-81919600D02*
X133220803Y-81967219D01*
X133220803Y-81967219D02*
X133316041Y-81967219D01*
X133316041Y-81967219D02*
X133458898Y-81919600D01*
X133458898Y-81919600D02*
X133554136Y-81824361D01*
X133554136Y-81824361D02*
X133601755Y-81729123D01*
X133601755Y-81729123D02*
X133649374Y-81538647D01*
X133649374Y-81538647D02*
X133649374Y-81395790D01*
X133649374Y-81395790D02*
X133601755Y-81205314D01*
X133601755Y-81205314D02*
X133554136Y-81110076D01*
X133554136Y-81110076D02*
X133458898Y-81014838D01*
X133458898Y-81014838D02*
X133316041Y-80967219D01*
X133316041Y-80967219D02*
X133220803Y-80967219D01*
X133220803Y-80967219D02*
X133077946Y-81014838D01*
X133077946Y-81014838D02*
X133030327Y-81062457D01*
X132554136Y-81919600D02*
X132554136Y-81967219D01*
X132554136Y-81967219D02*
X132601755Y-82062457D01*
X132601755Y-82062457D02*
X132649374Y-82110076D01*
X131411279Y-81919600D02*
X131268422Y-81967219D01*
X131268422Y-81967219D02*
X131030327Y-81967219D01*
X131030327Y-81967219D02*
X130935089Y-81919600D01*
X130935089Y-81919600D02*
X130887470Y-81871980D01*
X130887470Y-81871980D02*
X130839851Y-81776742D01*
X130839851Y-81776742D02*
X130839851Y-81681504D01*
X130839851Y-81681504D02*
X130887470Y-81586266D01*
X130887470Y-81586266D02*
X130935089Y-81538647D01*
X130935089Y-81538647D02*
X131030327Y-81491028D01*
X131030327Y-81491028D02*
X131220803Y-81443409D01*
X131220803Y-81443409D02*
X131316041Y-81395790D01*
X131316041Y-81395790D02*
X131363660Y-81348171D01*
X131363660Y-81348171D02*
X131411279Y-81252933D01*
X131411279Y-81252933D02*
X131411279Y-81157695D01*
X131411279Y-81157695D02*
X131363660Y-81062457D01*
X131363660Y-81062457D02*
X131316041Y-81014838D01*
X131316041Y-81014838D02*
X131220803Y-80967219D01*
X131220803Y-80967219D02*
X130982708Y-80967219D01*
X130982708Y-80967219D02*
X130839851Y-81014838D01*
X130411279Y-81967219D02*
X130411279Y-80967219D01*
X130411279Y-80967219D02*
X130030327Y-80967219D01*
X130030327Y-80967219D02*
X129935089Y-81014838D01*
X129935089Y-81014838D02*
X129887470Y-81062457D01*
X129887470Y-81062457D02*
X129839851Y-81157695D01*
X129839851Y-81157695D02*
X129839851Y-81300552D01*
X129839851Y-81300552D02*
X129887470Y-81395790D01*
X129887470Y-81395790D02*
X129935089Y-81443409D01*
X129935089Y-81443409D02*
X130030327Y-81491028D01*
X130030327Y-81491028D02*
X130411279Y-81491028D01*
X129411279Y-81967219D02*
X129411279Y-80967219D01*
X128887470Y-81919600D02*
X128887470Y-81967219D01*
X128887470Y-81967219D02*
X128935089Y-82062457D01*
X128935089Y-82062457D02*
X128982708Y-82110076D01*
X127173185Y-81014838D02*
X127268423Y-80967219D01*
X127268423Y-80967219D02*
X127411280Y-80967219D01*
X127411280Y-80967219D02*
X127554137Y-81014838D01*
X127554137Y-81014838D02*
X127649375Y-81110076D01*
X127649375Y-81110076D02*
X127696994Y-81205314D01*
X127696994Y-81205314D02*
X127744613Y-81395790D01*
X127744613Y-81395790D02*
X127744613Y-81538647D01*
X127744613Y-81538647D02*
X127696994Y-81729123D01*
X127696994Y-81729123D02*
X127649375Y-81824361D01*
X127649375Y-81824361D02*
X127554137Y-81919600D01*
X127554137Y-81919600D02*
X127411280Y-81967219D01*
X127411280Y-81967219D02*
X127316042Y-81967219D01*
X127316042Y-81967219D02*
X127173185Y-81919600D01*
X127173185Y-81919600D02*
X127125566Y-81871980D01*
X127125566Y-81871980D02*
X127125566Y-81538647D01*
X127125566Y-81538647D02*
X127316042Y-81538647D01*
X126696994Y-81967219D02*
X126696994Y-80967219D01*
X126696994Y-80967219D02*
X126316042Y-80967219D01*
X126316042Y-80967219D02*
X126220804Y-81014838D01*
X126220804Y-81014838D02*
X126173185Y-81062457D01*
X126173185Y-81062457D02*
X126125566Y-81157695D01*
X126125566Y-81157695D02*
X126125566Y-81300552D01*
X126125566Y-81300552D02*
X126173185Y-81395790D01*
X126173185Y-81395790D02*
X126220804Y-81443409D01*
X126220804Y-81443409D02*
X126316042Y-81491028D01*
X126316042Y-81491028D02*
X126696994Y-81491028D01*
X125696994Y-81967219D02*
X125696994Y-80967219D01*
X125030328Y-80967219D02*
X124839852Y-80967219D01*
X124839852Y-80967219D02*
X124744614Y-81014838D01*
X124744614Y-81014838D02*
X124649376Y-81110076D01*
X124649376Y-81110076D02*
X124601757Y-81300552D01*
X124601757Y-81300552D02*
X124601757Y-81633885D01*
X124601757Y-81633885D02*
X124649376Y-81824361D01*
X124649376Y-81824361D02*
X124744614Y-81919600D01*
X124744614Y-81919600D02*
X124839852Y-81967219D01*
X124839852Y-81967219D02*
X125030328Y-81967219D01*
X125030328Y-81967219D02*
X125125566Y-81919600D01*
X125125566Y-81919600D02*
X125220804Y-81824361D01*
X125220804Y-81824361D02*
X125268423Y-81633885D01*
X125268423Y-81633885D02*
X125268423Y-81300552D01*
X125268423Y-81300552D02*
X125220804Y-81110076D01*
X125220804Y-81110076D02*
X125125566Y-81014838D01*
X125125566Y-81014838D02*
X125030328Y-80967219D01*
X124220804Y-81919600D02*
X124125566Y-81967219D01*
X124125566Y-81967219D02*
X123935090Y-81967219D01*
X123935090Y-81967219D02*
X123839852Y-81919600D01*
X123839852Y-81919600D02*
X123792233Y-81824361D01*
X123792233Y-81824361D02*
X123792233Y-81776742D01*
X123792233Y-81776742D02*
X123839852Y-81681504D01*
X123839852Y-81681504D02*
X123935090Y-81633885D01*
X123935090Y-81633885D02*
X124077947Y-81633885D01*
X124077947Y-81633885D02*
X124173185Y-81586266D01*
X124173185Y-81586266D02*
X124220804Y-81491028D01*
X124220804Y-81491028D02*
X124220804Y-81443409D01*
X124220804Y-81443409D02*
X124173185Y-81348171D01*
X124173185Y-81348171D02*
X124077947Y-81300552D01*
X124077947Y-81300552D02*
X123935090Y-81300552D01*
X123935090Y-81300552D02*
X123839852Y-81348171D01*
D11*
%TO.C,REF\u002A\u002A*%
X110155406Y-99724949D02*
X110181127Y-99740647D01*
X110207778Y-99762227D01*
X110207778Y-100409684D01*
X110181127Y-100431264D01*
X110149767Y-100448739D01*
X110113966Y-100449575D01*
X110082528Y-100429082D01*
X110078652Y-100424416D01*
X110073186Y-100414949D01*
X110068979Y-100401267D01*
X110065867Y-100380748D01*
X110063687Y-100350768D01*
X110062276Y-100308704D01*
X110061471Y-100251932D01*
X110061107Y-100177830D01*
X110061022Y-100083773D01*
X110061022Y-99762227D01*
X110087673Y-99740647D01*
X110111386Y-99725877D01*
X110134400Y-99719067D01*
X110155406Y-99724949D01*
G36*
X110155406Y-99724949D02*
G01*
X110181127Y-99740647D01*
X110207778Y-99762227D01*
X110207778Y-100409684D01*
X110181127Y-100431264D01*
X110149767Y-100448739D01*
X110113966Y-100449575D01*
X110082528Y-100429082D01*
X110078652Y-100424416D01*
X110073186Y-100414949D01*
X110068979Y-100401267D01*
X110065867Y-100380748D01*
X110063687Y-100350768D01*
X110062276Y-100308704D01*
X110061471Y-100251932D01*
X110061107Y-100177830D01*
X110061022Y-100083773D01*
X110061022Y-99762227D01*
X110087673Y-99740647D01*
X110111386Y-99725877D01*
X110134400Y-99719067D01*
X110155406Y-99724949D01*
G37*
X117286137Y-99723463D02*
X117320291Y-99746776D01*
X117348000Y-99774485D01*
X117348000Y-100087537D01*
X117347959Y-100171567D01*
X117347701Y-100245789D01*
X117347030Y-100302541D01*
X117345752Y-100344512D01*
X117343673Y-100374389D01*
X117340599Y-100394861D01*
X117336334Y-100408614D01*
X117330684Y-100418337D01*
X117323455Y-100426717D01*
X117291991Y-100448181D01*
X117256826Y-100449947D01*
X117223822Y-100430267D01*
X117218516Y-100424398D01*
X117213066Y-100415314D01*
X117208900Y-100401973D01*
X117205846Y-100381757D01*
X117203732Y-100352049D01*
X117202386Y-100310232D01*
X117201638Y-100253689D01*
X117201314Y-100179802D01*
X117201245Y-100085956D01*
X117201284Y-100010294D01*
X117201539Y-99932385D01*
X117202183Y-99872375D01*
X117203387Y-99827648D01*
X117205324Y-99795585D01*
X117208164Y-99773571D01*
X117212079Y-99758987D01*
X117217242Y-99749218D01*
X117223822Y-99741645D01*
X117253006Y-99722623D01*
X117286137Y-99723463D01*
G36*
X117286137Y-99723463D02*
G01*
X117320291Y-99746776D01*
X117348000Y-99774485D01*
X117348000Y-100087537D01*
X117347959Y-100171567D01*
X117347701Y-100245789D01*
X117347030Y-100302541D01*
X117345752Y-100344512D01*
X117343673Y-100374389D01*
X117340599Y-100394861D01*
X117336334Y-100408614D01*
X117330684Y-100418337D01*
X117323455Y-100426717D01*
X117291991Y-100448181D01*
X117256826Y-100449947D01*
X117223822Y-100430267D01*
X117218516Y-100424398D01*
X117213066Y-100415314D01*
X117208900Y-100401973D01*
X117205846Y-100381757D01*
X117203732Y-100352049D01*
X117202386Y-100310232D01*
X117201638Y-100253689D01*
X117201314Y-100179802D01*
X117201245Y-100085956D01*
X117201284Y-100010294D01*
X117201539Y-99932385D01*
X117202183Y-99872375D01*
X117203387Y-99827648D01*
X117205324Y-99795585D01*
X117208164Y-99773571D01*
X117212079Y-99758987D01*
X117217242Y-99749218D01*
X117223822Y-99741645D01*
X117253006Y-99722623D01*
X117286137Y-99723463D01*
G37*
X116754562Y-94482850D02*
X116837313Y-94510053D01*
X116912406Y-94555484D01*
X116984298Y-94621302D01*
X117022846Y-94665567D01*
X117062256Y-94723961D01*
X117087446Y-94784586D01*
X117100861Y-94853865D01*
X117104948Y-94938222D01*
X117104669Y-94984307D01*
X117102460Y-95025450D01*
X117096894Y-95057582D01*
X117086586Y-95088122D01*
X117070148Y-95124489D01*
X117056200Y-95151728D01*
X116997665Y-95237429D01*
X116925619Y-95306617D01*
X116841947Y-95357741D01*
X116748531Y-95389250D01*
X116715434Y-95396225D01*
X116674960Y-95403094D01*
X116641999Y-95404919D01*
X116607698Y-95401947D01*
X116563200Y-95394426D01*
X116511934Y-95382002D01*
X116421434Y-95344112D01*
X116342345Y-95289836D01*
X116276528Y-95221770D01*
X116225840Y-95142511D01*
X116192140Y-95054654D01*
X116177286Y-94960795D01*
X116183136Y-94863530D01*
X116209399Y-94767220D01*
X116254418Y-94678494D01*
X116315373Y-94603419D01*
X116390184Y-94543641D01*
X116476768Y-94500809D01*
X116573043Y-94476571D01*
X116676928Y-94472576D01*
X116754562Y-94482850D01*
G36*
X116754562Y-94482850D02*
G01*
X116837313Y-94510053D01*
X116912406Y-94555484D01*
X116984298Y-94621302D01*
X117022846Y-94665567D01*
X117062256Y-94723961D01*
X117087446Y-94784586D01*
X117100861Y-94853865D01*
X117104948Y-94938222D01*
X117104669Y-94984307D01*
X117102460Y-95025450D01*
X117096894Y-95057582D01*
X117086586Y-95088122D01*
X117070148Y-95124489D01*
X117056200Y-95151728D01*
X116997665Y-95237429D01*
X116925619Y-95306617D01*
X116841947Y-95357741D01*
X116748531Y-95389250D01*
X116715434Y-95396225D01*
X116674960Y-95403094D01*
X116641999Y-95404919D01*
X116607698Y-95401947D01*
X116563200Y-95394426D01*
X116511934Y-95382002D01*
X116421434Y-95344112D01*
X116342345Y-95289836D01*
X116276528Y-95221770D01*
X116225840Y-95142511D01*
X116192140Y-95054654D01*
X116177286Y-94960795D01*
X116183136Y-94863530D01*
X116209399Y-94767220D01*
X116254418Y-94678494D01*
X116315373Y-94603419D01*
X116390184Y-94543641D01*
X116476768Y-94500809D01*
X116573043Y-94476571D01*
X116676928Y-94472576D01*
X116754562Y-94482850D01*
G37*
X109455767Y-99719068D02*
X109549890Y-99719158D01*
X109624405Y-99719498D01*
X109681811Y-99720239D01*
X109724611Y-99721535D01*
X109755304Y-99723537D01*
X109776391Y-99726396D01*
X109790373Y-99730266D01*
X109799750Y-99735298D01*
X109807022Y-99741645D01*
X109825828Y-99774362D01*
X109827275Y-99811939D01*
X109810917Y-99845178D01*
X109809557Y-99846631D01*
X109798354Y-99854992D01*
X109781252Y-99860547D01*
X109754082Y-99863840D01*
X109712678Y-99865418D01*
X109652873Y-99865822D01*
X109513511Y-99865822D01*
X109513511Y-100129589D01*
X109513436Y-100205417D01*
X109513028Y-100272083D01*
X109512046Y-100321867D01*
X109510250Y-100357784D01*
X109507399Y-100382850D01*
X109503253Y-100400081D01*
X109497571Y-100412492D01*
X109490114Y-100423100D01*
X109487824Y-100425906D01*
X109456646Y-100448548D01*
X109422266Y-100450112D01*
X109389334Y-100430267D01*
X109382355Y-100422191D01*
X109376883Y-100411593D01*
X109372863Y-100395749D01*
X109370072Y-100371773D01*
X109368288Y-100336774D01*
X109367289Y-100287864D01*
X109366852Y-100222154D01*
X109366756Y-100136756D01*
X109366756Y-99865822D01*
X109220820Y-99865822D01*
X109209720Y-99865821D01*
X109153202Y-99865596D01*
X109114358Y-99864457D01*
X109088965Y-99861657D01*
X109072804Y-99856450D01*
X109061652Y-99848089D01*
X109051289Y-99835826D01*
X109035441Y-99805138D01*
X109038543Y-99771358D01*
X109064187Y-99738822D01*
X109069129Y-99735105D01*
X109079338Y-99730269D01*
X109094764Y-99726506D01*
X109117886Y-99723683D01*
X109151183Y-99721670D01*
X109197137Y-99720333D01*
X109258228Y-99719542D01*
X109336935Y-99719163D01*
X109435740Y-99719067D01*
X109455767Y-99719068D01*
G36*
X109455767Y-99719068D02*
G01*
X109549890Y-99719158D01*
X109624405Y-99719498D01*
X109681811Y-99720239D01*
X109724611Y-99721535D01*
X109755304Y-99723537D01*
X109776391Y-99726396D01*
X109790373Y-99730266D01*
X109799750Y-99735298D01*
X109807022Y-99741645D01*
X109825828Y-99774362D01*
X109827275Y-99811939D01*
X109810917Y-99845178D01*
X109809557Y-99846631D01*
X109798354Y-99854992D01*
X109781252Y-99860547D01*
X109754082Y-99863840D01*
X109712678Y-99865418D01*
X109652873Y-99865822D01*
X109513511Y-99865822D01*
X109513511Y-100129589D01*
X109513436Y-100205417D01*
X109513028Y-100272083D01*
X109512046Y-100321867D01*
X109510250Y-100357784D01*
X109507399Y-100382850D01*
X109503253Y-100400081D01*
X109497571Y-100412492D01*
X109490114Y-100423100D01*
X109487824Y-100425906D01*
X109456646Y-100448548D01*
X109422266Y-100450112D01*
X109389334Y-100430267D01*
X109382355Y-100422191D01*
X109376883Y-100411593D01*
X109372863Y-100395749D01*
X109370072Y-100371773D01*
X109368288Y-100336774D01*
X109367289Y-100287864D01*
X109366852Y-100222154D01*
X109366756Y-100136756D01*
X109366756Y-99865822D01*
X109220820Y-99865822D01*
X109209720Y-99865821D01*
X109153202Y-99865596D01*
X109114358Y-99864457D01*
X109088965Y-99861657D01*
X109072804Y-99856450D01*
X109061652Y-99848089D01*
X109051289Y-99835826D01*
X109035441Y-99805138D01*
X109038543Y-99771358D01*
X109064187Y-99738822D01*
X109069129Y-99735105D01*
X109079338Y-99730269D01*
X109094764Y-99726506D01*
X109117886Y-99723683D01*
X109151183Y-99721670D01*
X109197137Y-99720333D01*
X109258228Y-99719542D01*
X109336935Y-99719163D01*
X109435740Y-99719067D01*
X109455767Y-99719068D01*
G37*
X108779734Y-99741645D02*
X108785366Y-99747835D01*
X108790456Y-99756041D01*
X108794543Y-99767817D01*
X108797721Y-99785276D01*
X108800087Y-99810530D01*
X108801738Y-99845690D01*
X108802769Y-99892869D01*
X108803277Y-99954177D01*
X108803359Y-100031727D01*
X108803109Y-100127631D01*
X108802625Y-100244000D01*
X108802557Y-100258175D01*
X108801971Y-100319937D01*
X108800648Y-100363620D01*
X108798103Y-100393001D01*
X108793848Y-100411855D01*
X108787396Y-100423959D01*
X108778262Y-100433089D01*
X108744804Y-100450506D01*
X108709856Y-100447604D01*
X108678953Y-100423100D01*
X108669944Y-100409897D01*
X108662492Y-100391361D01*
X108658124Y-100365333D01*
X108656069Y-100326787D01*
X108655556Y-100270700D01*
X108655556Y-100148045D01*
X108158845Y-100148045D01*
X108158845Y-100282871D01*
X108158772Y-100318662D01*
X108158009Y-100364992D01*
X108155833Y-100395526D01*
X108151536Y-100414557D01*
X108144412Y-100426374D01*
X108133755Y-100435271D01*
X108101504Y-100450341D01*
X108066217Y-100447673D01*
X108035486Y-100423100D01*
X108030831Y-100416845D01*
X108024895Y-100406321D01*
X108020364Y-100392391D01*
X108017048Y-100372317D01*
X108014759Y-100343360D01*
X108013308Y-100302780D01*
X108012505Y-100247840D01*
X108012162Y-100175799D01*
X108012089Y-100083920D01*
X108012089Y-99774485D01*
X108039798Y-99746776D01*
X108071177Y-99724533D01*
X108104406Y-99721844D01*
X108136267Y-99741645D01*
X108144553Y-99751415D01*
X108151965Y-99767307D01*
X108156302Y-99791275D01*
X108158338Y-99828148D01*
X108158845Y-99882756D01*
X108158845Y-100001289D01*
X108655556Y-100001289D01*
X108655556Y-99885776D01*
X108655994Y-99834078D01*
X108657958Y-99799554D01*
X108662474Y-99776978D01*
X108670567Y-99761126D01*
X108683265Y-99746776D01*
X108714643Y-99724533D01*
X108747872Y-99721844D01*
X108779734Y-99741645D01*
G36*
X108779734Y-99741645D02*
G01*
X108785366Y-99747835D01*
X108790456Y-99756041D01*
X108794543Y-99767817D01*
X108797721Y-99785276D01*
X108800087Y-99810530D01*
X108801738Y-99845690D01*
X108802769Y-99892869D01*
X108803277Y-99954177D01*
X108803359Y-100031727D01*
X108803109Y-100127631D01*
X108802625Y-100244000D01*
X108802557Y-100258175D01*
X108801971Y-100319937D01*
X108800648Y-100363620D01*
X108798103Y-100393001D01*
X108793848Y-100411855D01*
X108787396Y-100423959D01*
X108778262Y-100433089D01*
X108744804Y-100450506D01*
X108709856Y-100447604D01*
X108678953Y-100423100D01*
X108669944Y-100409897D01*
X108662492Y-100391361D01*
X108658124Y-100365333D01*
X108656069Y-100326787D01*
X108655556Y-100270700D01*
X108655556Y-100148045D01*
X108158845Y-100148045D01*
X108158845Y-100282871D01*
X108158772Y-100318662D01*
X108158009Y-100364992D01*
X108155833Y-100395526D01*
X108151536Y-100414557D01*
X108144412Y-100426374D01*
X108133755Y-100435271D01*
X108101504Y-100450341D01*
X108066217Y-100447673D01*
X108035486Y-100423100D01*
X108030831Y-100416845D01*
X108024895Y-100406321D01*
X108020364Y-100392391D01*
X108017048Y-100372317D01*
X108014759Y-100343360D01*
X108013308Y-100302780D01*
X108012505Y-100247840D01*
X108012162Y-100175799D01*
X108012089Y-100083920D01*
X108012089Y-99774485D01*
X108039798Y-99746776D01*
X108071177Y-99724533D01*
X108104406Y-99721844D01*
X108136267Y-99741645D01*
X108144553Y-99751415D01*
X108151965Y-99767307D01*
X108156302Y-99791275D01*
X108158338Y-99828148D01*
X108158845Y-99882756D01*
X108158845Y-100001289D01*
X108655556Y-100001289D01*
X108655556Y-99885776D01*
X108655994Y-99834078D01*
X108657958Y-99799554D01*
X108662474Y-99776978D01*
X108670567Y-99761126D01*
X108683265Y-99746776D01*
X108714643Y-99724533D01*
X108747872Y-99721844D01*
X108779734Y-99741645D01*
G37*
X113485133Y-100330396D02*
X113483163Y-100363175D01*
X113480235Y-100386095D01*
X113476158Y-100401897D01*
X113470743Y-100413319D01*
X113463803Y-100423100D01*
X113440406Y-100452845D01*
X113274714Y-100452251D01*
X113239918Y-100451953D01*
X113141435Y-100448522D01*
X113060473Y-100440839D01*
X112993379Y-100428282D01*
X112936496Y-100410227D01*
X112886169Y-100386052D01*
X112882810Y-100384135D01*
X112824998Y-100347417D01*
X112782644Y-100310451D01*
X112749828Y-100266966D01*
X112720628Y-100210689D01*
X112716346Y-100201073D01*
X112693769Y-100137887D01*
X112688034Y-100092333D01*
X112837279Y-100092333D01*
X112842892Y-100117061D01*
X112848618Y-100132939D01*
X112881548Y-100192847D01*
X112928886Y-100238600D01*
X112992652Y-100271736D01*
X113074861Y-100293790D01*
X113077655Y-100294292D01*
X113123940Y-100300255D01*
X113180336Y-100304483D01*
X113235274Y-100306089D01*
X113329156Y-100306089D01*
X113329156Y-99865822D01*
X113241667Y-99866270D01*
X113174747Y-99868746D01*
X113082349Y-99879998D01*
X113003034Y-99899537D01*
X112941060Y-99926511D01*
X112910120Y-99947240D01*
X112882000Y-99977006D01*
X112858660Y-100019434D01*
X112851533Y-100035400D01*
X112839709Y-100067902D01*
X112837279Y-100092333D01*
X112688034Y-100092333D01*
X112686797Y-100082509D01*
X112695399Y-100027483D01*
X112719541Y-99965351D01*
X112720337Y-99963658D01*
X112760788Y-99894236D01*
X112811473Y-99837638D01*
X112874198Y-99793070D01*
X112950774Y-99759741D01*
X113043009Y-99736861D01*
X113152712Y-99723636D01*
X113281691Y-99719275D01*
X113285263Y-99719270D01*
X113345283Y-99719410D01*
X113387214Y-99720446D01*
X113415328Y-99723040D01*
X113433897Y-99727853D01*
X113447194Y-99735544D01*
X113459491Y-99746776D01*
X113487200Y-99774485D01*
X113487200Y-100083920D01*
X113487175Y-100145526D01*
X113486950Y-100224311D01*
X113486332Y-100285021D01*
X113485775Y-100306089D01*
X113485133Y-100330396D01*
G36*
X113485133Y-100330396D02*
G01*
X113483163Y-100363175D01*
X113480235Y-100386095D01*
X113476158Y-100401897D01*
X113470743Y-100413319D01*
X113463803Y-100423100D01*
X113440406Y-100452845D01*
X113274714Y-100452251D01*
X113239918Y-100451953D01*
X113141435Y-100448522D01*
X113060473Y-100440839D01*
X112993379Y-100428282D01*
X112936496Y-100410227D01*
X112886169Y-100386052D01*
X112882810Y-100384135D01*
X112824998Y-100347417D01*
X112782644Y-100310451D01*
X112749828Y-100266966D01*
X112720628Y-100210689D01*
X112716346Y-100201073D01*
X112693769Y-100137887D01*
X112688034Y-100092333D01*
X112837279Y-100092333D01*
X112842892Y-100117061D01*
X112848618Y-100132939D01*
X112881548Y-100192847D01*
X112928886Y-100238600D01*
X112992652Y-100271736D01*
X113074861Y-100293790D01*
X113077655Y-100294292D01*
X113123940Y-100300255D01*
X113180336Y-100304483D01*
X113235274Y-100306089D01*
X113329156Y-100306089D01*
X113329156Y-99865822D01*
X113241667Y-99866270D01*
X113174747Y-99868746D01*
X113082349Y-99879998D01*
X113003034Y-99899537D01*
X112941060Y-99926511D01*
X112910120Y-99947240D01*
X112882000Y-99977006D01*
X112858660Y-100019434D01*
X112851533Y-100035400D01*
X112839709Y-100067902D01*
X112837279Y-100092333D01*
X112688034Y-100092333D01*
X112686797Y-100082509D01*
X112695399Y-100027483D01*
X112719541Y-99965351D01*
X112720337Y-99963658D01*
X112760788Y-99894236D01*
X112811473Y-99837638D01*
X112874198Y-99793070D01*
X112950774Y-99759741D01*
X113043009Y-99736861D01*
X113152712Y-99723636D01*
X113281691Y-99719275D01*
X113285263Y-99719270D01*
X113345283Y-99719410D01*
X113387214Y-99720446D01*
X113415328Y-99723040D01*
X113433897Y-99727853D01*
X113447194Y-99735544D01*
X113459491Y-99746776D01*
X113487200Y-99774485D01*
X113487200Y-100083920D01*
X113487175Y-100145526D01*
X113486950Y-100224311D01*
X113486332Y-100285021D01*
X113485775Y-100306089D01*
X113485133Y-100330396D01*
G37*
X120576817Y-99904427D02*
X120576870Y-99985041D01*
X120576622Y-100085956D01*
X120576583Y-100161617D01*
X120576328Y-100239526D01*
X120575684Y-100299536D01*
X120574480Y-100344264D01*
X120572543Y-100376326D01*
X120569703Y-100398340D01*
X120565788Y-100412924D01*
X120560626Y-100422694D01*
X120554045Y-100430267D01*
X120547077Y-100436501D01*
X120534079Y-100443801D01*
X120514931Y-100448554D01*
X120485528Y-100451292D01*
X120441762Y-100452545D01*
X120379528Y-100452845D01*
X120330582Y-100452469D01*
X120223722Y-100448041D01*
X120134494Y-100437953D01*
X120059696Y-100421365D01*
X119996125Y-100397435D01*
X119940579Y-100365321D01*
X119889854Y-100324182D01*
X119883866Y-100318330D01*
X119846999Y-100269821D01*
X119815899Y-100209013D01*
X119794417Y-100144769D01*
X119789136Y-100106026D01*
X119936353Y-100106026D01*
X119954635Y-100156961D01*
X119984305Y-100202878D01*
X120031002Y-100245287D01*
X120092392Y-100275090D01*
X120171538Y-100294226D01*
X120173028Y-100294464D01*
X120221999Y-100300256D01*
X120280693Y-100304396D01*
X120336734Y-100306004D01*
X120429867Y-100306089D01*
X120429867Y-99865822D01*
X120353667Y-99865808D01*
X120350639Y-99865817D01*
X120299519Y-99867782D01*
X120239416Y-99872507D01*
X120182708Y-99879035D01*
X120132750Y-99888331D01*
X120057998Y-99914600D01*
X120000489Y-99953899D01*
X119958988Y-100006933D01*
X119937771Y-100058200D01*
X119936353Y-100106026D01*
X119789136Y-100106026D01*
X119786400Y-100085956D01*
X119787679Y-100064739D01*
X119799991Y-100007323D01*
X119822520Y-99947413D01*
X119851750Y-99893363D01*
X119884167Y-99853532D01*
X119903708Y-99836510D01*
X119958420Y-99797322D01*
X120018723Y-99767193D01*
X120087919Y-99745232D01*
X120169311Y-99730550D01*
X120266200Y-99722259D01*
X120381889Y-99719467D01*
X120421371Y-99719066D01*
X120467082Y-99718653D01*
X120502883Y-99720457D01*
X120529974Y-99726739D01*
X120549556Y-99739759D01*
X120562830Y-99761778D01*
X120570998Y-99795055D01*
X120575260Y-99841851D01*
X120575857Y-99865822D01*
X120576817Y-99904427D01*
G36*
X120576817Y-99904427D02*
G01*
X120576870Y-99985041D01*
X120576622Y-100085956D01*
X120576583Y-100161617D01*
X120576328Y-100239526D01*
X120575684Y-100299536D01*
X120574480Y-100344264D01*
X120572543Y-100376326D01*
X120569703Y-100398340D01*
X120565788Y-100412924D01*
X120560626Y-100422694D01*
X120554045Y-100430267D01*
X120547077Y-100436501D01*
X120534079Y-100443801D01*
X120514931Y-100448554D01*
X120485528Y-100451292D01*
X120441762Y-100452545D01*
X120379528Y-100452845D01*
X120330582Y-100452469D01*
X120223722Y-100448041D01*
X120134494Y-100437953D01*
X120059696Y-100421365D01*
X119996125Y-100397435D01*
X119940579Y-100365321D01*
X119889854Y-100324182D01*
X119883866Y-100318330D01*
X119846999Y-100269821D01*
X119815899Y-100209013D01*
X119794417Y-100144769D01*
X119789136Y-100106026D01*
X119936353Y-100106026D01*
X119954635Y-100156961D01*
X119984305Y-100202878D01*
X120031002Y-100245287D01*
X120092392Y-100275090D01*
X120171538Y-100294226D01*
X120173028Y-100294464D01*
X120221999Y-100300256D01*
X120280693Y-100304396D01*
X120336734Y-100306004D01*
X120429867Y-100306089D01*
X120429867Y-99865822D01*
X120353667Y-99865808D01*
X120350639Y-99865817D01*
X120299519Y-99867782D01*
X120239416Y-99872507D01*
X120182708Y-99879035D01*
X120132750Y-99888331D01*
X120057998Y-99914600D01*
X120000489Y-99953899D01*
X119958988Y-100006933D01*
X119937771Y-100058200D01*
X119936353Y-100106026D01*
X119789136Y-100106026D01*
X119786400Y-100085956D01*
X119787679Y-100064739D01*
X119799991Y-100007323D01*
X119822520Y-99947413D01*
X119851750Y-99893363D01*
X119884167Y-99853532D01*
X119903708Y-99836510D01*
X119958420Y-99797322D01*
X120018723Y-99767193D01*
X120087919Y-99745232D01*
X120169311Y-99730550D01*
X120266200Y-99722259D01*
X120381889Y-99719467D01*
X120421371Y-99719066D01*
X120467082Y-99718653D01*
X120502883Y-99720457D01*
X120529974Y-99726739D01*
X120549556Y-99739759D01*
X120562830Y-99761778D01*
X120570998Y-99795055D01*
X120575260Y-99841851D01*
X120575857Y-99865822D01*
X120576817Y-99904427D01*
G37*
X115631893Y-99717892D02*
X115643301Y-99724029D01*
X115653850Y-99734691D01*
X115665136Y-99748811D01*
X115669589Y-99754772D01*
X115675588Y-99765268D01*
X115680167Y-99779093D01*
X115683519Y-99798998D01*
X115685833Y-99827732D01*
X115687301Y-99868045D01*
X115688113Y-99922687D01*
X115688460Y-99994407D01*
X115688534Y-100085956D01*
X115688511Y-100144486D01*
X115688292Y-100223573D01*
X115687683Y-100284516D01*
X115686492Y-100330062D01*
X115684529Y-100362963D01*
X115681603Y-100385968D01*
X115677523Y-100401826D01*
X115672097Y-100413286D01*
X115665136Y-100423100D01*
X115634708Y-100447493D01*
X115599765Y-100450372D01*
X115562784Y-100431282D01*
X115558600Y-100427807D01*
X115550424Y-100419279D01*
X115544364Y-100407728D01*
X115539981Y-100389896D01*
X115536839Y-100362524D01*
X115534502Y-100322354D01*
X115532531Y-100266128D01*
X115530489Y-100190589D01*
X115524845Y-99971458D01*
X115259556Y-100212099D01*
X115185722Y-100278875D01*
X115120542Y-100336991D01*
X115068348Y-100381949D01*
X115027273Y-100414871D01*
X114995455Y-100436879D01*
X114971026Y-100449094D01*
X114952124Y-100452639D01*
X114936883Y-100448636D01*
X114923439Y-100438207D01*
X114909927Y-100422474D01*
X114903682Y-100413991D01*
X114898050Y-100403413D01*
X114893839Y-100389255D01*
X114890887Y-100368803D01*
X114889032Y-100339342D01*
X114888113Y-100298161D01*
X114887968Y-100242544D01*
X114888435Y-100169779D01*
X114889352Y-100077151D01*
X114892667Y-99762199D01*
X114919318Y-99740633D01*
X114945383Y-99724441D01*
X114978241Y-99721670D01*
X115012772Y-99740623D01*
X115017084Y-99744208D01*
X115025216Y-99752737D01*
X115031245Y-99764329D01*
X115035606Y-99782235D01*
X115038734Y-99809706D01*
X115041063Y-99849994D01*
X115043029Y-99906351D01*
X115045067Y-99982029D01*
X115050711Y-100201878D01*
X115231334Y-100038084D01*
X115318072Y-99959451D01*
X115393843Y-99891058D01*
X115455980Y-99835708D01*
X115506078Y-99792338D01*
X115545735Y-99759881D01*
X115576548Y-99737273D01*
X115600114Y-99723448D01*
X115618030Y-99717343D01*
X115631893Y-99717892D01*
G36*
X115631893Y-99717892D02*
G01*
X115643301Y-99724029D01*
X115653850Y-99734691D01*
X115665136Y-99748811D01*
X115669589Y-99754772D01*
X115675588Y-99765268D01*
X115680167Y-99779093D01*
X115683519Y-99798998D01*
X115685833Y-99827732D01*
X115687301Y-99868045D01*
X115688113Y-99922687D01*
X115688460Y-99994407D01*
X115688534Y-100085956D01*
X115688511Y-100144486D01*
X115688292Y-100223573D01*
X115687683Y-100284516D01*
X115686492Y-100330062D01*
X115684529Y-100362963D01*
X115681603Y-100385968D01*
X115677523Y-100401826D01*
X115672097Y-100413286D01*
X115665136Y-100423100D01*
X115634708Y-100447493D01*
X115599765Y-100450372D01*
X115562784Y-100431282D01*
X115558600Y-100427807D01*
X115550424Y-100419279D01*
X115544364Y-100407728D01*
X115539981Y-100389896D01*
X115536839Y-100362524D01*
X115534502Y-100322354D01*
X115532531Y-100266128D01*
X115530489Y-100190589D01*
X115524845Y-99971458D01*
X115259556Y-100212099D01*
X115185722Y-100278875D01*
X115120542Y-100336991D01*
X115068348Y-100381949D01*
X115027273Y-100414871D01*
X114995455Y-100436879D01*
X114971026Y-100449094D01*
X114952124Y-100452639D01*
X114936883Y-100448636D01*
X114923439Y-100438207D01*
X114909927Y-100422474D01*
X114903682Y-100413991D01*
X114898050Y-100403413D01*
X114893839Y-100389255D01*
X114890887Y-100368803D01*
X114889032Y-100339342D01*
X114888113Y-100298161D01*
X114887968Y-100242544D01*
X114888435Y-100169779D01*
X114889352Y-100077151D01*
X114892667Y-99762199D01*
X114919318Y-99740633D01*
X114945383Y-99724441D01*
X114978241Y-99721670D01*
X115012772Y-99740623D01*
X115017084Y-99744208D01*
X115025216Y-99752737D01*
X115031245Y-99764329D01*
X115035606Y-99782235D01*
X115038734Y-99809706D01*
X115041063Y-99849994D01*
X115043029Y-99906351D01*
X115045067Y-99982029D01*
X115050711Y-100201878D01*
X115231334Y-100038084D01*
X115318072Y-99959451D01*
X115393843Y-99891058D01*
X115455980Y-99835708D01*
X115506078Y-99792338D01*
X115545735Y-99759881D01*
X115576548Y-99737273D01*
X115600114Y-99723448D01*
X115618030Y-99717343D01*
X115631893Y-99717892D01*
G37*
X116429150Y-99724179D02*
X116535157Y-99740494D01*
X116628969Y-99768545D01*
X116707765Y-99807452D01*
X116768719Y-99856334D01*
X116794789Y-99889195D01*
X116824297Y-99938394D01*
X116849568Y-99992252D01*
X116867218Y-100043419D01*
X116873858Y-100084544D01*
X116872298Y-100104259D01*
X116859357Y-100155592D01*
X116836194Y-100212118D01*
X116806302Y-100266035D01*
X116773173Y-100309539D01*
X116762977Y-100319887D01*
X116695892Y-100371662D01*
X116615766Y-100411554D01*
X116529556Y-100435956D01*
X116474592Y-100444068D01*
X116381139Y-100450673D01*
X116291358Y-100448586D01*
X116208869Y-100438340D01*
X116137286Y-100420470D01*
X116080228Y-100395508D01*
X116041311Y-100363988D01*
X116039936Y-100362012D01*
X116032848Y-100336786D01*
X116028609Y-100289535D01*
X116027200Y-100220071D01*
X116028060Y-100157838D01*
X116032780Y-100110456D01*
X116044470Y-100078353D01*
X116066239Y-100058800D01*
X116101198Y-100049070D01*
X116152456Y-100046433D01*
X116223123Y-100048161D01*
X116271743Y-100051173D01*
X116321939Y-100059366D01*
X116354433Y-100073419D01*
X116371892Y-100094654D01*
X116376983Y-100124394D01*
X116376877Y-100128936D01*
X116368175Y-100163730D01*
X116344165Y-100187147D01*
X116302900Y-100200347D01*
X116242431Y-100204489D01*
X116173956Y-100204489D01*
X116173956Y-100242841D01*
X116174006Y-100251976D01*
X116176227Y-100269227D01*
X116185494Y-100279521D01*
X116206875Y-100286459D01*
X116245436Y-100293641D01*
X116250910Y-100294575D01*
X116347860Y-100304478D01*
X116437852Y-100301559D01*
X116518760Y-100286829D01*
X116588459Y-100261299D01*
X116644824Y-100225978D01*
X116685729Y-100181879D01*
X116709051Y-100130012D01*
X116712663Y-100071388D01*
X116707145Y-100042494D01*
X116680461Y-99986604D01*
X116634273Y-99940945D01*
X116569291Y-99906108D01*
X116486229Y-99882690D01*
X116461555Y-99878241D01*
X116372226Y-99867742D01*
X116292419Y-99868971D01*
X116214326Y-99881906D01*
X116179183Y-99888696D01*
X116133745Y-99889713D01*
X116102430Y-99877182D01*
X116082277Y-99850395D01*
X116075893Y-99822148D01*
X116085379Y-99790924D01*
X116094708Y-99777499D01*
X116128943Y-99753967D01*
X116181565Y-99736095D01*
X116250081Y-99724599D01*
X116332000Y-99720192D01*
X116429150Y-99724179D01*
G36*
X116429150Y-99724179D02*
G01*
X116535157Y-99740494D01*
X116628969Y-99768545D01*
X116707765Y-99807452D01*
X116768719Y-99856334D01*
X116794789Y-99889195D01*
X116824297Y-99938394D01*
X116849568Y-99992252D01*
X116867218Y-100043419D01*
X116873858Y-100084544D01*
X116872298Y-100104259D01*
X116859357Y-100155592D01*
X116836194Y-100212118D01*
X116806302Y-100266035D01*
X116773173Y-100309539D01*
X116762977Y-100319887D01*
X116695892Y-100371662D01*
X116615766Y-100411554D01*
X116529556Y-100435956D01*
X116474592Y-100444068D01*
X116381139Y-100450673D01*
X116291358Y-100448586D01*
X116208869Y-100438340D01*
X116137286Y-100420470D01*
X116080228Y-100395508D01*
X116041311Y-100363988D01*
X116039936Y-100362012D01*
X116032848Y-100336786D01*
X116028609Y-100289535D01*
X116027200Y-100220071D01*
X116028060Y-100157838D01*
X116032780Y-100110456D01*
X116044470Y-100078353D01*
X116066239Y-100058800D01*
X116101198Y-100049070D01*
X116152456Y-100046433D01*
X116223123Y-100048161D01*
X116271743Y-100051173D01*
X116321939Y-100059366D01*
X116354433Y-100073419D01*
X116371892Y-100094654D01*
X116376983Y-100124394D01*
X116376877Y-100128936D01*
X116368175Y-100163730D01*
X116344165Y-100187147D01*
X116302900Y-100200347D01*
X116242431Y-100204489D01*
X116173956Y-100204489D01*
X116173956Y-100242841D01*
X116174006Y-100251976D01*
X116176227Y-100269227D01*
X116185494Y-100279521D01*
X116206875Y-100286459D01*
X116245436Y-100293641D01*
X116250910Y-100294575D01*
X116347860Y-100304478D01*
X116437852Y-100301559D01*
X116518760Y-100286829D01*
X116588459Y-100261299D01*
X116644824Y-100225978D01*
X116685729Y-100181879D01*
X116709051Y-100130012D01*
X116712663Y-100071388D01*
X116707145Y-100042494D01*
X116680461Y-99986604D01*
X116634273Y-99940945D01*
X116569291Y-99906108D01*
X116486229Y-99882690D01*
X116461555Y-99878241D01*
X116372226Y-99867742D01*
X116292419Y-99868971D01*
X116214326Y-99881906D01*
X116179183Y-99888696D01*
X116133745Y-99889713D01*
X116102430Y-99877182D01*
X116082277Y-99850395D01*
X116075893Y-99822148D01*
X116085379Y-99790924D01*
X116094708Y-99777499D01*
X116128943Y-99753967D01*
X116181565Y-99736095D01*
X116250081Y-99724599D01*
X116332000Y-99720192D01*
X116429150Y-99724179D01*
G37*
X114479803Y-99748811D02*
X114484752Y-99755495D01*
X114490596Y-99766066D01*
X114495057Y-99780153D01*
X114498321Y-99800478D01*
X114500574Y-99829765D01*
X114502002Y-99870737D01*
X114502792Y-99926117D01*
X114503129Y-99998628D01*
X114503200Y-100090994D01*
X114503171Y-100156911D01*
X114502939Y-100235228D01*
X114502319Y-100295496D01*
X114501126Y-100340393D01*
X114499179Y-100372602D01*
X114496294Y-100394800D01*
X114492288Y-100409669D01*
X114486979Y-100419889D01*
X114480183Y-100428138D01*
X114475668Y-100432795D01*
X114467438Y-100439282D01*
X114456078Y-100444194D01*
X114438810Y-100447749D01*
X114412855Y-100450167D01*
X114375436Y-100451667D01*
X114323773Y-100452467D01*
X114255089Y-100452787D01*
X114166606Y-100452845D01*
X114146931Y-100452838D01*
X114059906Y-100452572D01*
X113992254Y-100451806D01*
X113941299Y-100450392D01*
X113904367Y-100448180D01*
X113878783Y-100445022D01*
X113861871Y-100440769D01*
X113850957Y-100435271D01*
X113840464Y-100425285D01*
X113827203Y-100394168D01*
X113828386Y-100358280D01*
X113844550Y-100326733D01*
X113846739Y-100324457D01*
X113855427Y-100318189D01*
X113868769Y-100313523D01*
X113889752Y-100310227D01*
X113921363Y-100308068D01*
X113966590Y-100306814D01*
X114028420Y-100306231D01*
X114109839Y-100306089D01*
X114356445Y-100306089D01*
X114356445Y-100148045D01*
X114194006Y-100148045D01*
X114158338Y-100147964D01*
X114102568Y-100147167D01*
X114063430Y-100145162D01*
X114036976Y-100141521D01*
X114019259Y-100135812D01*
X114006329Y-100127607D01*
X114002686Y-100124423D01*
X113984278Y-100093448D01*
X113983644Y-100057112D01*
X114001183Y-100023493D01*
X114001245Y-100023424D01*
X114010916Y-100014798D01*
X114024209Y-100008742D01*
X114044917Y-100004811D01*
X114076828Y-100002556D01*
X114123734Y-100001531D01*
X114189424Y-100001289D01*
X114357571Y-100001289D01*
X114354186Y-99936378D01*
X114350800Y-99871467D01*
X114108723Y-99868414D01*
X114083707Y-99868086D01*
X114002087Y-99866606D01*
X113939768Y-99864222D01*
X113894154Y-99860227D01*
X113862652Y-99853913D01*
X113842667Y-99844574D01*
X113831604Y-99831503D01*
X113826869Y-99813992D01*
X113825867Y-99791335D01*
X113825873Y-99788970D01*
X113827027Y-99768939D01*
X113831824Y-99753146D01*
X113842632Y-99741090D01*
X113861817Y-99732267D01*
X113891745Y-99726175D01*
X113934783Y-99722311D01*
X113993299Y-99720174D01*
X114069657Y-99719260D01*
X114166226Y-99719067D01*
X114456406Y-99719067D01*
X114479803Y-99748811D01*
G36*
X114479803Y-99748811D02*
G01*
X114484752Y-99755495D01*
X114490596Y-99766066D01*
X114495057Y-99780153D01*
X114498321Y-99800478D01*
X114500574Y-99829765D01*
X114502002Y-99870737D01*
X114502792Y-99926117D01*
X114503129Y-99998628D01*
X114503200Y-100090994D01*
X114503171Y-100156911D01*
X114502939Y-100235228D01*
X114502319Y-100295496D01*
X114501126Y-100340393D01*
X114499179Y-100372602D01*
X114496294Y-100394800D01*
X114492288Y-100409669D01*
X114486979Y-100419889D01*
X114480183Y-100428138D01*
X114475668Y-100432795D01*
X114467438Y-100439282D01*
X114456078Y-100444194D01*
X114438810Y-100447749D01*
X114412855Y-100450167D01*
X114375436Y-100451667D01*
X114323773Y-100452467D01*
X114255089Y-100452787D01*
X114166606Y-100452845D01*
X114146931Y-100452838D01*
X114059906Y-100452572D01*
X113992254Y-100451806D01*
X113941299Y-100450392D01*
X113904367Y-100448180D01*
X113878783Y-100445022D01*
X113861871Y-100440769D01*
X113850957Y-100435271D01*
X113840464Y-100425285D01*
X113827203Y-100394168D01*
X113828386Y-100358280D01*
X113844550Y-100326733D01*
X113846739Y-100324457D01*
X113855427Y-100318189D01*
X113868769Y-100313523D01*
X113889752Y-100310227D01*
X113921363Y-100308068D01*
X113966590Y-100306814D01*
X114028420Y-100306231D01*
X114109839Y-100306089D01*
X114356445Y-100306089D01*
X114356445Y-100148045D01*
X114194006Y-100148045D01*
X114158338Y-100147964D01*
X114102568Y-100147167D01*
X114063430Y-100145162D01*
X114036976Y-100141521D01*
X114019259Y-100135812D01*
X114006329Y-100127607D01*
X114002686Y-100124423D01*
X113984278Y-100093448D01*
X113983644Y-100057112D01*
X114001183Y-100023493D01*
X114001245Y-100023424D01*
X114010916Y-100014798D01*
X114024209Y-100008742D01*
X114044917Y-100004811D01*
X114076828Y-100002556D01*
X114123734Y-100001531D01*
X114189424Y-100001289D01*
X114357571Y-100001289D01*
X114354186Y-99936378D01*
X114350800Y-99871467D01*
X114108723Y-99868414D01*
X114083707Y-99868086D01*
X114002087Y-99866606D01*
X113939768Y-99864222D01*
X113894154Y-99860227D01*
X113862652Y-99853913D01*
X113842667Y-99844574D01*
X113831604Y-99831503D01*
X113826869Y-99813992D01*
X113825867Y-99791335D01*
X113825873Y-99788970D01*
X113827027Y-99768939D01*
X113831824Y-99753146D01*
X113842632Y-99741090D01*
X113861817Y-99732267D01*
X113891745Y-99726175D01*
X113934783Y-99722311D01*
X113993299Y-99720174D01*
X114069657Y-99719260D01*
X114166226Y-99719067D01*
X114456406Y-99719067D01*
X114479803Y-99748811D01*
G37*
X119156734Y-99719083D02*
X119233831Y-99719275D01*
X119292777Y-99719860D01*
X119336364Y-99721051D01*
X119367383Y-99723064D01*
X119388625Y-99726112D01*
X119402882Y-99730409D01*
X119412945Y-99736172D01*
X119421606Y-99743612D01*
X119423391Y-99745293D01*
X119430635Y-99752832D01*
X119436277Y-99761850D01*
X119440517Y-99774984D01*
X119443556Y-99794872D01*
X119445594Y-99824151D01*
X119446830Y-99865458D01*
X119447465Y-99921431D01*
X119447700Y-99994707D01*
X119447734Y-100087923D01*
X119447697Y-100160713D01*
X119447448Y-100238889D01*
X119446812Y-100299103D01*
X119445615Y-100343982D01*
X119443684Y-100376152D01*
X119440846Y-100398239D01*
X119436927Y-100412870D01*
X119431755Y-100422670D01*
X119425156Y-100430267D01*
X119421822Y-100433444D01*
X119413300Y-100439554D01*
X119401298Y-100444229D01*
X119383087Y-100447659D01*
X119355940Y-100450036D01*
X119317129Y-100451552D01*
X119263924Y-100452398D01*
X119193598Y-100452765D01*
X119103422Y-100452845D01*
X119061314Y-100452833D01*
X118980167Y-100452651D01*
X118917675Y-100452098D01*
X118871109Y-100450982D01*
X118837741Y-100449113D01*
X118814844Y-100446298D01*
X118799688Y-100442346D01*
X118789546Y-100437066D01*
X118781689Y-100430267D01*
X118766963Y-100408667D01*
X118759111Y-100379467D01*
X118764610Y-100355560D01*
X118781689Y-100328667D01*
X118786668Y-100324059D01*
X118796443Y-100317772D01*
X118810559Y-100313146D01*
X118832054Y-100309930D01*
X118863968Y-100307870D01*
X118909342Y-100306712D01*
X118971213Y-100306202D01*
X119052622Y-100306089D01*
X119300978Y-100306089D01*
X119300978Y-100148045D01*
X119139801Y-100148045D01*
X119103983Y-100147899D01*
X119038359Y-100146176D01*
X118991118Y-100141741D01*
X118959383Y-100133637D01*
X118940277Y-100120906D01*
X118930923Y-100102592D01*
X118928445Y-100077738D01*
X118929242Y-100057482D01*
X118934494Y-100035656D01*
X118947288Y-100020304D01*
X118970628Y-100010309D01*
X119007517Y-100004553D01*
X119060959Y-100001919D01*
X119133958Y-100001289D01*
X119302105Y-100001289D01*
X119298719Y-99936378D01*
X119295334Y-99871467D01*
X119047617Y-99868418D01*
X118985026Y-99867539D01*
X118916565Y-99866095D01*
X118865661Y-99864164D01*
X118829408Y-99861514D01*
X118804901Y-99857910D01*
X118789235Y-99853121D01*
X118779506Y-99846913D01*
X118773491Y-99840510D01*
X118760482Y-99808828D01*
X118764043Y-99773142D01*
X118783818Y-99742084D01*
X118787069Y-99739161D01*
X118796049Y-99732810D01*
X118808153Y-99727957D01*
X118826159Y-99724403D01*
X118852847Y-99721946D01*
X118890997Y-99720385D01*
X118943386Y-99719518D01*
X119012794Y-99719146D01*
X119102001Y-99719067D01*
X119156734Y-99719083D01*
G36*
X119156734Y-99719083D02*
G01*
X119233831Y-99719275D01*
X119292777Y-99719860D01*
X119336364Y-99721051D01*
X119367383Y-99723064D01*
X119388625Y-99726112D01*
X119402882Y-99730409D01*
X119412945Y-99736172D01*
X119421606Y-99743612D01*
X119423391Y-99745293D01*
X119430635Y-99752832D01*
X119436277Y-99761850D01*
X119440517Y-99774984D01*
X119443556Y-99794872D01*
X119445594Y-99824151D01*
X119446830Y-99865458D01*
X119447465Y-99921431D01*
X119447700Y-99994707D01*
X119447734Y-100087923D01*
X119447697Y-100160713D01*
X119447448Y-100238889D01*
X119446812Y-100299103D01*
X119445615Y-100343982D01*
X119443684Y-100376152D01*
X119440846Y-100398239D01*
X119436927Y-100412870D01*
X119431755Y-100422670D01*
X119425156Y-100430267D01*
X119421822Y-100433444D01*
X119413300Y-100439554D01*
X119401298Y-100444229D01*
X119383087Y-100447659D01*
X119355940Y-100450036D01*
X119317129Y-100451552D01*
X119263924Y-100452398D01*
X119193598Y-100452765D01*
X119103422Y-100452845D01*
X119061314Y-100452833D01*
X118980167Y-100452651D01*
X118917675Y-100452098D01*
X118871109Y-100450982D01*
X118837741Y-100449113D01*
X118814844Y-100446298D01*
X118799688Y-100442346D01*
X118789546Y-100437066D01*
X118781689Y-100430267D01*
X118766963Y-100408667D01*
X118759111Y-100379467D01*
X118764610Y-100355560D01*
X118781689Y-100328667D01*
X118786668Y-100324059D01*
X118796443Y-100317772D01*
X118810559Y-100313146D01*
X118832054Y-100309930D01*
X118863968Y-100307870D01*
X118909342Y-100306712D01*
X118971213Y-100306202D01*
X119052622Y-100306089D01*
X119300978Y-100306089D01*
X119300978Y-100148045D01*
X119139801Y-100148045D01*
X119103983Y-100147899D01*
X119038359Y-100146176D01*
X118991118Y-100141741D01*
X118959383Y-100133637D01*
X118940277Y-100120906D01*
X118930923Y-100102592D01*
X118928445Y-100077738D01*
X118929242Y-100057482D01*
X118934494Y-100035656D01*
X118947288Y-100020304D01*
X118970628Y-100010309D01*
X119007517Y-100004553D01*
X119060959Y-100001919D01*
X119133958Y-100001289D01*
X119302105Y-100001289D01*
X119298719Y-99936378D01*
X119295334Y-99871467D01*
X119047617Y-99868418D01*
X118985026Y-99867539D01*
X118916565Y-99866095D01*
X118865661Y-99864164D01*
X118829408Y-99861514D01*
X118804901Y-99857910D01*
X118789235Y-99853121D01*
X118779506Y-99846913D01*
X118773491Y-99840510D01*
X118760482Y-99808828D01*
X118764043Y-99773142D01*
X118783818Y-99742084D01*
X118787069Y-99739161D01*
X118796049Y-99732810D01*
X118808153Y-99727957D01*
X118826159Y-99724403D01*
X118852847Y-99721946D01*
X118890997Y-99720385D01*
X118943386Y-99719518D01*
X119012794Y-99719146D01*
X119102001Y-99719067D01*
X119156734Y-99719083D01*
G37*
X110589702Y-99728478D02*
X110607663Y-99746989D01*
X110628263Y-99778071D01*
X110653095Y-99823756D01*
X110683750Y-99886078D01*
X110721820Y-99967071D01*
X110736454Y-99998454D01*
X110766203Y-100061638D01*
X110792297Y-100116244D01*
X110813292Y-100159290D01*
X110827739Y-100187793D01*
X110834191Y-100198770D01*
X110835550Y-100198189D01*
X110845542Y-100184242D01*
X110862833Y-100154704D01*
X110885430Y-100113087D01*
X110911338Y-100062903D01*
X110927311Y-100031414D01*
X110956261Y-99976061D01*
X110978749Y-99937044D01*
X110996965Y-99911566D01*
X111013096Y-99896831D01*
X111029330Y-99890042D01*
X111047857Y-99888400D01*
X111058360Y-99888875D01*
X111074476Y-99893082D01*
X111089790Y-99903946D01*
X111106388Y-99924219D01*
X111126357Y-99956654D01*
X111151783Y-100004004D01*
X111184752Y-100069022D01*
X111194485Y-100088277D01*
X111218943Y-100134946D01*
X111239178Y-100171109D01*
X111253311Y-100193497D01*
X111259460Y-100198845D01*
X111260827Y-100195573D01*
X111270202Y-100174664D01*
X111287062Y-100137725D01*
X111309979Y-100087874D01*
X111337520Y-100028226D01*
X111368255Y-99961898D01*
X111394970Y-99904677D01*
X111424593Y-99842688D01*
X111447664Y-99796949D01*
X111465643Y-99764908D01*
X111479990Y-99744014D01*
X111492166Y-99731718D01*
X111503632Y-99725466D01*
X111513042Y-99722574D01*
X111538147Y-99722425D01*
X111565290Y-99737768D01*
X111566590Y-99738753D01*
X111588674Y-99761388D01*
X111599723Y-99783613D01*
X111599769Y-99784253D01*
X111595228Y-99801915D01*
X111582364Y-99836481D01*
X111562605Y-99884826D01*
X111537381Y-99943825D01*
X111508119Y-100010355D01*
X111476250Y-100081291D01*
X111443201Y-100153507D01*
X111410401Y-100223880D01*
X111379280Y-100289285D01*
X111351265Y-100346597D01*
X111327786Y-100392692D01*
X111310272Y-100424446D01*
X111300151Y-100438733D01*
X111265743Y-100452102D01*
X111224046Y-100445741D01*
X111218681Y-100441044D01*
X111202852Y-100418893D01*
X111180650Y-100382132D01*
X111154233Y-100334415D01*
X111125760Y-100279393D01*
X111045986Y-100120150D01*
X110972799Y-100266742D01*
X110963103Y-100286032D01*
X110936125Y-100338380D01*
X110912096Y-100383170D01*
X110893332Y-100416154D01*
X110882146Y-100433089D01*
X110881000Y-100434332D01*
X110852879Y-100449619D01*
X110817817Y-100451302D01*
X110786776Y-100438733D01*
X110784350Y-100435884D01*
X110772090Y-100415259D01*
X110752352Y-100377708D01*
X110726448Y-100325880D01*
X110695685Y-100262423D01*
X110661375Y-100189985D01*
X110624825Y-100111216D01*
X110604585Y-100067093D01*
X110567812Y-99986365D01*
X110539355Y-99922687D01*
X110518331Y-99873752D01*
X110503854Y-99837257D01*
X110495039Y-99810895D01*
X110491004Y-99792361D01*
X110490862Y-99779352D01*
X110493730Y-99769561D01*
X110508387Y-99748678D01*
X110534990Y-99728377D01*
X110535745Y-99728035D01*
X110555335Y-99721034D01*
X110572790Y-99720504D01*
X110589702Y-99728478D01*
G36*
X110589702Y-99728478D02*
G01*
X110607663Y-99746989D01*
X110628263Y-99778071D01*
X110653095Y-99823756D01*
X110683750Y-99886078D01*
X110721820Y-99967071D01*
X110736454Y-99998454D01*
X110766203Y-100061638D01*
X110792297Y-100116244D01*
X110813292Y-100159290D01*
X110827739Y-100187793D01*
X110834191Y-100198770D01*
X110835550Y-100198189D01*
X110845542Y-100184242D01*
X110862833Y-100154704D01*
X110885430Y-100113087D01*
X110911338Y-100062903D01*
X110927311Y-100031414D01*
X110956261Y-99976061D01*
X110978749Y-99937044D01*
X110996965Y-99911566D01*
X111013096Y-99896831D01*
X111029330Y-99890042D01*
X111047857Y-99888400D01*
X111058360Y-99888875D01*
X111074476Y-99893082D01*
X111089790Y-99903946D01*
X111106388Y-99924219D01*
X111126357Y-99956654D01*
X111151783Y-100004004D01*
X111184752Y-100069022D01*
X111194485Y-100088277D01*
X111218943Y-100134946D01*
X111239178Y-100171109D01*
X111253311Y-100193497D01*
X111259460Y-100198845D01*
X111260827Y-100195573D01*
X111270202Y-100174664D01*
X111287062Y-100137725D01*
X111309979Y-100087874D01*
X111337520Y-100028226D01*
X111368255Y-99961898D01*
X111394970Y-99904677D01*
X111424593Y-99842688D01*
X111447664Y-99796949D01*
X111465643Y-99764908D01*
X111479990Y-99744014D01*
X111492166Y-99731718D01*
X111503632Y-99725466D01*
X111513042Y-99722574D01*
X111538147Y-99722425D01*
X111565290Y-99737768D01*
X111566590Y-99738753D01*
X111588674Y-99761388D01*
X111599723Y-99783613D01*
X111599769Y-99784253D01*
X111595228Y-99801915D01*
X111582364Y-99836481D01*
X111562605Y-99884826D01*
X111537381Y-99943825D01*
X111508119Y-100010355D01*
X111476250Y-100081291D01*
X111443201Y-100153507D01*
X111410401Y-100223880D01*
X111379280Y-100289285D01*
X111351265Y-100346597D01*
X111327786Y-100392692D01*
X111310272Y-100424446D01*
X111300151Y-100438733D01*
X111265743Y-100452102D01*
X111224046Y-100445741D01*
X111218681Y-100441044D01*
X111202852Y-100418893D01*
X111180650Y-100382132D01*
X111154233Y-100334415D01*
X111125760Y-100279393D01*
X111045986Y-100120150D01*
X110972799Y-100266742D01*
X110963103Y-100286032D01*
X110936125Y-100338380D01*
X110912096Y-100383170D01*
X110893332Y-100416154D01*
X110882146Y-100433089D01*
X110881000Y-100434332D01*
X110852879Y-100449619D01*
X110817817Y-100451302D01*
X110786776Y-100438733D01*
X110784350Y-100435884D01*
X110772090Y-100415259D01*
X110752352Y-100377708D01*
X110726448Y-100325880D01*
X110695685Y-100262423D01*
X110661375Y-100189985D01*
X110624825Y-100111216D01*
X110604585Y-100067093D01*
X110567812Y-99986365D01*
X110539355Y-99922687D01*
X110518331Y-99873752D01*
X110503854Y-99837257D01*
X110495039Y-99810895D01*
X110491004Y-99792361D01*
X110490862Y-99779352D01*
X110493730Y-99769561D01*
X110508387Y-99748678D01*
X110534990Y-99728377D01*
X110535745Y-99728035D01*
X110555335Y-99721034D01*
X110572790Y-99720504D01*
X110589702Y-99728478D01*
G37*
X118140853Y-99719936D02*
X118207100Y-99725366D01*
X118262400Y-99734964D01*
X118313283Y-99749825D01*
X118384595Y-99782958D01*
X118435752Y-99825640D01*
X118466575Y-99877705D01*
X118476889Y-99938983D01*
X118475952Y-99970232D01*
X118470160Y-99995029D01*
X118455353Y-100016699D01*
X118427380Y-100044049D01*
X118419402Y-100051378D01*
X118395692Y-100072281D01*
X118373298Y-100089251D01*
X118349265Y-100103205D01*
X118320637Y-100115056D01*
X118284460Y-100125720D01*
X118237780Y-100136111D01*
X118177641Y-100147146D01*
X118101090Y-100159738D01*
X118005171Y-100174804D01*
X117986808Y-100177838D01*
X117924478Y-100191458D01*
X117879260Y-100207192D01*
X117852976Y-100224263D01*
X117847447Y-100241897D01*
X117850068Y-100246168D01*
X117868000Y-100261233D01*
X117896126Y-100277867D01*
X117908926Y-100283857D01*
X117930224Y-100291050D01*
X117956610Y-100295827D01*
X117992454Y-100298646D01*
X118042128Y-100299964D01*
X118110000Y-100300237D01*
X118127785Y-100300164D01*
X118195406Y-100299053D01*
X118260345Y-100296828D01*
X118315970Y-100293762D01*
X118355651Y-100290127D01*
X118391162Y-100286059D01*
X118420415Y-100285276D01*
X118439315Y-100289876D01*
X118454429Y-100300551D01*
X118458085Y-100304144D01*
X118474427Y-100335918D01*
X118473107Y-100371572D01*
X118454150Y-100402190D01*
X118433780Y-100413796D01*
X118397796Y-100426491D01*
X118355372Y-100436541D01*
X118351922Y-100437140D01*
X118309252Y-100442356D01*
X118251866Y-100446730D01*
X118186849Y-100449818D01*
X118121289Y-100451177D01*
X118105057Y-100451218D01*
X118006744Y-100448741D01*
X117926692Y-100440735D01*
X117861513Y-100426203D01*
X117807817Y-100404149D01*
X117762216Y-100373576D01*
X117721323Y-100333486D01*
X117701202Y-100307259D01*
X117689576Y-100277712D01*
X117686667Y-100237995D01*
X117686808Y-100226026D01*
X117690681Y-100193345D01*
X117703065Y-100166819D01*
X117728230Y-100135971D01*
X117749442Y-100113831D01*
X117775838Y-100091285D01*
X117805555Y-100072917D01*
X117841785Y-100057661D01*
X117887717Y-100044449D01*
X117946544Y-100032214D01*
X118021456Y-100019889D01*
X118115645Y-100006406D01*
X118160957Y-99999396D01*
X118228911Y-99984837D01*
X118278047Y-99968337D01*
X118307614Y-99950439D01*
X118316864Y-99931685D01*
X118305048Y-99912615D01*
X118271416Y-99893771D01*
X118268370Y-99892557D01*
X118222011Y-99880479D01*
X118159361Y-99872279D01*
X118085927Y-99868119D01*
X118007217Y-99868161D01*
X117928739Y-99872569D01*
X117856000Y-99881505D01*
X117852073Y-99882154D01*
X117803257Y-99889861D01*
X117771005Y-99893473D01*
X117750008Y-99892876D01*
X117734954Y-99887954D01*
X117720534Y-99878596D01*
X117719364Y-99877725D01*
X117694847Y-99847351D01*
X117690054Y-99811850D01*
X117705860Y-99777269D01*
X117710406Y-99772813D01*
X117740020Y-99757673D01*
X117787002Y-99744550D01*
X117847306Y-99733750D01*
X117916888Y-99725581D01*
X117991703Y-99720351D01*
X118067706Y-99718367D01*
X118140853Y-99719936D01*
G36*
X118140853Y-99719936D02*
G01*
X118207100Y-99725366D01*
X118262400Y-99734964D01*
X118313283Y-99749825D01*
X118384595Y-99782958D01*
X118435752Y-99825640D01*
X118466575Y-99877705D01*
X118476889Y-99938983D01*
X118475952Y-99970232D01*
X118470160Y-99995029D01*
X118455353Y-100016699D01*
X118427380Y-100044049D01*
X118419402Y-100051378D01*
X118395692Y-100072281D01*
X118373298Y-100089251D01*
X118349265Y-100103205D01*
X118320637Y-100115056D01*
X118284460Y-100125720D01*
X118237780Y-100136111D01*
X118177641Y-100147146D01*
X118101090Y-100159738D01*
X118005171Y-100174804D01*
X117986808Y-100177838D01*
X117924478Y-100191458D01*
X117879260Y-100207192D01*
X117852976Y-100224263D01*
X117847447Y-100241897D01*
X117850068Y-100246168D01*
X117868000Y-100261233D01*
X117896126Y-100277867D01*
X117908926Y-100283857D01*
X117930224Y-100291050D01*
X117956610Y-100295827D01*
X117992454Y-100298646D01*
X118042128Y-100299964D01*
X118110000Y-100300237D01*
X118127785Y-100300164D01*
X118195406Y-100299053D01*
X118260345Y-100296828D01*
X118315970Y-100293762D01*
X118355651Y-100290127D01*
X118391162Y-100286059D01*
X118420415Y-100285276D01*
X118439315Y-100289876D01*
X118454429Y-100300551D01*
X118458085Y-100304144D01*
X118474427Y-100335918D01*
X118473107Y-100371572D01*
X118454150Y-100402190D01*
X118433780Y-100413796D01*
X118397796Y-100426491D01*
X118355372Y-100436541D01*
X118351922Y-100437140D01*
X118309252Y-100442356D01*
X118251866Y-100446730D01*
X118186849Y-100449818D01*
X118121289Y-100451177D01*
X118105057Y-100451218D01*
X118006744Y-100448741D01*
X117926692Y-100440735D01*
X117861513Y-100426203D01*
X117807817Y-100404149D01*
X117762216Y-100373576D01*
X117721323Y-100333486D01*
X117701202Y-100307259D01*
X117689576Y-100277712D01*
X117686667Y-100237995D01*
X117686808Y-100226026D01*
X117690681Y-100193345D01*
X117703065Y-100166819D01*
X117728230Y-100135971D01*
X117749442Y-100113831D01*
X117775838Y-100091285D01*
X117805555Y-100072917D01*
X117841785Y-100057661D01*
X117887717Y-100044449D01*
X117946544Y-100032214D01*
X118021456Y-100019889D01*
X118115645Y-100006406D01*
X118160957Y-99999396D01*
X118228911Y-99984837D01*
X118278047Y-99968337D01*
X118307614Y-99950439D01*
X118316864Y-99931685D01*
X118305048Y-99912615D01*
X118271416Y-99893771D01*
X118268370Y-99892557D01*
X118222011Y-99880479D01*
X118159361Y-99872279D01*
X118085927Y-99868119D01*
X118007217Y-99868161D01*
X117928739Y-99872569D01*
X117856000Y-99881505D01*
X117852073Y-99882154D01*
X117803257Y-99889861D01*
X117771005Y-99893473D01*
X117750008Y-99892876D01*
X117734954Y-99887954D01*
X117720534Y-99878596D01*
X117719364Y-99877725D01*
X117694847Y-99847351D01*
X117690054Y-99811850D01*
X117705860Y-99777269D01*
X117710406Y-99772813D01*
X117740020Y-99757673D01*
X117787002Y-99744550D01*
X117847306Y-99733750D01*
X117916888Y-99725581D01*
X117991703Y-99720351D01*
X118067706Y-99718367D01*
X118140853Y-99719936D01*
G37*
X114288711Y-95412033D02*
X114384268Y-95429523D01*
X114548558Y-95474564D01*
X114702589Y-95537656D01*
X114848509Y-95619915D01*
X114988466Y-95722457D01*
X115124608Y-95846399D01*
X115168473Y-95891661D01*
X115280758Y-96023865D01*
X115373972Y-96161832D01*
X115450719Y-96309750D01*
X115513603Y-96471803D01*
X115517420Y-96483391D01*
X115567507Y-96669392D01*
X115600899Y-96865521D01*
X115617584Y-97067568D01*
X115617551Y-97271325D01*
X115600791Y-97472581D01*
X115567292Y-97667128D01*
X115517044Y-97850756D01*
X115473190Y-97968053D01*
X115395348Y-98130951D01*
X115301828Y-98284866D01*
X115194822Y-98426671D01*
X115076519Y-98553239D01*
X114949111Y-98661441D01*
X114871606Y-98714120D01*
X114744725Y-98783750D01*
X114607243Y-98842468D01*
X114465716Y-98887587D01*
X114326702Y-98916422D01*
X114312597Y-98918106D01*
X114269153Y-98921434D01*
X114211723Y-98924275D01*
X114146122Y-98926373D01*
X114078167Y-98927468D01*
X113951378Y-98925140D01*
X113803673Y-98912136D01*
X113665779Y-98887133D01*
X113532014Y-98849318D01*
X113508562Y-98840889D01*
X113460612Y-98821408D01*
X113404140Y-98796473D01*
X113342379Y-98767722D01*
X113278563Y-98736790D01*
X113215926Y-98705315D01*
X113157703Y-98674934D01*
X113107127Y-98647283D01*
X113067433Y-98623999D01*
X113041854Y-98606718D01*
X113033625Y-98597079D01*
X113035076Y-98593984D01*
X113046250Y-98574079D01*
X113067134Y-98538420D01*
X113096265Y-98489459D01*
X113132181Y-98429646D01*
X113173420Y-98361433D01*
X113218517Y-98287271D01*
X113399785Y-97990008D01*
X113446315Y-98034539D01*
X113537723Y-98112865D01*
X113651334Y-98187439D01*
X113769122Y-98241474D01*
X113889559Y-98274290D01*
X114011117Y-98285211D01*
X114052585Y-98283868D01*
X114170080Y-98265612D01*
X114280089Y-98226617D01*
X114381430Y-98167670D01*
X114472921Y-98089557D01*
X114553380Y-97993064D01*
X114621627Y-97878978D01*
X114637908Y-97844724D01*
X114683982Y-97721240D01*
X114719106Y-97582918D01*
X114743197Y-97433561D01*
X114756173Y-97276973D01*
X114757949Y-97116956D01*
X114748443Y-96957314D01*
X114727572Y-96801850D01*
X114695252Y-96654366D01*
X114651399Y-96518667D01*
X114613982Y-96432076D01*
X114549185Y-96318688D01*
X114473772Y-96225070D01*
X114387418Y-96150959D01*
X114289795Y-96096094D01*
X114180577Y-96060212D01*
X114059439Y-96043051D01*
X113990038Y-96041880D01*
X113867168Y-96056141D01*
X113751664Y-96091241D01*
X113644953Y-96146682D01*
X113548464Y-96221964D01*
X113532720Y-96236440D01*
X113502150Y-96262962D01*
X113479809Y-96280138D01*
X113469691Y-96284787D01*
X113467706Y-96282597D01*
X113453241Y-96263721D01*
X113429400Y-96230397D01*
X113398029Y-96185380D01*
X113360974Y-96131425D01*
X113320083Y-96071285D01*
X113277202Y-96007718D01*
X113234178Y-95943476D01*
X113192857Y-95881315D01*
X113155086Y-95823991D01*
X113122712Y-95774257D01*
X113097582Y-95734868D01*
X113081542Y-95708580D01*
X113076439Y-95698147D01*
X113081050Y-95693941D01*
X113100267Y-95688933D01*
X113109838Y-95686386D01*
X113137809Y-95675249D01*
X113179448Y-95656802D01*
X113230995Y-95632725D01*
X113288690Y-95604699D01*
X113299957Y-95599154D01*
X113477687Y-95519889D01*
X113647490Y-95460385D01*
X113811430Y-95420245D01*
X113971571Y-95399071D01*
X114129977Y-95396466D01*
X114288711Y-95412033D01*
G36*
X114288711Y-95412033D02*
G01*
X114384268Y-95429523D01*
X114548558Y-95474564D01*
X114702589Y-95537656D01*
X114848509Y-95619915D01*
X114988466Y-95722457D01*
X115124608Y-95846399D01*
X115168473Y-95891661D01*
X115280758Y-96023865D01*
X115373972Y-96161832D01*
X115450719Y-96309750D01*
X115513603Y-96471803D01*
X115517420Y-96483391D01*
X115567507Y-96669392D01*
X115600899Y-96865521D01*
X115617584Y-97067568D01*
X115617551Y-97271325D01*
X115600791Y-97472581D01*
X115567292Y-97667128D01*
X115517044Y-97850756D01*
X115473190Y-97968053D01*
X115395348Y-98130951D01*
X115301828Y-98284866D01*
X115194822Y-98426671D01*
X115076519Y-98553239D01*
X114949111Y-98661441D01*
X114871606Y-98714120D01*
X114744725Y-98783750D01*
X114607243Y-98842468D01*
X114465716Y-98887587D01*
X114326702Y-98916422D01*
X114312597Y-98918106D01*
X114269153Y-98921434D01*
X114211723Y-98924275D01*
X114146122Y-98926373D01*
X114078167Y-98927468D01*
X113951378Y-98925140D01*
X113803673Y-98912136D01*
X113665779Y-98887133D01*
X113532014Y-98849318D01*
X113508562Y-98840889D01*
X113460612Y-98821408D01*
X113404140Y-98796473D01*
X113342379Y-98767722D01*
X113278563Y-98736790D01*
X113215926Y-98705315D01*
X113157703Y-98674934D01*
X113107127Y-98647283D01*
X113067433Y-98623999D01*
X113041854Y-98606718D01*
X113033625Y-98597079D01*
X113035076Y-98593984D01*
X113046250Y-98574079D01*
X113067134Y-98538420D01*
X113096265Y-98489459D01*
X113132181Y-98429646D01*
X113173420Y-98361433D01*
X113218517Y-98287271D01*
X113399785Y-97990008D01*
X113446315Y-98034539D01*
X113537723Y-98112865D01*
X113651334Y-98187439D01*
X113769122Y-98241474D01*
X113889559Y-98274290D01*
X114011117Y-98285211D01*
X114052585Y-98283868D01*
X114170080Y-98265612D01*
X114280089Y-98226617D01*
X114381430Y-98167670D01*
X114472921Y-98089557D01*
X114553380Y-97993064D01*
X114621627Y-97878978D01*
X114637908Y-97844724D01*
X114683982Y-97721240D01*
X114719106Y-97582918D01*
X114743197Y-97433561D01*
X114756173Y-97276973D01*
X114757949Y-97116956D01*
X114748443Y-96957314D01*
X114727572Y-96801850D01*
X114695252Y-96654366D01*
X114651399Y-96518667D01*
X114613982Y-96432076D01*
X114549185Y-96318688D01*
X114473772Y-96225070D01*
X114387418Y-96150959D01*
X114289795Y-96096094D01*
X114180577Y-96060212D01*
X114059439Y-96043051D01*
X113990038Y-96041880D01*
X113867168Y-96056141D01*
X113751664Y-96091241D01*
X113644953Y-96146682D01*
X113548464Y-96221964D01*
X113532720Y-96236440D01*
X113502150Y-96262962D01*
X113479809Y-96280138D01*
X113469691Y-96284787D01*
X113467706Y-96282597D01*
X113453241Y-96263721D01*
X113429400Y-96230397D01*
X113398029Y-96185380D01*
X113360974Y-96131425D01*
X113320083Y-96071285D01*
X113277202Y-96007718D01*
X113234178Y-95943476D01*
X113192857Y-95881315D01*
X113155086Y-95823991D01*
X113122712Y-95774257D01*
X113097582Y-95734868D01*
X113081542Y-95708580D01*
X113076439Y-95698147D01*
X113081050Y-95693941D01*
X113100267Y-95688933D01*
X113109838Y-95686386D01*
X113137809Y-95675249D01*
X113179448Y-95656802D01*
X113230995Y-95632725D01*
X113288690Y-95604699D01*
X113299957Y-95599154D01*
X113477687Y-95519889D01*
X113647490Y-95460385D01*
X113811430Y-95420245D01*
X113971571Y-95399071D01*
X114129977Y-95396466D01*
X114288711Y-95412033D01*
G37*
X110485994Y-97692711D02*
X110485268Y-97770158D01*
X110476689Y-97921594D01*
X110457833Y-98058283D01*
X110427837Y-98184276D01*
X110385836Y-98303625D01*
X110330969Y-98420381D01*
X110264167Y-98531179D01*
X110173363Y-98644739D01*
X110069708Y-98740211D01*
X109953887Y-98817073D01*
X109826586Y-98874797D01*
X109688489Y-98912858D01*
X109650793Y-98918666D01*
X109571752Y-98924396D01*
X109483629Y-98924583D01*
X109394236Y-98919539D01*
X109311384Y-98909578D01*
X109242887Y-98895012D01*
X109212035Y-98885364D01*
X109134730Y-98855123D01*
X109057679Y-98817617D01*
X108988200Y-98776614D01*
X108933615Y-98735879D01*
X108910916Y-98716505D01*
X108888201Y-98698662D01*
X108876779Y-98691778D01*
X108875537Y-98693424D01*
X108872728Y-98711205D01*
X108870776Y-98744370D01*
X108870045Y-98787733D01*
X108870045Y-98883689D01*
X108011896Y-98883689D01*
X108046161Y-98822974D01*
X108051355Y-98813868D01*
X108059715Y-98799249D01*
X108067288Y-98785173D01*
X108074112Y-98770540D01*
X108080227Y-98754249D01*
X108085673Y-98735198D01*
X108090487Y-98712286D01*
X108094708Y-98684413D01*
X108098377Y-98650478D01*
X108101531Y-98609379D01*
X108104211Y-98560015D01*
X108106454Y-98501286D01*
X108108299Y-98432090D01*
X108109787Y-98351326D01*
X108110955Y-98257894D01*
X108111844Y-98150692D01*
X108112491Y-98028620D01*
X108112936Y-97890576D01*
X108113218Y-97735459D01*
X108113375Y-97562168D01*
X108113448Y-97369603D01*
X108113474Y-97156662D01*
X108113485Y-97020530D01*
X108915200Y-97020530D01*
X108915200Y-98170721D01*
X108985756Y-98217089D01*
X109026417Y-98240791D01*
X109080546Y-98266639D01*
X109129689Y-98284829D01*
X109193165Y-98300551D01*
X109289331Y-98311541D01*
X109373900Y-98303365D01*
X109447219Y-98275805D01*
X109509637Y-98228642D01*
X109561502Y-98161658D01*
X109603160Y-98074633D01*
X109634962Y-97967350D01*
X109637545Y-97955009D01*
X109646000Y-97893772D01*
X109651663Y-97816692D01*
X109654576Y-97729002D01*
X109654783Y-97635934D01*
X109652330Y-97542720D01*
X109647261Y-97454594D01*
X109639619Y-97376788D01*
X109629448Y-97314533D01*
X109628167Y-97308666D01*
X109599126Y-97198121D01*
X109564610Y-97107575D01*
X109523456Y-97034953D01*
X109474499Y-96978181D01*
X109416574Y-96935184D01*
X109384620Y-96919615D01*
X109311784Y-96900722D01*
X109230443Y-96897465D01*
X109145319Y-96909389D01*
X109061133Y-96936040D01*
X108982608Y-96976962D01*
X108915200Y-97020530D01*
X108113485Y-97020530D01*
X108113493Y-96922245D01*
X108113689Y-95237378D01*
X109019017Y-95237378D01*
X108994585Y-95274067D01*
X108988318Y-95283647D01*
X108962208Y-95329981D01*
X108944469Y-95377102D01*
X108932908Y-95432251D01*
X108925331Y-95502667D01*
X108924839Y-95509650D01*
X108923062Y-95547641D01*
X108921444Y-95601576D01*
X108919999Y-95668703D01*
X108918740Y-95746271D01*
X108917680Y-95831528D01*
X108916829Y-95921724D01*
X108916203Y-96014107D01*
X108915812Y-96105925D01*
X108915670Y-96194427D01*
X108915790Y-96276862D01*
X108916183Y-96350479D01*
X108916862Y-96412526D01*
X108917841Y-96460251D01*
X108919132Y-96490904D01*
X108920747Y-96501733D01*
X108928957Y-96497333D01*
X108950647Y-96482362D01*
X108980014Y-96460448D01*
X109028879Y-96426236D01*
X109117125Y-96379714D01*
X109215916Y-96346046D01*
X109328510Y-96324231D01*
X109458164Y-96313265D01*
X109550670Y-96312219D01*
X109672011Y-96322014D01*
X109782099Y-96346174D01*
X109885389Y-96385785D01*
X109986338Y-96441932D01*
X110031503Y-96472883D01*
X110136911Y-96564115D01*
X110228538Y-96673106D01*
X110306332Y-96799726D01*
X110370241Y-96943845D01*
X110420214Y-97105332D01*
X110456198Y-97284059D01*
X110478143Y-97479895D01*
X110483900Y-97635934D01*
X110485994Y-97692711D01*
G36*
X110485994Y-97692711D02*
G01*
X110485268Y-97770158D01*
X110476689Y-97921594D01*
X110457833Y-98058283D01*
X110427837Y-98184276D01*
X110385836Y-98303625D01*
X110330969Y-98420381D01*
X110264167Y-98531179D01*
X110173363Y-98644739D01*
X110069708Y-98740211D01*
X109953887Y-98817073D01*
X109826586Y-98874797D01*
X109688489Y-98912858D01*
X109650793Y-98918666D01*
X109571752Y-98924396D01*
X109483629Y-98924583D01*
X109394236Y-98919539D01*
X109311384Y-98909578D01*
X109242887Y-98895012D01*
X109212035Y-98885364D01*
X109134730Y-98855123D01*
X109057679Y-98817617D01*
X108988200Y-98776614D01*
X108933615Y-98735879D01*
X108910916Y-98716505D01*
X108888201Y-98698662D01*
X108876779Y-98691778D01*
X108875537Y-98693424D01*
X108872728Y-98711205D01*
X108870776Y-98744370D01*
X108870045Y-98787733D01*
X108870045Y-98883689D01*
X108011896Y-98883689D01*
X108046161Y-98822974D01*
X108051355Y-98813868D01*
X108059715Y-98799249D01*
X108067288Y-98785173D01*
X108074112Y-98770540D01*
X108080227Y-98754249D01*
X108085673Y-98735198D01*
X108090487Y-98712286D01*
X108094708Y-98684413D01*
X108098377Y-98650478D01*
X108101531Y-98609379D01*
X108104211Y-98560015D01*
X108106454Y-98501286D01*
X108108299Y-98432090D01*
X108109787Y-98351326D01*
X108110955Y-98257894D01*
X108111844Y-98150692D01*
X108112491Y-98028620D01*
X108112936Y-97890576D01*
X108113218Y-97735459D01*
X108113375Y-97562168D01*
X108113448Y-97369603D01*
X108113474Y-97156662D01*
X108113485Y-97020530D01*
X108915200Y-97020530D01*
X108915200Y-98170721D01*
X108985756Y-98217089D01*
X109026417Y-98240791D01*
X109080546Y-98266639D01*
X109129689Y-98284829D01*
X109193165Y-98300551D01*
X109289331Y-98311541D01*
X109373900Y-98303365D01*
X109447219Y-98275805D01*
X109509637Y-98228642D01*
X109561502Y-98161658D01*
X109603160Y-98074633D01*
X109634962Y-97967350D01*
X109637545Y-97955009D01*
X109646000Y-97893772D01*
X109651663Y-97816692D01*
X109654576Y-97729002D01*
X109654783Y-97635934D01*
X109652330Y-97542720D01*
X109647261Y-97454594D01*
X109639619Y-97376788D01*
X109629448Y-97314533D01*
X109628167Y-97308666D01*
X109599126Y-97198121D01*
X109564610Y-97107575D01*
X109523456Y-97034953D01*
X109474499Y-96978181D01*
X109416574Y-96935184D01*
X109384620Y-96919615D01*
X109311784Y-96900722D01*
X109230443Y-96897465D01*
X109145319Y-96909389D01*
X109061133Y-96936040D01*
X108982608Y-96976962D01*
X108915200Y-97020530D01*
X108113485Y-97020530D01*
X108113493Y-96922245D01*
X108113689Y-95237378D01*
X109019017Y-95237378D01*
X108994585Y-95274067D01*
X108988318Y-95283647D01*
X108962208Y-95329981D01*
X108944469Y-95377102D01*
X108932908Y-95432251D01*
X108925331Y-95502667D01*
X108924839Y-95509650D01*
X108923062Y-95547641D01*
X108921444Y-95601576D01*
X108919999Y-95668703D01*
X108918740Y-95746271D01*
X108917680Y-95831528D01*
X108916829Y-95921724D01*
X108916203Y-96014107D01*
X108915812Y-96105925D01*
X108915670Y-96194427D01*
X108915790Y-96276862D01*
X108916183Y-96350479D01*
X108916862Y-96412526D01*
X108917841Y-96460251D01*
X108919132Y-96490904D01*
X108920747Y-96501733D01*
X108928957Y-96497333D01*
X108950647Y-96482362D01*
X108980014Y-96460448D01*
X109028879Y-96426236D01*
X109117125Y-96379714D01*
X109215916Y-96346046D01*
X109328510Y-96324231D01*
X109458164Y-96313265D01*
X109550670Y-96312219D01*
X109672011Y-96322014D01*
X109782099Y-96346174D01*
X109885389Y-96385785D01*
X109986338Y-96441932D01*
X110031503Y-96472883D01*
X110136911Y-96564115D01*
X110228538Y-96673106D01*
X110306332Y-96799726D01*
X110370241Y-96943845D01*
X110420214Y-97105332D01*
X110456198Y-97284059D01*
X110478143Y-97479895D01*
X110483900Y-97635934D01*
X110485994Y-97692711D01*
G37*
X113027755Y-98093467D02*
X113027261Y-98127363D01*
X113023632Y-98202202D01*
X113016022Y-98264401D01*
X113003688Y-98320984D01*
X112959313Y-98447076D01*
X112896400Y-98561679D01*
X112816238Y-98662568D01*
X112719740Y-98748924D01*
X112607822Y-98819932D01*
X112481397Y-98874776D01*
X112341378Y-98912638D01*
X112305149Y-98918351D01*
X112226155Y-98924313D01*
X112137841Y-98924646D01*
X112048075Y-98919659D01*
X111964722Y-98909666D01*
X111895651Y-98894978D01*
X111809187Y-98864749D01*
X111699286Y-98810057D01*
X111601956Y-98742543D01*
X111539867Y-98691556D01*
X111536605Y-98787622D01*
X111533343Y-98883689D01*
X111110450Y-98883689D01*
X111099543Y-98883686D01*
X111005056Y-98883380D01*
X110918331Y-98882616D01*
X110841837Y-98881451D01*
X110778043Y-98879942D01*
X110729418Y-98878147D01*
X110698433Y-98876121D01*
X110687556Y-98873922D01*
X110687578Y-98873463D01*
X110694614Y-98857910D01*
X110710434Y-98835071D01*
X110714734Y-98829638D01*
X110725777Y-98815606D01*
X110735311Y-98802186D01*
X110743461Y-98787722D01*
X110750352Y-98770556D01*
X110756111Y-98749034D01*
X110760862Y-98721498D01*
X110764731Y-98686292D01*
X110767844Y-98641760D01*
X110770325Y-98586246D01*
X110772300Y-98518093D01*
X110773894Y-98435645D01*
X110775234Y-98337246D01*
X110776444Y-98221239D01*
X110777649Y-98085968D01*
X110778595Y-97974586D01*
X111579378Y-97974586D01*
X111579378Y-98170462D01*
X111624048Y-98226973D01*
X111636785Y-98242212D01*
X111683604Y-98284844D01*
X111744255Y-98320672D01*
X111754897Y-98325850D01*
X111793676Y-98342745D01*
X111828692Y-98352909D01*
X111868722Y-98358325D01*
X111922541Y-98360978D01*
X111940648Y-98361383D01*
X112016011Y-98358540D01*
X112076743Y-98346620D01*
X112128452Y-98324037D01*
X112176746Y-98289211D01*
X112181803Y-98284798D01*
X112230272Y-98229160D01*
X112258459Y-98165333D01*
X112267752Y-98090282D01*
X112260520Y-98018693D01*
X112235796Y-97955645D01*
X112191249Y-97897758D01*
X112136319Y-97850808D01*
X112063894Y-97810961D01*
X111977340Y-97783263D01*
X111874670Y-97767096D01*
X111753894Y-97761842D01*
X111745007Y-97761857D01*
X111689660Y-97762655D01*
X111642736Y-97764488D01*
X111608953Y-97767111D01*
X111593028Y-97770274D01*
X111588943Y-97776741D01*
X111584572Y-97798875D01*
X111581604Y-97837988D01*
X111579914Y-97895939D01*
X111579378Y-97974586D01*
X110778595Y-97974586D01*
X110778975Y-97929778D01*
X110780228Y-97787012D01*
X110781651Y-97641942D01*
X110783176Y-97516027D01*
X110784933Y-97407436D01*
X110787051Y-97314334D01*
X110789660Y-97234891D01*
X110792890Y-97167273D01*
X110796869Y-97109649D01*
X110801728Y-97060185D01*
X110807597Y-97017050D01*
X110814604Y-96978410D01*
X110822880Y-96942434D01*
X110832554Y-96907289D01*
X110843756Y-96871142D01*
X110856616Y-96832161D01*
X110872090Y-96789091D01*
X110914994Y-96696871D01*
X110968735Y-96617099D01*
X111037576Y-96542965D01*
X111115185Y-96479405D01*
X111219761Y-96417725D01*
X111339244Y-96370202D01*
X111474508Y-96336567D01*
X111626426Y-96316552D01*
X111795872Y-96309889D01*
X111853890Y-96310287D01*
X111919398Y-96312335D01*
X111980693Y-96316704D01*
X112042097Y-96324035D01*
X112107932Y-96334969D01*
X112182520Y-96350147D01*
X112270184Y-96370209D01*
X112375245Y-96395797D01*
X112403806Y-96402820D01*
X112479054Y-96420776D01*
X112549388Y-96436820D01*
X112610567Y-96450028D01*
X112658354Y-96459474D01*
X112688511Y-96464231D01*
X112716783Y-96467910D01*
X112743060Y-96473187D01*
X112753059Y-96477942D01*
X112749952Y-96486781D01*
X112739194Y-96514072D01*
X112721864Y-96556906D01*
X112699126Y-96612425D01*
X112672147Y-96677772D01*
X112642090Y-96750089D01*
X112635493Y-96765879D01*
X112596907Y-96856484D01*
X112565768Y-96926217D01*
X112541917Y-96975405D01*
X112525198Y-97004374D01*
X112515454Y-97013452D01*
X112507766Y-97011405D01*
X112481415Y-97001760D01*
X112442982Y-96986190D01*
X112397822Y-96966815D01*
X112303293Y-96928814D01*
X112166480Y-96887780D01*
X112025289Y-96862612D01*
X111987314Y-96858611D01*
X111884059Y-96856447D01*
X111796952Y-96869622D01*
X111725129Y-96898756D01*
X111667731Y-96944466D01*
X111623896Y-97007372D01*
X111592762Y-97088092D01*
X111573470Y-97187245D01*
X111566050Y-97246224D01*
X111727936Y-97239445D01*
X111854495Y-97237813D01*
X112005951Y-97244194D01*
X112154396Y-97258777D01*
X112290578Y-97280882D01*
X112355245Y-97295821D01*
X112487490Y-97338741D01*
X112609762Y-97395340D01*
X112719685Y-97464017D01*
X112814883Y-97543170D01*
X112892980Y-97631196D01*
X112951599Y-97726493D01*
X112975595Y-97778864D01*
X113001232Y-97849590D01*
X113017478Y-97920812D01*
X113025822Y-97999712D01*
X113027690Y-98090282D01*
X113027755Y-98093467D01*
G36*
X113027755Y-98093467D02*
G01*
X113027261Y-98127363D01*
X113023632Y-98202202D01*
X113016022Y-98264401D01*
X113003688Y-98320984D01*
X112959313Y-98447076D01*
X112896400Y-98561679D01*
X112816238Y-98662568D01*
X112719740Y-98748924D01*
X112607822Y-98819932D01*
X112481397Y-98874776D01*
X112341378Y-98912638D01*
X112305149Y-98918351D01*
X112226155Y-98924313D01*
X112137841Y-98924646D01*
X112048075Y-98919659D01*
X111964722Y-98909666D01*
X111895651Y-98894978D01*
X111809187Y-98864749D01*
X111699286Y-98810057D01*
X111601956Y-98742543D01*
X111539867Y-98691556D01*
X111536605Y-98787622D01*
X111533343Y-98883689D01*
X111110450Y-98883689D01*
X111099543Y-98883686D01*
X111005056Y-98883380D01*
X110918331Y-98882616D01*
X110841837Y-98881451D01*
X110778043Y-98879942D01*
X110729418Y-98878147D01*
X110698433Y-98876121D01*
X110687556Y-98873922D01*
X110687578Y-98873463D01*
X110694614Y-98857910D01*
X110710434Y-98835071D01*
X110714734Y-98829638D01*
X110725777Y-98815606D01*
X110735311Y-98802186D01*
X110743461Y-98787722D01*
X110750352Y-98770556D01*
X110756111Y-98749034D01*
X110760862Y-98721498D01*
X110764731Y-98686292D01*
X110767844Y-98641760D01*
X110770325Y-98586246D01*
X110772300Y-98518093D01*
X110773894Y-98435645D01*
X110775234Y-98337246D01*
X110776444Y-98221239D01*
X110777649Y-98085968D01*
X110778595Y-97974586D01*
X111579378Y-97974586D01*
X111579378Y-98170462D01*
X111624048Y-98226973D01*
X111636785Y-98242212D01*
X111683604Y-98284844D01*
X111744255Y-98320672D01*
X111754897Y-98325850D01*
X111793676Y-98342745D01*
X111828692Y-98352909D01*
X111868722Y-98358325D01*
X111922541Y-98360978D01*
X111940648Y-98361383D01*
X112016011Y-98358540D01*
X112076743Y-98346620D01*
X112128452Y-98324037D01*
X112176746Y-98289211D01*
X112181803Y-98284798D01*
X112230272Y-98229160D01*
X112258459Y-98165333D01*
X112267752Y-98090282D01*
X112260520Y-98018693D01*
X112235796Y-97955645D01*
X112191249Y-97897758D01*
X112136319Y-97850808D01*
X112063894Y-97810961D01*
X111977340Y-97783263D01*
X111874670Y-97767096D01*
X111753894Y-97761842D01*
X111745007Y-97761857D01*
X111689660Y-97762655D01*
X111642736Y-97764488D01*
X111608953Y-97767111D01*
X111593028Y-97770274D01*
X111588943Y-97776741D01*
X111584572Y-97798875D01*
X111581604Y-97837988D01*
X111579914Y-97895939D01*
X111579378Y-97974586D01*
X110778595Y-97974586D01*
X110778975Y-97929778D01*
X110780228Y-97787012D01*
X110781651Y-97641942D01*
X110783176Y-97516027D01*
X110784933Y-97407436D01*
X110787051Y-97314334D01*
X110789660Y-97234891D01*
X110792890Y-97167273D01*
X110796869Y-97109649D01*
X110801728Y-97060185D01*
X110807597Y-97017050D01*
X110814604Y-96978410D01*
X110822880Y-96942434D01*
X110832554Y-96907289D01*
X110843756Y-96871142D01*
X110856616Y-96832161D01*
X110872090Y-96789091D01*
X110914994Y-96696871D01*
X110968735Y-96617099D01*
X111037576Y-96542965D01*
X111115185Y-96479405D01*
X111219761Y-96417725D01*
X111339244Y-96370202D01*
X111474508Y-96336567D01*
X111626426Y-96316552D01*
X111795872Y-96309889D01*
X111853890Y-96310287D01*
X111919398Y-96312335D01*
X111980693Y-96316704D01*
X112042097Y-96324035D01*
X112107932Y-96334969D01*
X112182520Y-96350147D01*
X112270184Y-96370209D01*
X112375245Y-96395797D01*
X112403806Y-96402820D01*
X112479054Y-96420776D01*
X112549388Y-96436820D01*
X112610567Y-96450028D01*
X112658354Y-96459474D01*
X112688511Y-96464231D01*
X112716783Y-96467910D01*
X112743060Y-96473187D01*
X112753059Y-96477942D01*
X112749952Y-96486781D01*
X112739194Y-96514072D01*
X112721864Y-96556906D01*
X112699126Y-96612425D01*
X112672147Y-96677772D01*
X112642090Y-96750089D01*
X112635493Y-96765879D01*
X112596907Y-96856484D01*
X112565768Y-96926217D01*
X112541917Y-96975405D01*
X112525198Y-97004374D01*
X112515454Y-97013452D01*
X112507766Y-97011405D01*
X112481415Y-97001760D01*
X112442982Y-96986190D01*
X112397822Y-96966815D01*
X112303293Y-96928814D01*
X112166480Y-96887780D01*
X112025289Y-96862612D01*
X111987314Y-96858611D01*
X111884059Y-96856447D01*
X111796952Y-96869622D01*
X111725129Y-96898756D01*
X111667731Y-96944466D01*
X111623896Y-97007372D01*
X111592762Y-97088092D01*
X111573470Y-97187245D01*
X111566050Y-97246224D01*
X111727936Y-97239445D01*
X111854495Y-97237813D01*
X112005951Y-97244194D01*
X112154396Y-97258777D01*
X112290578Y-97280882D01*
X112355245Y-97295821D01*
X112487490Y-97338741D01*
X112609762Y-97395340D01*
X112719685Y-97464017D01*
X112814883Y-97543170D01*
X112892980Y-97631196D01*
X112951599Y-97726493D01*
X112975595Y-97778864D01*
X113001232Y-97849590D01*
X113017478Y-97920812D01*
X113025822Y-97999712D01*
X113027690Y-98090282D01*
X113027755Y-98093467D01*
G37*
X120575614Y-95561792D02*
X120576059Y-95693011D01*
X120576362Y-95840216D01*
X120576548Y-96004349D01*
X120576642Y-96186352D01*
X120576671Y-96387165D01*
X120576661Y-96607732D01*
X120576636Y-96848992D01*
X120576622Y-97111889D01*
X120576622Y-97154040D01*
X120576646Y-97414668D01*
X120576685Y-97653796D01*
X120576708Y-97872360D01*
X120576687Y-98071295D01*
X120576593Y-98251535D01*
X120576395Y-98414015D01*
X120576063Y-98559670D01*
X120575569Y-98689434D01*
X120574883Y-98804243D01*
X120573976Y-98905030D01*
X120572817Y-98992730D01*
X120571378Y-99068279D01*
X120569629Y-99132611D01*
X120567540Y-99186661D01*
X120565083Y-99231363D01*
X120562227Y-99267652D01*
X120558943Y-99296463D01*
X120555202Y-99318731D01*
X120550974Y-99335390D01*
X120546229Y-99347375D01*
X120540939Y-99355621D01*
X120535073Y-99361062D01*
X120528602Y-99364634D01*
X120521497Y-99367270D01*
X120513728Y-99369906D01*
X120505266Y-99373477D01*
X120500908Y-99375145D01*
X120492395Y-99377111D01*
X120479694Y-99378911D01*
X120461885Y-99380555D01*
X120438049Y-99382047D01*
X120407266Y-99383397D01*
X120368617Y-99384611D01*
X120321182Y-99385697D01*
X120264043Y-99386661D01*
X120196279Y-99387511D01*
X120116971Y-99388253D01*
X120025199Y-99388897D01*
X119920044Y-99389447D01*
X119800587Y-99389913D01*
X119665908Y-99390300D01*
X119515088Y-99390616D01*
X119347206Y-99390869D01*
X119161345Y-99391066D01*
X118956583Y-99391213D01*
X118732002Y-99391318D01*
X118486682Y-99391389D01*
X118219704Y-99391432D01*
X118181321Y-99391437D01*
X117915922Y-99391480D01*
X117672050Y-99391525D01*
X117448783Y-99391548D01*
X117245196Y-99391524D01*
X117060367Y-99391430D01*
X116893373Y-99391243D01*
X116743290Y-99390939D01*
X116609196Y-99390494D01*
X116490166Y-99389885D01*
X116385279Y-99389089D01*
X116293610Y-99388080D01*
X116214237Y-99386837D01*
X116146237Y-99385335D01*
X116088686Y-99383551D01*
X116040662Y-99381461D01*
X116001240Y-99379042D01*
X115969499Y-99376270D01*
X115944514Y-99373121D01*
X115925364Y-99369572D01*
X115911123Y-99365598D01*
X115900871Y-99361178D01*
X115893682Y-99356286D01*
X115888635Y-99350900D01*
X115884805Y-99344996D01*
X115881271Y-99338549D01*
X115877108Y-99331537D01*
X115876025Y-99329687D01*
X115873813Y-99324180D01*
X115871786Y-99315868D01*
X115869938Y-99303809D01*
X115868261Y-99287063D01*
X115866745Y-99264687D01*
X115865383Y-99235740D01*
X115864167Y-99199280D01*
X115863089Y-99154367D01*
X115862140Y-99100057D01*
X115861312Y-99035410D01*
X115860597Y-98959484D01*
X115859987Y-98871338D01*
X115859942Y-98862493D01*
X116151378Y-98862493D01*
X116155260Y-98863765D01*
X116178520Y-98865791D01*
X116220874Y-98867626D01*
X116280132Y-98869227D01*
X116354107Y-98870549D01*
X116440610Y-98871548D01*
X116537452Y-98872180D01*
X116642445Y-98872400D01*
X117340651Y-98872400D01*
X118495090Y-98872400D01*
X118494456Y-98796200D01*
X118495574Y-98754160D01*
X118501304Y-98718334D01*
X118513890Y-98680772D01*
X118535568Y-98632577D01*
X118538789Y-98625897D01*
X118564188Y-98576359D01*
X118590996Y-98528369D01*
X118613917Y-98491466D01*
X118618485Y-98484834D01*
X118640516Y-98453593D01*
X118672693Y-98408654D01*
X118713457Y-98352147D01*
X118761245Y-98286204D01*
X118814498Y-98212957D01*
X118871655Y-98134536D01*
X118931155Y-98053072D01*
X118991437Y-97970698D01*
X119050940Y-97889544D01*
X119108105Y-97811742D01*
X119161370Y-97739423D01*
X119209174Y-97674718D01*
X119249957Y-97619759D01*
X119282158Y-97576676D01*
X119304216Y-97547602D01*
X119314571Y-97534667D01*
X119319044Y-97530351D01*
X119323236Y-97528312D01*
X119326643Y-97530926D01*
X119329325Y-97539986D01*
X119331341Y-97557285D01*
X119332748Y-97584614D01*
X119333605Y-97623765D01*
X119333970Y-97676533D01*
X119333903Y-97744707D01*
X119333460Y-97830082D01*
X119332702Y-97934449D01*
X119331685Y-98059600D01*
X119331308Y-98104300D01*
X119330169Y-98225395D01*
X119328972Y-98326688D01*
X119327636Y-98410262D01*
X119326077Y-98478204D01*
X119324215Y-98532599D01*
X119321966Y-98575532D01*
X119319248Y-98609089D01*
X119315979Y-98635355D01*
X119312078Y-98656416D01*
X119307461Y-98674357D01*
X119299192Y-98700770D01*
X119275583Y-98762772D01*
X119249685Y-98815573D01*
X119224535Y-98852645D01*
X119223339Y-98854075D01*
X119221168Y-98858424D01*
X119223328Y-98862026D01*
X119231644Y-98864951D01*
X119247940Y-98867269D01*
X119274041Y-98869051D01*
X119311771Y-98870367D01*
X119362956Y-98871286D01*
X119429420Y-98871878D01*
X119512987Y-98872215D01*
X119615483Y-98872365D01*
X119738732Y-98872400D01*
X120270296Y-98872400D01*
X120231523Y-98814783D01*
X120225432Y-98805893D01*
X120214976Y-98791069D01*
X120205579Y-98777422D01*
X120197183Y-98763765D01*
X120189733Y-98748911D01*
X120183173Y-98731670D01*
X120177446Y-98710855D01*
X120172495Y-98685280D01*
X120168266Y-98653755D01*
X120164701Y-98615093D01*
X120161744Y-98568107D01*
X120159340Y-98511608D01*
X120157431Y-98444409D01*
X120155962Y-98365322D01*
X120154876Y-98273160D01*
X120154118Y-98166734D01*
X120153630Y-98044857D01*
X120153358Y-97906341D01*
X120153243Y-97749999D01*
X120153231Y-97574642D01*
X120153265Y-97379082D01*
X120153289Y-97162133D01*
X120153280Y-97039513D01*
X120153243Y-96834447D01*
X120153227Y-96650116D01*
X120153288Y-96485334D01*
X120153484Y-96338916D01*
X120153870Y-96209674D01*
X120154505Y-96096422D01*
X120155444Y-95997975D01*
X120156745Y-95913144D01*
X120158464Y-95840744D01*
X120160659Y-95779589D01*
X120163385Y-95728492D01*
X120166701Y-95686267D01*
X120170662Y-95651727D01*
X120175325Y-95623686D01*
X120180747Y-95600958D01*
X120186986Y-95582356D01*
X120194097Y-95566693D01*
X120202138Y-95552784D01*
X120211166Y-95539441D01*
X120221236Y-95525479D01*
X120232407Y-95509711D01*
X120272197Y-95451867D01*
X119212314Y-95451867D01*
X119250311Y-95514966D01*
X119264993Y-95540005D01*
X119279531Y-95567586D01*
X119291627Y-95595700D01*
X119301532Y-95626551D01*
X119309494Y-95662344D01*
X119315761Y-95705283D01*
X119320582Y-95757574D01*
X119324206Y-95821419D01*
X119326881Y-95899025D01*
X119328857Y-95992594D01*
X119330382Y-96104333D01*
X119331704Y-96236445D01*
X119332613Y-96356434D01*
X119333020Y-96473063D01*
X119332767Y-96568531D01*
X119331857Y-96642556D01*
X119330293Y-96694855D01*
X119328079Y-96725149D01*
X119325220Y-96733156D01*
X119322161Y-96729858D01*
X119304006Y-96708408D01*
X119274275Y-96671889D01*
X119234639Y-96622442D01*
X119186771Y-96562207D01*
X119132343Y-96493327D01*
X119073027Y-96417943D01*
X119010495Y-96338196D01*
X118946421Y-96256228D01*
X118882475Y-96174180D01*
X118820331Y-96094194D01*
X118761661Y-96018411D01*
X118708137Y-95948973D01*
X118661430Y-95888021D01*
X118623214Y-95837696D01*
X118595161Y-95800140D01*
X118578943Y-95777495D01*
X118533635Y-95705212D01*
X118493661Y-95625463D01*
X118472130Y-95557188D01*
X118468827Y-95499844D01*
X118474116Y-95451867D01*
X117342356Y-95452117D01*
X117381867Y-95482722D01*
X117391248Y-95490089D01*
X117454183Y-95544438D01*
X117522997Y-95612259D01*
X117599596Y-95695516D01*
X117685888Y-95796178D01*
X117703052Y-95816847D01*
X117743833Y-95866409D01*
X117793588Y-95927326D01*
X117850955Y-95997898D01*
X117914569Y-96076424D01*
X117983069Y-96161204D01*
X118055090Y-96250537D01*
X118129270Y-96342722D01*
X118144517Y-96361702D01*
X118204246Y-96436060D01*
X118278653Y-96528848D01*
X118351131Y-96619388D01*
X118420314Y-96705978D01*
X118484841Y-96786918D01*
X118543347Y-96860506D01*
X118594470Y-96925044D01*
X118636847Y-96978829D01*
X118669115Y-97020162D01*
X118689910Y-97047342D01*
X118697869Y-97058668D01*
X118696111Y-97062771D01*
X118683230Y-97083334D01*
X118658885Y-97119561D01*
X118624247Y-97169824D01*
X118580486Y-97232492D01*
X118528775Y-97305936D01*
X118470284Y-97388527D01*
X118406184Y-97478636D01*
X118337646Y-97574631D01*
X118265843Y-97674885D01*
X118191944Y-97777768D01*
X118117121Y-97881650D01*
X118042545Y-97984901D01*
X117969387Y-98085892D01*
X117898819Y-98182994D01*
X117832011Y-98274577D01*
X117770135Y-98359011D01*
X117714361Y-98434667D01*
X117665862Y-98499916D01*
X117625807Y-98553128D01*
X117595369Y-98592673D01*
X117574944Y-98618026D01*
X117528899Y-98672295D01*
X117478612Y-98728775D01*
X117431815Y-98778669D01*
X117340651Y-98872400D01*
X116642445Y-98872400D01*
X116711356Y-98872349D01*
X116809607Y-98872091D01*
X116899030Y-98871637D01*
X116977333Y-98871010D01*
X117042223Y-98870235D01*
X117091411Y-98869335D01*
X117122604Y-98868334D01*
X117133511Y-98867257D01*
X117132322Y-98864037D01*
X117122176Y-98846452D01*
X117105040Y-98820158D01*
X117096540Y-98807691D01*
X117087329Y-98793622D01*
X117079233Y-98779351D01*
X117072185Y-98763479D01*
X117066117Y-98744609D01*
X117060961Y-98721341D01*
X117056651Y-98692278D01*
X117053119Y-98656021D01*
X117050297Y-98611170D01*
X117048118Y-98556328D01*
X117046514Y-98490097D01*
X117045419Y-98411077D01*
X117044765Y-98317871D01*
X117044484Y-98209079D01*
X117044509Y-98083303D01*
X117044772Y-97939145D01*
X117045206Y-97775207D01*
X117045745Y-97590089D01*
X117046279Y-97411232D01*
X117046805Y-97252374D01*
X117047350Y-97113316D01*
X117047945Y-96992665D01*
X117048619Y-96889028D01*
X117049403Y-96801011D01*
X117050326Y-96727223D01*
X117051419Y-96666269D01*
X117052712Y-96616757D01*
X117054235Y-96577293D01*
X117056019Y-96546484D01*
X117058092Y-96522938D01*
X117060486Y-96505260D01*
X117063230Y-96492059D01*
X117066356Y-96481940D01*
X117069892Y-96473511D01*
X117073791Y-96465375D01*
X117093438Y-96428544D01*
X117112225Y-96398391D01*
X117113272Y-96396908D01*
X117127602Y-96374659D01*
X117133511Y-96361702D01*
X117132504Y-96361249D01*
X117115305Y-96359803D01*
X117078656Y-96358480D01*
X117024962Y-96357316D01*
X116956630Y-96356347D01*
X116876064Y-96355611D01*
X116785670Y-96355142D01*
X116687853Y-96354978D01*
X116242195Y-96354978D01*
X116239120Y-97531845D01*
X116236045Y-98708711D01*
X116209407Y-98767622D01*
X116197485Y-98792183D01*
X116180246Y-98822434D01*
X116167074Y-98839560D01*
X116159076Y-98847591D01*
X116151378Y-98862493D01*
X115859942Y-98862493D01*
X115859474Y-98770029D01*
X115859050Y-98654617D01*
X115858706Y-98524160D01*
X115858434Y-98377716D01*
X115858227Y-98214344D01*
X115858076Y-98033101D01*
X115857972Y-97833048D01*
X115857908Y-97613241D01*
X115857876Y-97372739D01*
X115857867Y-97110602D01*
X115857867Y-94919031D01*
X115896249Y-94880649D01*
X115923355Y-94856911D01*
X115950253Y-94845111D01*
X115986560Y-94842267D01*
X116038489Y-94842267D01*
X116038489Y-94930206D01*
X116040427Y-94980102D01*
X116059199Y-95090523D01*
X116096217Y-95191987D01*
X116149369Y-95283152D01*
X116216546Y-95362673D01*
X116295638Y-95429205D01*
X116384534Y-95481406D01*
X116481125Y-95517930D01*
X116583300Y-95537434D01*
X116688950Y-95538573D01*
X116795964Y-95520005D01*
X116902232Y-95480384D01*
X116999219Y-95422516D01*
X117084293Y-95347684D01*
X117153015Y-95259615D01*
X117203918Y-95160616D01*
X117235535Y-95052993D01*
X117246400Y-94939054D01*
X117246400Y-94842267D01*
X118866753Y-94842267D01*
X119077897Y-94842280D01*
X119282020Y-94842330D01*
X119465686Y-94842430D01*
X119629991Y-94842592D01*
X119776029Y-94842829D01*
X119904894Y-94843153D01*
X120017683Y-94843575D01*
X120115488Y-94844109D01*
X120199404Y-94844767D01*
X120270527Y-94845561D01*
X120329950Y-94846504D01*
X120378768Y-94847608D01*
X120418077Y-94848884D01*
X120448969Y-94850347D01*
X120472541Y-94852007D01*
X120489886Y-94853878D01*
X120502099Y-94855972D01*
X120510275Y-94858300D01*
X120515508Y-94860876D01*
X120521504Y-94864445D01*
X120528279Y-94867978D01*
X120534478Y-94871488D01*
X120540126Y-94875918D01*
X120545247Y-94882208D01*
X120549869Y-94891301D01*
X120554015Y-94904139D01*
X120557713Y-94921662D01*
X120560987Y-94944813D01*
X120563863Y-94974534D01*
X120566367Y-95011765D01*
X120568524Y-95057449D01*
X120570360Y-95112527D01*
X120571900Y-95177941D01*
X120573170Y-95254633D01*
X120574195Y-95343544D01*
X120575001Y-95445617D01*
X120575034Y-95451867D01*
X120575614Y-95561792D01*
G36*
X120575614Y-95561792D02*
G01*
X120576059Y-95693011D01*
X120576362Y-95840216D01*
X120576548Y-96004349D01*
X120576642Y-96186352D01*
X120576671Y-96387165D01*
X120576661Y-96607732D01*
X120576636Y-96848992D01*
X120576622Y-97111889D01*
X120576622Y-97154040D01*
X120576646Y-97414668D01*
X120576685Y-97653796D01*
X120576708Y-97872360D01*
X120576687Y-98071295D01*
X120576593Y-98251535D01*
X120576395Y-98414015D01*
X120576063Y-98559670D01*
X120575569Y-98689434D01*
X120574883Y-98804243D01*
X120573976Y-98905030D01*
X120572817Y-98992730D01*
X120571378Y-99068279D01*
X120569629Y-99132611D01*
X120567540Y-99186661D01*
X120565083Y-99231363D01*
X120562227Y-99267652D01*
X120558943Y-99296463D01*
X120555202Y-99318731D01*
X120550974Y-99335390D01*
X120546229Y-99347375D01*
X120540939Y-99355621D01*
X120535073Y-99361062D01*
X120528602Y-99364634D01*
X120521497Y-99367270D01*
X120513728Y-99369906D01*
X120505266Y-99373477D01*
X120500908Y-99375145D01*
X120492395Y-99377111D01*
X120479694Y-99378911D01*
X120461885Y-99380555D01*
X120438049Y-99382047D01*
X120407266Y-99383397D01*
X120368617Y-99384611D01*
X120321182Y-99385697D01*
X120264043Y-99386661D01*
X120196279Y-99387511D01*
X120116971Y-99388253D01*
X120025199Y-99388897D01*
X119920044Y-99389447D01*
X119800587Y-99389913D01*
X119665908Y-99390300D01*
X119515088Y-99390616D01*
X119347206Y-99390869D01*
X119161345Y-99391066D01*
X118956583Y-99391213D01*
X118732002Y-99391318D01*
X118486682Y-99391389D01*
X118219704Y-99391432D01*
X118181321Y-99391437D01*
X117915922Y-99391480D01*
X117672050Y-99391525D01*
X117448783Y-99391548D01*
X117245196Y-99391524D01*
X117060367Y-99391430D01*
X116893373Y-99391243D01*
X116743290Y-99390939D01*
X116609196Y-99390494D01*
X116490166Y-99389885D01*
X116385279Y-99389089D01*
X116293610Y-99388080D01*
X116214237Y-99386837D01*
X116146237Y-99385335D01*
X116088686Y-99383551D01*
X116040662Y-99381461D01*
X116001240Y-99379042D01*
X115969499Y-99376270D01*
X115944514Y-99373121D01*
X115925364Y-99369572D01*
X115911123Y-99365598D01*
X115900871Y-99361178D01*
X115893682Y-99356286D01*
X115888635Y-99350900D01*
X115884805Y-99344996D01*
X115881271Y-99338549D01*
X115877108Y-99331537D01*
X115876025Y-99329687D01*
X115873813Y-99324180D01*
X115871786Y-99315868D01*
X115869938Y-99303809D01*
X115868261Y-99287063D01*
X115866745Y-99264687D01*
X115865383Y-99235740D01*
X115864167Y-99199280D01*
X115863089Y-99154367D01*
X115862140Y-99100057D01*
X115861312Y-99035410D01*
X115860597Y-98959484D01*
X115859987Y-98871338D01*
X115859942Y-98862493D01*
X116151378Y-98862493D01*
X116155260Y-98863765D01*
X116178520Y-98865791D01*
X116220874Y-98867626D01*
X116280132Y-98869227D01*
X116354107Y-98870549D01*
X116440610Y-98871548D01*
X116537452Y-98872180D01*
X116642445Y-98872400D01*
X117340651Y-98872400D01*
X118495090Y-98872400D01*
X118494456Y-98796200D01*
X118495574Y-98754160D01*
X118501304Y-98718334D01*
X118513890Y-98680772D01*
X118535568Y-98632577D01*
X118538789Y-98625897D01*
X118564188Y-98576359D01*
X118590996Y-98528369D01*
X118613917Y-98491466D01*
X118618485Y-98484834D01*
X118640516Y-98453593D01*
X118672693Y-98408654D01*
X118713457Y-98352147D01*
X118761245Y-98286204D01*
X118814498Y-98212957D01*
X118871655Y-98134536D01*
X118931155Y-98053072D01*
X118991437Y-97970698D01*
X119050940Y-97889544D01*
X119108105Y-97811742D01*
X119161370Y-97739423D01*
X119209174Y-97674718D01*
X119249957Y-97619759D01*
X119282158Y-97576676D01*
X119304216Y-97547602D01*
X119314571Y-97534667D01*
X119319044Y-97530351D01*
X119323236Y-97528312D01*
X119326643Y-97530926D01*
X119329325Y-97539986D01*
X119331341Y-97557285D01*
X119332748Y-97584614D01*
X119333605Y-97623765D01*
X119333970Y-97676533D01*
X119333903Y-97744707D01*
X119333460Y-97830082D01*
X119332702Y-97934449D01*
X119331685Y-98059600D01*
X119331308Y-98104300D01*
X119330169Y-98225395D01*
X119328972Y-98326688D01*
X119327636Y-98410262D01*
X119326077Y-98478204D01*
X119324215Y-98532599D01*
X119321966Y-98575532D01*
X119319248Y-98609089D01*
X119315979Y-98635355D01*
X119312078Y-98656416D01*
X119307461Y-98674357D01*
X119299192Y-98700770D01*
X119275583Y-98762772D01*
X119249685Y-98815573D01*
X119224535Y-98852645D01*
X119223339Y-98854075D01*
X119221168Y-98858424D01*
X119223328Y-98862026D01*
X119231644Y-98864951D01*
X119247940Y-98867269D01*
X119274041Y-98869051D01*
X119311771Y-98870367D01*
X119362956Y-98871286D01*
X119429420Y-98871878D01*
X119512987Y-98872215D01*
X119615483Y-98872365D01*
X119738732Y-98872400D01*
X120270296Y-98872400D01*
X120231523Y-98814783D01*
X120225432Y-98805893D01*
X120214976Y-98791069D01*
X120205579Y-98777422D01*
X120197183Y-98763765D01*
X120189733Y-98748911D01*
X120183173Y-98731670D01*
X120177446Y-98710855D01*
X120172495Y-98685280D01*
X120168266Y-98653755D01*
X120164701Y-98615093D01*
X120161744Y-98568107D01*
X120159340Y-98511608D01*
X120157431Y-98444409D01*
X120155962Y-98365322D01*
X120154876Y-98273160D01*
X120154118Y-98166734D01*
X120153630Y-98044857D01*
X120153358Y-97906341D01*
X120153243Y-97749999D01*
X120153231Y-97574642D01*
X120153265Y-97379082D01*
X120153289Y-97162133D01*
X120153280Y-97039513D01*
X120153243Y-96834447D01*
X120153227Y-96650116D01*
X120153288Y-96485334D01*
X120153484Y-96338916D01*
X120153870Y-96209674D01*
X120154505Y-96096422D01*
X120155444Y-95997975D01*
X120156745Y-95913144D01*
X120158464Y-95840744D01*
X120160659Y-95779589D01*
X120163385Y-95728492D01*
X120166701Y-95686267D01*
X120170662Y-95651727D01*
X120175325Y-95623686D01*
X120180747Y-95600958D01*
X120186986Y-95582356D01*
X120194097Y-95566693D01*
X120202138Y-95552784D01*
X120211166Y-95539441D01*
X120221236Y-95525479D01*
X120232407Y-95509711D01*
X120272197Y-95451867D01*
X119212314Y-95451867D01*
X119250311Y-95514966D01*
X119264993Y-95540005D01*
X119279531Y-95567586D01*
X119291627Y-95595700D01*
X119301532Y-95626551D01*
X119309494Y-95662344D01*
X119315761Y-95705283D01*
X119320582Y-95757574D01*
X119324206Y-95821419D01*
X119326881Y-95899025D01*
X119328857Y-95992594D01*
X119330382Y-96104333D01*
X119331704Y-96236445D01*
X119332613Y-96356434D01*
X119333020Y-96473063D01*
X119332767Y-96568531D01*
X119331857Y-96642556D01*
X119330293Y-96694855D01*
X119328079Y-96725149D01*
X119325220Y-96733156D01*
X119322161Y-96729858D01*
X119304006Y-96708408D01*
X119274275Y-96671889D01*
X119234639Y-96622442D01*
X119186771Y-96562207D01*
X119132343Y-96493327D01*
X119073027Y-96417943D01*
X119010495Y-96338196D01*
X118946421Y-96256228D01*
X118882475Y-96174180D01*
X118820331Y-96094194D01*
X118761661Y-96018411D01*
X118708137Y-95948973D01*
X118661430Y-95888021D01*
X118623214Y-95837696D01*
X118595161Y-95800140D01*
X118578943Y-95777495D01*
X118533635Y-95705212D01*
X118493661Y-95625463D01*
X118472130Y-95557188D01*
X118468827Y-95499844D01*
X118474116Y-95451867D01*
X117342356Y-95452117D01*
X117381867Y-95482722D01*
X117391248Y-95490089D01*
X117454183Y-95544438D01*
X117522997Y-95612259D01*
X117599596Y-95695516D01*
X117685888Y-95796178D01*
X117703052Y-95816847D01*
X117743833Y-95866409D01*
X117793588Y-95927326D01*
X117850955Y-95997898D01*
X117914569Y-96076424D01*
X117983069Y-96161204D01*
X118055090Y-96250537D01*
X118129270Y-96342722D01*
X118144517Y-96361702D01*
X118204246Y-96436060D01*
X118278653Y-96528848D01*
X118351131Y-96619388D01*
X118420314Y-96705978D01*
X118484841Y-96786918D01*
X118543347Y-96860506D01*
X118594470Y-96925044D01*
X118636847Y-96978829D01*
X118669115Y-97020162D01*
X118689910Y-97047342D01*
X118697869Y-97058668D01*
X118696111Y-97062771D01*
X118683230Y-97083334D01*
X118658885Y-97119561D01*
X118624247Y-97169824D01*
X118580486Y-97232492D01*
X118528775Y-97305936D01*
X118470284Y-97388527D01*
X118406184Y-97478636D01*
X118337646Y-97574631D01*
X118265843Y-97674885D01*
X118191944Y-97777768D01*
X118117121Y-97881650D01*
X118042545Y-97984901D01*
X117969387Y-98085892D01*
X117898819Y-98182994D01*
X117832011Y-98274577D01*
X117770135Y-98359011D01*
X117714361Y-98434667D01*
X117665862Y-98499916D01*
X117625807Y-98553128D01*
X117595369Y-98592673D01*
X117574944Y-98618026D01*
X117528899Y-98672295D01*
X117478612Y-98728775D01*
X117431815Y-98778669D01*
X117340651Y-98872400D01*
X116642445Y-98872400D01*
X116711356Y-98872349D01*
X116809607Y-98872091D01*
X116899030Y-98871637D01*
X116977333Y-98871010D01*
X117042223Y-98870235D01*
X117091411Y-98869335D01*
X117122604Y-98868334D01*
X117133511Y-98867257D01*
X117132322Y-98864037D01*
X117122176Y-98846452D01*
X117105040Y-98820158D01*
X117096540Y-98807691D01*
X117087329Y-98793622D01*
X117079233Y-98779351D01*
X117072185Y-98763479D01*
X117066117Y-98744609D01*
X117060961Y-98721341D01*
X117056651Y-98692278D01*
X117053119Y-98656021D01*
X117050297Y-98611170D01*
X117048118Y-98556328D01*
X117046514Y-98490097D01*
X117045419Y-98411077D01*
X117044765Y-98317871D01*
X117044484Y-98209079D01*
X117044509Y-98083303D01*
X117044772Y-97939145D01*
X117045206Y-97775207D01*
X117045745Y-97590089D01*
X117046279Y-97411232D01*
X117046805Y-97252374D01*
X117047350Y-97113316D01*
X117047945Y-96992665D01*
X117048619Y-96889028D01*
X117049403Y-96801011D01*
X117050326Y-96727223D01*
X117051419Y-96666269D01*
X117052712Y-96616757D01*
X117054235Y-96577293D01*
X117056019Y-96546484D01*
X117058092Y-96522938D01*
X117060486Y-96505260D01*
X117063230Y-96492059D01*
X117066356Y-96481940D01*
X117069892Y-96473511D01*
X117073791Y-96465375D01*
X117093438Y-96428544D01*
X117112225Y-96398391D01*
X117113272Y-96396908D01*
X117127602Y-96374659D01*
X117133511Y-96361702D01*
X117132504Y-96361249D01*
X117115305Y-96359803D01*
X117078656Y-96358480D01*
X117024962Y-96357316D01*
X116956630Y-96356347D01*
X116876064Y-96355611D01*
X116785670Y-96355142D01*
X116687853Y-96354978D01*
X116242195Y-96354978D01*
X116239120Y-97531845D01*
X116236045Y-98708711D01*
X116209407Y-98767622D01*
X116197485Y-98792183D01*
X116180246Y-98822434D01*
X116167074Y-98839560D01*
X116159076Y-98847591D01*
X116151378Y-98862493D01*
X115859942Y-98862493D01*
X115859474Y-98770029D01*
X115859050Y-98654617D01*
X115858706Y-98524160D01*
X115858434Y-98377716D01*
X115858227Y-98214344D01*
X115858076Y-98033101D01*
X115857972Y-97833048D01*
X115857908Y-97613241D01*
X115857876Y-97372739D01*
X115857867Y-97110602D01*
X115857867Y-94919031D01*
X115896249Y-94880649D01*
X115923355Y-94856911D01*
X115950253Y-94845111D01*
X115986560Y-94842267D01*
X116038489Y-94842267D01*
X116038489Y-94930206D01*
X116040427Y-94980102D01*
X116059199Y-95090523D01*
X116096217Y-95191987D01*
X116149369Y-95283152D01*
X116216546Y-95362673D01*
X116295638Y-95429205D01*
X116384534Y-95481406D01*
X116481125Y-95517930D01*
X116583300Y-95537434D01*
X116688950Y-95538573D01*
X116795964Y-95520005D01*
X116902232Y-95480384D01*
X116999219Y-95422516D01*
X117084293Y-95347684D01*
X117153015Y-95259615D01*
X117203918Y-95160616D01*
X117235535Y-95052993D01*
X117246400Y-94939054D01*
X117246400Y-94842267D01*
X118866753Y-94842267D01*
X119077897Y-94842280D01*
X119282020Y-94842330D01*
X119465686Y-94842430D01*
X119629991Y-94842592D01*
X119776029Y-94842829D01*
X119904894Y-94843153D01*
X120017683Y-94843575D01*
X120115488Y-94844109D01*
X120199404Y-94844767D01*
X120270527Y-94845561D01*
X120329950Y-94846504D01*
X120378768Y-94847608D01*
X120418077Y-94848884D01*
X120448969Y-94850347D01*
X120472541Y-94852007D01*
X120489886Y-94853878D01*
X120502099Y-94855972D01*
X120510275Y-94858300D01*
X120515508Y-94860876D01*
X120521504Y-94864445D01*
X120528279Y-94867978D01*
X120534478Y-94871488D01*
X120540126Y-94875918D01*
X120545247Y-94882208D01*
X120549869Y-94891301D01*
X120554015Y-94904139D01*
X120557713Y-94921662D01*
X120560987Y-94944813D01*
X120563863Y-94974534D01*
X120566367Y-95011765D01*
X120568524Y-95057449D01*
X120570360Y-95112527D01*
X120571900Y-95177941D01*
X120573170Y-95254633D01*
X120574195Y-95343544D01*
X120575001Y-95445617D01*
X120575034Y-95451867D01*
X120575614Y-95561792D01*
G37*
%TD*%
M02*
