%TF.GenerationSoftware,KiCad,Pcbnew,9.0.5*%
%TF.CreationDate,2025-11-09T03:03:17+02:00*%
%TF.ProjectId,Project 4 MCU Datalogger,50726f6a-6563-4742-9034-204d43552044,1*%
%TF.SameCoordinates,Original*%
%TF.FileFunction,Copper,L4,Bot*%
%TF.FilePolarity,Positive*%
%FSLAX46Y46*%
G04 Gerber Fmt 4.6, Leading zero omitted, Abs format (unit mm)*
G04 Created by KiCad (PCBNEW 9.0.5) date 2025-11-09 03:03:17*
%MOMM*%
%LPD*%
G01*
G04 APERTURE LIST*
%TA.AperFunction,ComponentPad*%
%ADD10R,1.700000X1.700000*%
%TD*%
%TA.AperFunction,ComponentPad*%
%ADD11C,1.700000*%
%TD*%
%TA.AperFunction,ViaPad*%
%ADD12C,0.900000*%
%TD*%
%TA.AperFunction,ViaPad*%
%ADD13C,0.800000*%
%TD*%
%TA.AperFunction,Conductor*%
%ADD14C,0.350000*%
%TD*%
G04 APERTURE END LIST*
D10*
%TO.P,J4,1,Pin_1*%
%TO.N,GND*%
X133350000Y-102235000D03*
D11*
%TO.P,J4,2,Pin_2*%
%TO.N,/Vcc*%
X135890000Y-102235000D03*
%TO.P,J4,3,Pin_3*%
%TO.N,/RX*%
X138430000Y-102235000D03*
%TO.P,J4,4,Pin_4*%
%TO.N,/TX*%
X140970000Y-102235000D03*
%TD*%
D10*
%TO.P,J3,1,Pin_1*%
%TO.N,/D2*%
X107950000Y-102235000D03*
D11*
%TO.P,J3,2,Pin_2*%
%TO.N,/D3*%
X110490000Y-102235000D03*
%TO.P,J3,3,Pin_3*%
%TO.N,/D4*%
X113030000Y-102235000D03*
%TO.P,J3,4,Pin_4*%
%TO.N,/D5*%
X115570000Y-102235000D03*
%TO.P,J3,5,Pin_5*%
%TO.N,/D6*%
X118110000Y-102235000D03*
%TO.P,J3,6,Pin_6*%
%TO.N,/D7*%
X120650000Y-102235000D03*
%TO.P,J3,7,Pin_7*%
%TO.N,/D8*%
X123190000Y-102235000D03*
%TO.P,J3,8,Pin_8*%
%TO.N,GND*%
X125730000Y-102235000D03*
%TO.P,J3,9,Pin_9*%
%TO.N,/Vcc*%
X128270000Y-102235000D03*
%TD*%
D10*
%TO.P,J2,1,Pin_1*%
%TO.N,GND*%
X144145000Y-90805000D03*
D11*
%TO.P,J2,2,Pin_2*%
%TO.N,/Vcc*%
X144145000Y-93345000D03*
%TO.P,J2,3,Pin_3*%
%TO.N,/SDA*%
X144145000Y-95885000D03*
%TO.P,J2,4,Pin_4*%
%TO.N,/SCL*%
X144145000Y-98425000D03*
%TD*%
D10*
%TO.P,J1,1,Pin_1*%
%TO.N,/MOSI*%
X140970000Y-80645000D03*
D11*
%TO.P,J1,2,Pin_2*%
%TO.N,/Vcc*%
X143510000Y-80645000D03*
%TO.P,J1,3,Pin_3*%
%TO.N,/SCK*%
X140970000Y-83185000D03*
%TO.P,J1,4,Pin_4*%
%TO.N,/MISO*%
X143510000Y-83185000D03*
%TO.P,J1,5,Pin_5*%
%TO.N,/RESET*%
X140970000Y-85725000D03*
%TO.P,J1,6,Pin_6*%
%TO.N,GND*%
X143510000Y-85725000D03*
%TD*%
D10*
%TO.P,BT1,1,+*%
%TO.N,/Vcc*%
X106680000Y-81280000D03*
D11*
%TO.P,BT1,2,-*%
%TO.N,GND*%
X106680000Y-83820000D03*
%TD*%
D12*
%TO.N,GND*%
X116992400Y-84836000D03*
D13*
%TO.N,/SDA*%
X119176800Y-90932000D03*
X118697250Y-83994750D03*
%TO.N,GND*%
X123444000Y-80010000D03*
D12*
X113233200Y-98399600D03*
X107340400Y-98653600D03*
X114046000Y-88239600D03*
X116484400Y-88239600D03*
X126169999Y-89910577D03*
D13*
%TO.N,Net-(U4-AREF)*%
X129373800Y-89300000D03*
D12*
%TO.N,GND*%
X123507000Y-98081449D03*
X129184400Y-78994000D03*
D13*
%TO.N,/SDA*%
X133400800Y-99314000D03*
X118605300Y-98361500D03*
D12*
%TO.N,/Vcc*%
X112826800Y-86969600D03*
X116738400Y-86918800D03*
X118351800Y-94284800D03*
D13*
X120650000Y-94970600D03*
%TO.N,/SCL*%
X137363200Y-88900000D03*
%TO.N,Net-(U4-PB7)*%
X124764800Y-92760800D03*
X131064000Y-99212400D03*
X122025000Y-82919400D03*
%TO.N,/RESET*%
X139764600Y-88138000D03*
X128524000Y-86715600D03*
X136550400Y-88138000D03*
%TO.N,/SCL*%
X142138400Y-98399600D03*
X119126000Y-82092800D03*
%TO.N,/RESET*%
X140970000Y-92811600D03*
X137566400Y-93776800D03*
%TO.N,/MOSI*%
X141249400Y-94571000D03*
X131419600Y-94437200D03*
%TO.N,/MISO*%
X145491200Y-84429600D03*
X134416800Y-93014800D03*
%TO.N,Net-(U4-PB6)*%
X125112800Y-94894400D03*
X127439770Y-94886276D03*
%TO.N,/D4*%
X123289155Y-87094575D03*
%TO.N,Net-(U3-SQW{slash}~INT)*%
X119901800Y-97358748D03*
X117957600Y-95859600D03*
%TO.N,/D3*%
X123393200Y-86100000D03*
%TO.N,/D2*%
X124866400Y-84734400D03*
%TO.N,/D4*%
X113049200Y-100857200D03*
%TO.N,/D3*%
X110490000Y-100584000D03*
%TO.N,/D2*%
X107950000Y-100584000D03*
%TO.N,Net-(U3-~{INTA})*%
X113397185Y-97028000D03*
X119901800Y-91795600D03*
%TO.N,Net-(U4-AREF)*%
X126644400Y-81432400D03*
%TO.N,/SDA*%
X130098800Y-86106000D03*
X142290800Y-95910400D03*
%TO.N,/SCK*%
X135585200Y-81380200D03*
X134467600Y-91725000D03*
%TO.N,/SCL*%
X129286000Y-83464400D03*
%TO.N,GND*%
X114300000Y-80645000D03*
X126365000Y-87700000D03*
%TD*%
D14*
%TO.N,GND*%
X114554000Y-84836000D02*
X114046000Y-85344000D01*
X116992400Y-84836000D02*
X114554000Y-84836000D01*
X114046000Y-85344000D02*
X114046000Y-88239600D01*
X114046000Y-88239600D02*
X116484400Y-88239600D01*
X123493649Y-98094800D02*
X122174000Y-98094800D01*
X123507000Y-98081449D02*
X123493649Y-98094800D01*
X126169999Y-87895001D02*
X126365000Y-87700000D01*
X126169999Y-89910577D02*
X126169999Y-87895001D01*
%TD*%
%TA.AperFunction,Conductor*%
%TO.N,GND*%
G36*
X143899177Y-77355185D02*
G01*
X143919819Y-77371819D01*
X146148181Y-79600181D01*
X146181666Y-79661504D01*
X146184500Y-79687862D01*
X146184500Y-83577837D01*
X146164815Y-83644876D01*
X146112011Y-83690631D01*
X146042853Y-83700575D01*
X145991610Y-83680939D01*
X145917758Y-83631593D01*
X145917740Y-83631583D01*
X145753867Y-83563706D01*
X145753858Y-83563703D01*
X145579894Y-83529100D01*
X145579891Y-83529100D01*
X145402509Y-83529100D01*
X145402506Y-83529100D01*
X145228541Y-83563703D01*
X145228532Y-83563706D01*
X145064659Y-83631583D01*
X145064648Y-83631589D01*
X145004635Y-83671689D01*
X144937958Y-83692566D01*
X144870578Y-83674081D01*
X144823888Y-83622102D01*
X144812712Y-83553132D01*
X144817812Y-83530276D01*
X144827246Y-83501243D01*
X144860500Y-83291287D01*
X144860500Y-83078713D01*
X144827246Y-82868757D01*
X144761557Y-82666588D01*
X144665051Y-82477184D01*
X144665049Y-82477181D01*
X144665048Y-82477179D01*
X144540109Y-82305213D01*
X144389786Y-82154890D01*
X144217820Y-82029951D01*
X144217115Y-82029591D01*
X144209054Y-82025485D01*
X144158259Y-81977512D01*
X144141463Y-81909692D01*
X144163999Y-81843556D01*
X144209054Y-81804515D01*
X144217816Y-81800051D01*
X144304138Y-81737335D01*
X144389786Y-81675109D01*
X144389788Y-81675106D01*
X144389792Y-81675104D01*
X144540104Y-81524792D01*
X144540106Y-81524788D01*
X144540109Y-81524786D01*
X144665048Y-81352820D01*
X144665047Y-81352820D01*
X144665051Y-81352816D01*
X144761557Y-81163412D01*
X144827246Y-80961243D01*
X144860500Y-80751287D01*
X144860500Y-80538713D01*
X144827246Y-80328757D01*
X144761557Y-80126588D01*
X144665051Y-79937184D01*
X144665049Y-79937181D01*
X144665048Y-79937179D01*
X144540109Y-79765213D01*
X144389786Y-79614890D01*
X144217820Y-79489951D01*
X144028414Y-79393444D01*
X144028413Y-79393443D01*
X144028412Y-79393443D01*
X143826243Y-79327754D01*
X143826241Y-79327753D01*
X143826240Y-79327753D01*
X143664957Y-79302208D01*
X143616287Y-79294500D01*
X143403713Y-79294500D01*
X143355042Y-79302208D01*
X143193760Y-79327753D01*
X142991585Y-79393444D01*
X142802179Y-79489951D01*
X142630215Y-79614889D01*
X142516673Y-79728431D01*
X142455350Y-79761915D01*
X142385658Y-79756931D01*
X142329725Y-79715059D01*
X142312810Y-79684082D01*
X142263797Y-79552671D01*
X142263793Y-79552664D01*
X142177547Y-79437455D01*
X142177544Y-79437452D01*
X142062335Y-79351206D01*
X142062328Y-79351202D01*
X141927482Y-79300908D01*
X141927483Y-79300908D01*
X141867883Y-79294501D01*
X141867881Y-79294500D01*
X141867873Y-79294500D01*
X141867864Y-79294500D01*
X140072129Y-79294500D01*
X140072123Y-79294501D01*
X140012516Y-79300908D01*
X139877671Y-79351202D01*
X139877664Y-79351206D01*
X139762455Y-79437452D01*
X139762452Y-79437455D01*
X139676206Y-79552664D01*
X139676202Y-79552671D01*
X139625908Y-79687517D01*
X139619501Y-79747116D01*
X139619500Y-79747135D01*
X139619500Y-81542870D01*
X139619501Y-81542876D01*
X139625908Y-81602483D01*
X139676202Y-81737328D01*
X139676206Y-81737335D01*
X139762452Y-81852544D01*
X139762455Y-81852547D01*
X139877664Y-81938793D01*
X139877671Y-81938797D01*
X140009082Y-81987810D01*
X140065016Y-82029681D01*
X140089433Y-82095145D01*
X140074582Y-82163418D01*
X140053431Y-82191673D01*
X139939889Y-82305215D01*
X139814951Y-82477179D01*
X139718444Y-82666585D01*
X139652753Y-82868760D01*
X139626612Y-83033808D01*
X139619500Y-83078713D01*
X139619500Y-83291287D01*
X139625751Y-83330751D01*
X139651517Y-83493438D01*
X139652754Y-83501243D01*
X139717521Y-83700575D01*
X139718444Y-83703414D01*
X139814951Y-83892820D01*
X139939890Y-84064786D01*
X140090213Y-84215109D01*
X140262182Y-84340050D01*
X140270946Y-84344516D01*
X140321742Y-84392491D01*
X140338536Y-84460312D01*
X140315998Y-84526447D01*
X140270946Y-84565484D01*
X140262182Y-84569949D01*
X140090213Y-84694890D01*
X139939890Y-84845213D01*
X139814951Y-85017179D01*
X139718444Y-85206585D01*
X139652753Y-85408760D01*
X139633168Y-85532416D01*
X139619500Y-85618713D01*
X139619500Y-85831287D01*
X139620458Y-85837334D01*
X139652735Y-86041127D01*
X139652754Y-86041243D01*
X139702613Y-86194693D01*
X139718444Y-86243414D01*
X139814951Y-86432820D01*
X139939890Y-86604786D01*
X140090213Y-86755109D01*
X140262179Y-86880048D01*
X140262181Y-86880049D01*
X140262184Y-86880051D01*
X140451588Y-86976557D01*
X140653757Y-87042246D01*
X140863713Y-87075500D01*
X140863714Y-87075500D01*
X141076286Y-87075500D01*
X141076287Y-87075500D01*
X141286243Y-87042246D01*
X141488412Y-86976557D01*
X141677816Y-86880051D01*
X141744069Y-86831916D01*
X141849786Y-86755109D01*
X141849788Y-86755106D01*
X141849792Y-86755104D01*
X142000104Y-86604792D01*
X142000106Y-86604788D01*
X142000109Y-86604786D01*
X142078734Y-86496566D01*
X142125051Y-86432816D01*
X142129793Y-86423508D01*
X142177763Y-86372711D01*
X142245583Y-86355911D01*
X142311719Y-86378445D01*
X142350763Y-86423500D01*
X142355373Y-86432547D01*
X142394728Y-86486716D01*
X143027037Y-85854408D01*
X143044075Y-85917993D01*
X143109901Y-86032007D01*
X143202993Y-86125099D01*
X143317007Y-86190925D01*
X143380590Y-86207962D01*
X142748282Y-86840269D01*
X142748282Y-86840270D01*
X142802449Y-86879624D01*
X142991782Y-86976095D01*
X143193870Y-87041757D01*
X143403754Y-87075000D01*
X143616246Y-87075000D01*
X143826127Y-87041757D01*
X143826130Y-87041757D01*
X144028217Y-86976095D01*
X144217554Y-86879622D01*
X144271716Y-86840270D01*
X144271717Y-86840270D01*
X143639408Y-86207962D01*
X143702993Y-86190925D01*
X143817007Y-86125099D01*
X143910099Y-86032007D01*
X143975925Y-85917993D01*
X143992962Y-85854409D01*
X144625270Y-86486717D01*
X144625270Y-86486716D01*
X144664622Y-86432554D01*
X144761095Y-86243217D01*
X144826757Y-86041130D01*
X144826757Y-86041127D01*
X144860000Y-85831246D01*
X144860000Y-85618753D01*
X144826757Y-85408872D01*
X144826757Y-85408869D01*
X144796061Y-85314396D01*
X144794066Y-85244555D01*
X144830146Y-85184722D01*
X144892847Y-85153894D01*
X144962262Y-85161859D01*
X144982883Y-85172976D01*
X145033187Y-85206588D01*
X145064653Y-85227613D01*
X145064655Y-85227614D01*
X145064659Y-85227616D01*
X145178827Y-85274905D01*
X145228534Y-85295494D01*
X145228536Y-85295494D01*
X145228541Y-85295496D01*
X145402504Y-85330099D01*
X145402507Y-85330100D01*
X145402509Y-85330100D01*
X145579893Y-85330100D01*
X145579894Y-85330099D01*
X145688793Y-85308438D01*
X145753858Y-85295496D01*
X145753861Y-85295494D01*
X145753866Y-85295494D01*
X145917747Y-85227613D01*
X145977928Y-85187401D01*
X145991609Y-85178260D01*
X146058286Y-85157382D01*
X146125666Y-85175866D01*
X146172357Y-85227845D01*
X146184500Y-85281362D01*
X146184500Y-102057138D01*
X146164815Y-102124177D01*
X146148181Y-102144819D01*
X144054819Y-104238181D01*
X143993496Y-104271666D01*
X143967138Y-104274500D01*
X106103862Y-104274500D01*
X106036823Y-104254815D01*
X106016181Y-104238181D01*
X104041819Y-102263819D01*
X104008334Y-102202496D01*
X104005500Y-102176138D01*
X104005500Y-101585500D01*
X105003500Y-101585500D01*
X105601500Y-101585500D01*
X105601500Y-101337135D01*
X106599500Y-101337135D01*
X106599500Y-103132870D01*
X106599501Y-103132876D01*
X106605908Y-103192483D01*
X106656202Y-103327328D01*
X106656206Y-103327335D01*
X106742452Y-103442544D01*
X106742455Y-103442547D01*
X106857664Y-103528793D01*
X106857671Y-103528797D01*
X106992517Y-103579091D01*
X106992516Y-103579091D01*
X106999444Y-103579835D01*
X107052127Y-103585500D01*
X108847872Y-103585499D01*
X108907483Y-103579091D01*
X109042331Y-103528796D01*
X109157546Y-103442546D01*
X109243796Y-103327331D01*
X109292810Y-103195916D01*
X109334681Y-103139984D01*
X109400145Y-103115566D01*
X109468418Y-103130417D01*
X109496673Y-103151569D01*
X109610213Y-103265109D01*
X109782179Y-103390048D01*
X109782181Y-103390049D01*
X109782184Y-103390051D01*
X109971588Y-103486557D01*
X110173757Y-103552246D01*
X110383713Y-103585500D01*
X110383714Y-103585500D01*
X110596286Y-103585500D01*
X110596287Y-103585500D01*
X110806243Y-103552246D01*
X111008412Y-103486557D01*
X111197816Y-103390051D01*
X111284138Y-103327335D01*
X111369786Y-103265109D01*
X111369788Y-103265106D01*
X111369792Y-103265104D01*
X111520104Y-103114792D01*
X111520106Y-103114788D01*
X111520109Y-103114786D01*
X111645048Y-102942820D01*
X111645047Y-102942820D01*
X111645051Y-102942816D01*
X111649514Y-102934054D01*
X111697488Y-102883259D01*
X111765308Y-102866463D01*
X111831444Y-102888999D01*
X111870486Y-102934056D01*
X111874951Y-102942820D01*
X111999890Y-103114786D01*
X112150213Y-103265109D01*
X112322179Y-103390048D01*
X112322181Y-103390049D01*
X112322184Y-103390051D01*
X112511588Y-103486557D01*
X112713757Y-103552246D01*
X112923713Y-103585500D01*
X112923714Y-103585500D01*
X113136286Y-103585500D01*
X113136287Y-103585500D01*
X113346243Y-103552246D01*
X113548412Y-103486557D01*
X113737816Y-103390051D01*
X113824138Y-103327335D01*
X113909786Y-103265109D01*
X113909788Y-103265106D01*
X113909792Y-103265104D01*
X114060104Y-103114792D01*
X114060106Y-103114788D01*
X114060109Y-103114786D01*
X114185048Y-102942820D01*
X114185047Y-102942820D01*
X114185051Y-102942816D01*
X114189514Y-102934054D01*
X114237488Y-102883259D01*
X114305308Y-102866463D01*
X114371444Y-102888999D01*
X114410486Y-102934056D01*
X114414951Y-102942820D01*
X114539890Y-103114786D01*
X114690213Y-103265109D01*
X114862179Y-103390048D01*
X114862181Y-103390049D01*
X114862184Y-103390051D01*
X115051588Y-103486557D01*
X115253757Y-103552246D01*
X115463713Y-103585500D01*
X115463714Y-103585500D01*
X115676286Y-103585500D01*
X115676287Y-103585500D01*
X115886243Y-103552246D01*
X116088412Y-103486557D01*
X116277816Y-103390051D01*
X116364138Y-103327335D01*
X116449786Y-103265109D01*
X116449788Y-103265106D01*
X116449792Y-103265104D01*
X116600104Y-103114792D01*
X116600106Y-103114788D01*
X116600109Y-103114786D01*
X116725048Y-102942820D01*
X116725047Y-102942820D01*
X116725051Y-102942816D01*
X116729514Y-102934054D01*
X116777488Y-102883259D01*
X116845308Y-102866463D01*
X116911444Y-102888999D01*
X116950486Y-102934056D01*
X116954951Y-102942820D01*
X117079890Y-103114786D01*
X117230213Y-103265109D01*
X117402179Y-103390048D01*
X117402181Y-103390049D01*
X117402184Y-103390051D01*
X117591588Y-103486557D01*
X117793757Y-103552246D01*
X118003713Y-103585500D01*
X118003714Y-103585500D01*
X118216286Y-103585500D01*
X118216287Y-103585500D01*
X118426243Y-103552246D01*
X118628412Y-103486557D01*
X118817816Y-103390051D01*
X118904138Y-103327335D01*
X118989786Y-103265109D01*
X118989788Y-103265106D01*
X118989792Y-103265104D01*
X119140104Y-103114792D01*
X119140106Y-103114788D01*
X119140109Y-103114786D01*
X119265048Y-102942820D01*
X119265047Y-102942820D01*
X119265051Y-102942816D01*
X119269514Y-102934054D01*
X119317488Y-102883259D01*
X119385308Y-102866463D01*
X119451444Y-102888999D01*
X119490486Y-102934056D01*
X119494951Y-102942820D01*
X119619890Y-103114786D01*
X119770213Y-103265109D01*
X119942179Y-103390048D01*
X119942181Y-103390049D01*
X119942184Y-103390051D01*
X120131588Y-103486557D01*
X120333757Y-103552246D01*
X120543713Y-103585500D01*
X120543714Y-103585500D01*
X120756286Y-103585500D01*
X120756287Y-103585500D01*
X120966243Y-103552246D01*
X121168412Y-103486557D01*
X121357816Y-103390051D01*
X121444138Y-103327335D01*
X121529786Y-103265109D01*
X121529788Y-103265106D01*
X121529792Y-103265104D01*
X121680104Y-103114792D01*
X121680106Y-103114788D01*
X121680109Y-103114786D01*
X121805048Y-102942820D01*
X121805047Y-102942820D01*
X121805051Y-102942816D01*
X121809514Y-102934054D01*
X121857488Y-102883259D01*
X121925308Y-102866463D01*
X121991444Y-102888999D01*
X122030486Y-102934056D01*
X122034951Y-102942820D01*
X122159890Y-103114786D01*
X122310213Y-103265109D01*
X122482179Y-103390048D01*
X122482181Y-103390049D01*
X122482184Y-103390051D01*
X122671588Y-103486557D01*
X122873757Y-103552246D01*
X123083713Y-103585500D01*
X123083714Y-103585500D01*
X123296286Y-103585500D01*
X123296287Y-103585500D01*
X123506243Y-103552246D01*
X123708412Y-103486557D01*
X123897816Y-103390051D01*
X123984138Y-103327335D01*
X124069786Y-103265109D01*
X124069788Y-103265106D01*
X124069792Y-103265104D01*
X124220104Y-103114792D01*
X124220106Y-103114788D01*
X124220109Y-103114786D01*
X124305890Y-102996717D01*
X124345051Y-102942816D01*
X124349793Y-102933508D01*
X124397763Y-102882711D01*
X124465583Y-102865911D01*
X124531719Y-102888445D01*
X124570763Y-102933500D01*
X124575373Y-102942547D01*
X124614728Y-102996716D01*
X125247037Y-102364408D01*
X125264075Y-102427993D01*
X125329901Y-102542007D01*
X125422993Y-102635099D01*
X125537007Y-102700925D01*
X125600590Y-102717962D01*
X124968282Y-103350269D01*
X124968282Y-103350270D01*
X125022449Y-103389624D01*
X125211782Y-103486095D01*
X125413870Y-103551757D01*
X125623754Y-103585000D01*
X125836246Y-103585000D01*
X126046127Y-103551757D01*
X126046130Y-103551757D01*
X126248217Y-103486095D01*
X126437554Y-103389622D01*
X126491716Y-103350270D01*
X126491717Y-103350270D01*
X125859408Y-102717962D01*
X125922993Y-102700925D01*
X126037007Y-102635099D01*
X126130099Y-102542007D01*
X126195925Y-102427993D01*
X126212962Y-102364408D01*
X126845270Y-102996717D01*
X126845270Y-102996716D01*
X126884622Y-102942555D01*
X126889232Y-102933507D01*
X126937205Y-102882709D01*
X127005025Y-102865912D01*
X127071161Y-102888447D01*
X127110204Y-102933504D01*
X127114949Y-102942817D01*
X127239890Y-103114786D01*
X127390213Y-103265109D01*
X127562179Y-103390048D01*
X127562181Y-103390049D01*
X127562184Y-103390051D01*
X127751588Y-103486557D01*
X127953757Y-103552246D01*
X128163713Y-103585500D01*
X128163714Y-103585500D01*
X128376286Y-103585500D01*
X128376287Y-103585500D01*
X128586243Y-103552246D01*
X128788412Y-103486557D01*
X128977816Y-103390051D01*
X129064138Y-103327335D01*
X129149786Y-103265109D01*
X129149788Y-103265106D01*
X129149792Y-103265104D01*
X129300104Y-103114792D01*
X129300106Y-103114788D01*
X129300109Y-103114786D01*
X129425048Y-102942820D01*
X129425047Y-102942820D01*
X129425051Y-102942816D01*
X129521557Y-102753412D01*
X129587246Y-102551243D01*
X129620500Y-102341287D01*
X129620500Y-102128713D01*
X129587246Y-101918757D01*
X129521557Y-101716588D01*
X129425051Y-101527184D01*
X129425049Y-101527181D01*
X129425048Y-101527179D01*
X129300109Y-101355213D01*
X129282051Y-101337155D01*
X132000000Y-101337155D01*
X132000000Y-101985000D01*
X132916988Y-101985000D01*
X132884075Y-102042007D01*
X132850000Y-102169174D01*
X132850000Y-102300826D01*
X132884075Y-102427993D01*
X132916988Y-102485000D01*
X132000000Y-102485000D01*
X132000000Y-103132844D01*
X132006401Y-103192372D01*
X132006403Y-103192379D01*
X132056645Y-103327086D01*
X132056649Y-103327093D01*
X132142809Y-103442187D01*
X132142812Y-103442190D01*
X132257906Y-103528350D01*
X132257913Y-103528354D01*
X132392620Y-103578596D01*
X132392627Y-103578598D01*
X132452155Y-103584999D01*
X132452172Y-103585000D01*
X133100000Y-103585000D01*
X133100000Y-102668012D01*
X133157007Y-102700925D01*
X133284174Y-102735000D01*
X133415826Y-102735000D01*
X133542993Y-102700925D01*
X133600000Y-102668012D01*
X133600000Y-103585000D01*
X134247828Y-103585000D01*
X134247844Y-103584999D01*
X134307372Y-103578598D01*
X134307379Y-103578596D01*
X134442086Y-103528354D01*
X134442093Y-103528350D01*
X134557187Y-103442190D01*
X134557190Y-103442187D01*
X134643350Y-103327093D01*
X134643354Y-103327086D01*
X134692422Y-103195529D01*
X134734293Y-103139595D01*
X134799757Y-103115178D01*
X134868030Y-103130030D01*
X134896285Y-103151181D01*
X135010213Y-103265109D01*
X135182179Y-103390048D01*
X135182181Y-103390049D01*
X135182184Y-103390051D01*
X135371588Y-103486557D01*
X135573757Y-103552246D01*
X135783713Y-103585500D01*
X135783714Y-103585500D01*
X135996286Y-103585500D01*
X135996287Y-103585500D01*
X136206243Y-103552246D01*
X136408412Y-103486557D01*
X136597816Y-103390051D01*
X136684138Y-103327335D01*
X136769786Y-103265109D01*
X136769788Y-103265106D01*
X136769792Y-103265104D01*
X136920104Y-103114792D01*
X136920106Y-103114788D01*
X136920109Y-103114786D01*
X137045048Y-102942820D01*
X137045047Y-102942820D01*
X137045051Y-102942816D01*
X137049514Y-102934054D01*
X137097488Y-102883259D01*
X137165308Y-102866463D01*
X137231444Y-102888999D01*
X137270486Y-102934056D01*
X137274951Y-102942820D01*
X137399890Y-103114786D01*
X137550213Y-103265109D01*
X137722179Y-103390048D01*
X137722181Y-103390049D01*
X137722184Y-103390051D01*
X137911588Y-103486557D01*
X138113757Y-103552246D01*
X138323713Y-103585500D01*
X138323714Y-103585500D01*
X138536286Y-103585500D01*
X138536287Y-103585500D01*
X138746243Y-103552246D01*
X138948412Y-103486557D01*
X139137816Y-103390051D01*
X139224138Y-103327335D01*
X139309786Y-103265109D01*
X139309788Y-103265106D01*
X139309792Y-103265104D01*
X139460104Y-103114792D01*
X139460106Y-103114788D01*
X139460109Y-103114786D01*
X139585048Y-102942820D01*
X139585047Y-102942820D01*
X139585051Y-102942816D01*
X139589514Y-102934054D01*
X139637488Y-102883259D01*
X139705308Y-102866463D01*
X139771444Y-102888999D01*
X139810486Y-102934056D01*
X139814951Y-102942820D01*
X139939890Y-103114786D01*
X140090213Y-103265109D01*
X140262179Y-103390048D01*
X140262181Y-103390049D01*
X140262184Y-103390051D01*
X140451588Y-103486557D01*
X140653757Y-103552246D01*
X140863713Y-103585500D01*
X140863714Y-103585500D01*
X141076286Y-103585500D01*
X141076287Y-103585500D01*
X141286243Y-103552246D01*
X141488412Y-103486557D01*
X141677816Y-103390051D01*
X141764138Y-103327335D01*
X141849786Y-103265109D01*
X141849788Y-103265106D01*
X141849792Y-103265104D01*
X142000104Y-103114792D01*
X142000106Y-103114788D01*
X142000109Y-103114786D01*
X142125048Y-102942820D01*
X142125047Y-102942820D01*
X142125051Y-102942816D01*
X142221557Y-102753412D01*
X142287246Y-102551243D01*
X142320500Y-102341287D01*
X142320500Y-102128713D01*
X142287246Y-101918757D01*
X142221557Y-101716588D01*
X142125051Y-101527184D01*
X142125049Y-101527181D01*
X142125048Y-101527179D01*
X142000109Y-101355213D01*
X141849786Y-101204890D01*
X141677820Y-101079951D01*
X141488414Y-100983444D01*
X141488413Y-100983443D01*
X141488412Y-100983443D01*
X141286243Y-100917754D01*
X141286241Y-100917753D01*
X141286240Y-100917753D01*
X141124957Y-100892208D01*
X141076287Y-100884500D01*
X140863713Y-100884500D01*
X140815042Y-100892208D01*
X140653760Y-100917753D01*
X140451585Y-100983444D01*
X140262179Y-101079951D01*
X140090213Y-101204890D01*
X139939890Y-101355213D01*
X139814949Y-101527182D01*
X139810484Y-101535946D01*
X139762509Y-101586742D01*
X139694688Y-101603536D01*
X139628553Y-101580998D01*
X139589516Y-101535946D01*
X139585050Y-101527182D01*
X139460109Y-101355213D01*
X139309786Y-101204890D01*
X139137820Y-101079951D01*
X138948414Y-100983444D01*
X138948413Y-100983443D01*
X138948412Y-100983443D01*
X138746243Y-100917754D01*
X138746241Y-100917753D01*
X138746240Y-100917753D01*
X138584957Y-100892208D01*
X138536287Y-100884500D01*
X138323713Y-100884500D01*
X138275042Y-100892208D01*
X138113760Y-100917753D01*
X137911585Y-100983444D01*
X137722179Y-101079951D01*
X137550213Y-101204890D01*
X137399890Y-101355213D01*
X137274949Y-101527182D01*
X137270484Y-101535946D01*
X137222509Y-101586742D01*
X137154688Y-101603536D01*
X137088553Y-101580998D01*
X137049516Y-101535946D01*
X137045050Y-101527182D01*
X136920109Y-101355213D01*
X136769786Y-101204890D01*
X136597820Y-101079951D01*
X136408414Y-100983444D01*
X136408413Y-100983443D01*
X136408412Y-100983443D01*
X136206243Y-100917754D01*
X136206241Y-100917753D01*
X136206240Y-100917753D01*
X136044957Y-100892208D01*
X135996287Y-100884500D01*
X135783713Y-100884500D01*
X135735042Y-100892208D01*
X135573760Y-100917753D01*
X135371585Y-100983444D01*
X135182179Y-101079951D01*
X135010215Y-101204889D01*
X134896285Y-101318819D01*
X134834962Y-101352303D01*
X134765270Y-101347319D01*
X134709337Y-101305447D01*
X134692422Y-101274470D01*
X134643354Y-101142913D01*
X134643350Y-101142906D01*
X134557190Y-101027812D01*
X134557187Y-101027809D01*
X134442093Y-100941649D01*
X134442086Y-100941645D01*
X134307379Y-100891403D01*
X134307372Y-100891401D01*
X134247844Y-100885000D01*
X133600000Y-100885000D01*
X133600000Y-101801988D01*
X133542993Y-101769075D01*
X133415826Y-101735000D01*
X133284174Y-101735000D01*
X133157007Y-101769075D01*
X133100000Y-101801988D01*
X133100000Y-100885000D01*
X132452155Y-100885000D01*
X132392627Y-100891401D01*
X132392620Y-100891403D01*
X132257913Y-100941645D01*
X132257906Y-100941649D01*
X132142812Y-101027809D01*
X132142809Y-101027812D01*
X132056649Y-101142906D01*
X132056645Y-101142913D01*
X132006403Y-101277620D01*
X132006401Y-101277627D01*
X132000000Y-101337155D01*
X129282051Y-101337155D01*
X129149786Y-101204890D01*
X128977820Y-101079951D01*
X128788414Y-100983444D01*
X128788413Y-100983443D01*
X128788412Y-100983443D01*
X128586243Y-100917754D01*
X128586241Y-100917753D01*
X128586240Y-100917753D01*
X128424957Y-100892208D01*
X128376287Y-100884500D01*
X128163713Y-100884500D01*
X128115042Y-100892208D01*
X127953760Y-100917753D01*
X127751585Y-100983444D01*
X127562179Y-101079951D01*
X127390213Y-101204890D01*
X127239890Y-101355213D01*
X127114949Y-101527182D01*
X127110202Y-101536499D01*
X127062227Y-101587293D01*
X126994405Y-101604087D01*
X126928271Y-101581548D01*
X126889234Y-101536495D01*
X126884626Y-101527452D01*
X126845270Y-101473282D01*
X126845269Y-101473282D01*
X126212962Y-102105590D01*
X126195925Y-102042007D01*
X126130099Y-101927993D01*
X126037007Y-101834901D01*
X125922993Y-101769075D01*
X125859409Y-101752037D01*
X126491716Y-101119728D01*
X126437550Y-101080375D01*
X126248217Y-100983904D01*
X126046129Y-100918242D01*
X125836246Y-100885000D01*
X125623754Y-100885000D01*
X125413872Y-100918242D01*
X125413869Y-100918242D01*
X125211782Y-100983904D01*
X125022439Y-101080380D01*
X124968282Y-101119727D01*
X124968282Y-101119728D01*
X125600591Y-101752037D01*
X125537007Y-101769075D01*
X125422993Y-101834901D01*
X125329901Y-101927993D01*
X125264075Y-102042007D01*
X125247037Y-102105591D01*
X124614728Y-101473282D01*
X124614727Y-101473282D01*
X124575380Y-101527440D01*
X124575376Y-101527446D01*
X124570760Y-101536505D01*
X124522781Y-101587297D01*
X124454959Y-101604087D01*
X124388826Y-101581543D01*
X124349794Y-101536493D01*
X124345051Y-101527184D01*
X124345049Y-101527181D01*
X124345048Y-101527179D01*
X124220109Y-101355213D01*
X124069786Y-101204890D01*
X123897820Y-101079951D01*
X123708414Y-100983444D01*
X123708413Y-100983443D01*
X123708412Y-100983443D01*
X123506243Y-100917754D01*
X123506241Y-100917753D01*
X123506240Y-100917753D01*
X123344957Y-100892208D01*
X123296287Y-100884500D01*
X123083713Y-100884500D01*
X123035042Y-100892208D01*
X122873760Y-100917753D01*
X122671585Y-100983444D01*
X122482179Y-101079951D01*
X122310213Y-101204890D01*
X122159890Y-101355213D01*
X122034949Y-101527182D01*
X122030484Y-101535946D01*
X121982509Y-101586742D01*
X121914688Y-101603536D01*
X121848553Y-101580998D01*
X121809516Y-101535946D01*
X121805050Y-101527182D01*
X121680109Y-101355213D01*
X121529786Y-101204890D01*
X121357820Y-101079951D01*
X121168414Y-100983444D01*
X121168413Y-100983443D01*
X121168412Y-100983443D01*
X120966243Y-100917754D01*
X120966241Y-100917753D01*
X120966240Y-100917753D01*
X120804957Y-100892208D01*
X120756287Y-100884500D01*
X120543713Y-100884500D01*
X120495042Y-100892208D01*
X120333760Y-100917753D01*
X120131585Y-100983444D01*
X119942179Y-101079951D01*
X119770213Y-101204890D01*
X119619890Y-101355213D01*
X119494949Y-101527182D01*
X119490484Y-101535946D01*
X119442509Y-101586742D01*
X119374688Y-101603536D01*
X119308553Y-101580998D01*
X119269516Y-101535946D01*
X119265050Y-101527182D01*
X119140109Y-101355213D01*
X118989786Y-101204890D01*
X118817820Y-101079951D01*
X118628414Y-100983444D01*
X118628413Y-100983443D01*
X118628412Y-100983443D01*
X118426243Y-100917754D01*
X118426241Y-100917753D01*
X118426240Y-100917753D01*
X118264957Y-100892208D01*
X118216287Y-100884500D01*
X118003713Y-100884500D01*
X117955042Y-100892208D01*
X117793760Y-100917753D01*
X117591585Y-100983444D01*
X117402179Y-101079951D01*
X117230213Y-101204890D01*
X117079890Y-101355213D01*
X116954949Y-101527182D01*
X116950484Y-101535946D01*
X116902509Y-101586742D01*
X116834688Y-101603536D01*
X116768553Y-101580998D01*
X116729516Y-101535946D01*
X116725050Y-101527182D01*
X116600109Y-101355213D01*
X116449786Y-101204890D01*
X116277820Y-101079951D01*
X116088414Y-100983444D01*
X116088413Y-100983443D01*
X116088412Y-100983443D01*
X115886243Y-100917754D01*
X115886241Y-100917753D01*
X115886240Y-100917753D01*
X115724957Y-100892208D01*
X115676287Y-100884500D01*
X115463713Y-100884500D01*
X115415042Y-100892208D01*
X115253760Y-100917753D01*
X115051585Y-100983444D01*
X114862179Y-101079951D01*
X114690213Y-101204890D01*
X114539890Y-101355213D01*
X114414949Y-101527182D01*
X114410484Y-101535946D01*
X114362509Y-101586742D01*
X114294688Y-101603536D01*
X114228553Y-101580998D01*
X114189516Y-101535946D01*
X114185050Y-101527182D01*
X114060109Y-101355213D01*
X113946623Y-101241727D01*
X113913138Y-101180404D01*
X113915327Y-101126123D01*
X113913906Y-101125841D01*
X113945834Y-100965328D01*
X113949700Y-100945891D01*
X113949700Y-100768509D01*
X113949700Y-100768506D01*
X113949699Y-100768504D01*
X113915096Y-100594541D01*
X113915093Y-100594532D01*
X113912865Y-100589154D01*
X113873992Y-100495304D01*
X113847216Y-100430659D01*
X113847209Y-100430646D01*
X113757227Y-100295980D01*
X142296675Y-100295980D01*
X142452269Y-100409025D01*
X142456157Y-100411968D01*
X142479316Y-100430227D01*
X142483081Y-100433317D01*
X142512888Y-100458778D01*
X142516527Y-100462012D01*
X142538132Y-100481986D01*
X142541636Y-100485356D01*
X142719644Y-100663364D01*
X142723014Y-100666868D01*
X142742988Y-100688473D01*
X142746222Y-100692112D01*
X142771683Y-100721919D01*
X142774773Y-100725684D01*
X142793032Y-100748843D01*
X142795975Y-100752731D01*
X142943974Y-100956435D01*
X142946760Y-100960432D01*
X142963126Y-100984927D01*
X142965750Y-100989027D01*
X142986231Y-101022450D01*
X142988693Y-101026650D01*
X143003083Y-101052346D01*
X143005378Y-101056639D01*
X143119686Y-101280981D01*
X143121811Y-101285364D01*
X143134154Y-101312139D01*
X143136109Y-101316608D01*
X143151107Y-101352825D01*
X143152879Y-101357353D01*
X143163064Y-101384963D01*
X143164658Y-101389560D01*
X143228323Y-101585500D01*
X143255500Y-101585500D01*
X143255500Y-100773500D01*
X144253500Y-100773500D01*
X144253500Y-101585500D01*
X145117924Y-101585500D01*
X145186500Y-101516924D01*
X145186500Y-100530112D01*
X145099019Y-100574686D01*
X145094636Y-100576811D01*
X145067861Y-100589154D01*
X145063392Y-100591109D01*
X145027175Y-100606107D01*
X145022647Y-100607879D01*
X144995037Y-100618064D01*
X144990440Y-100619658D01*
X144751007Y-100697455D01*
X144746347Y-100698869D01*
X144718005Y-100706862D01*
X144713300Y-100708089D01*
X144675183Y-100717242D01*
X144670423Y-100718287D01*
X144641523Y-100724036D01*
X144636728Y-100724892D01*
X144388059Y-100764277D01*
X144383236Y-100764944D01*
X144354003Y-100768404D01*
X144349165Y-100768881D01*
X144310086Y-100771959D01*
X144305221Y-100772246D01*
X144275769Y-100773404D01*
X144270897Y-100773500D01*
X144253500Y-100773500D01*
X143255500Y-100773500D01*
X143255500Y-100603073D01*
X143226608Y-100591109D01*
X143222139Y-100589154D01*
X143195364Y-100576811D01*
X143190981Y-100574686D01*
X142966639Y-100460378D01*
X142962346Y-100458083D01*
X142936650Y-100443693D01*
X142932450Y-100441231D01*
X142899027Y-100420750D01*
X142894927Y-100418126D01*
X142870432Y-100401760D01*
X142866435Y-100398974D01*
X142662731Y-100250975D01*
X142658843Y-100248032D01*
X142641400Y-100234280D01*
X142625749Y-100238201D01*
X142619808Y-100239535D01*
X142397757Y-100283704D01*
X142391760Y-100284745D01*
X142355329Y-100290149D01*
X142349288Y-100290894D01*
X142300516Y-100295697D01*
X142296675Y-100295980D01*
X113757227Y-100295980D01*
X113748664Y-100283165D01*
X113748661Y-100283161D01*
X113623238Y-100157738D01*
X113623234Y-100157735D01*
X113475753Y-100059190D01*
X113475740Y-100059183D01*
X113311867Y-99991306D01*
X113311858Y-99991303D01*
X113137894Y-99956700D01*
X113137891Y-99956700D01*
X112960509Y-99956700D01*
X112960506Y-99956700D01*
X112786541Y-99991303D01*
X112786532Y-99991306D01*
X112622659Y-100059183D01*
X112622646Y-100059190D01*
X112475165Y-100157735D01*
X112475161Y-100157738D01*
X112349738Y-100283161D01*
X112349735Y-100283165D01*
X112251190Y-100430646D01*
X112251183Y-100430659D01*
X112183306Y-100594532D01*
X112183303Y-100594541D01*
X112148700Y-100768504D01*
X112148700Y-100945895D01*
X112178991Y-101098176D01*
X112172764Y-101167767D01*
X112145056Y-101210048D01*
X111999889Y-101355215D01*
X111874949Y-101527182D01*
X111870484Y-101535946D01*
X111822509Y-101586742D01*
X111754688Y-101603536D01*
X111688553Y-101580998D01*
X111649516Y-101535946D01*
X111645050Y-101527182D01*
X111520109Y-101355213D01*
X111369793Y-101204897D01*
X111369792Y-101204896D01*
X111323461Y-101171235D01*
X111280795Y-101115906D01*
X111274816Y-101046293D01*
X111286994Y-101012453D01*
X111288009Y-101010552D01*
X111288013Y-101010547D01*
X111355894Y-100846666D01*
X111368043Y-100785592D01*
X111379959Y-100725684D01*
X111390500Y-100672691D01*
X111390500Y-100495309D01*
X111390500Y-100495306D01*
X111390499Y-100495304D01*
X111355896Y-100321341D01*
X111355893Y-100321332D01*
X111340738Y-100284745D01*
X111321460Y-100238201D01*
X111288016Y-100157459D01*
X111288009Y-100157446D01*
X111189464Y-100009965D01*
X111189461Y-100009961D01*
X111064038Y-99884538D01*
X111064034Y-99884535D01*
X110916553Y-99785990D01*
X110916540Y-99785983D01*
X110752667Y-99718106D01*
X110752658Y-99718103D01*
X110578694Y-99683500D01*
X110578691Y-99683500D01*
X110401309Y-99683500D01*
X110401306Y-99683500D01*
X110227341Y-99718103D01*
X110227332Y-99718106D01*
X110063459Y-99785983D01*
X110063446Y-99785990D01*
X109915965Y-99884535D01*
X109915961Y-99884538D01*
X109790538Y-100009961D01*
X109790535Y-100009965D01*
X109691990Y-100157446D01*
X109691983Y-100157459D01*
X109624106Y-100321332D01*
X109624103Y-100321341D01*
X109589500Y-100495304D01*
X109589500Y-100672695D01*
X109624103Y-100846658D01*
X109624106Y-100846667D01*
X109691988Y-101010552D01*
X109693013Y-101012469D01*
X109693245Y-101013587D01*
X109694318Y-101016176D01*
X109693826Y-101016379D01*
X109707252Y-101080872D01*
X109682248Y-101146115D01*
X109656539Y-101171233D01*
X109610213Y-101204891D01*
X109496673Y-101318431D01*
X109435350Y-101351915D01*
X109365658Y-101346931D01*
X109309725Y-101305059D01*
X109292810Y-101274082D01*
X109243797Y-101142671D01*
X109243793Y-101142664D01*
X109157547Y-101027455D01*
X109157544Y-101027452D01*
X109042335Y-100941206D01*
X109042328Y-100941202D01*
X108912898Y-100892928D01*
X108856964Y-100851057D01*
X108832547Y-100785592D01*
X108834614Y-100752554D01*
X108850500Y-100672693D01*
X108850500Y-100495306D01*
X108850499Y-100495304D01*
X108815896Y-100321341D01*
X108815893Y-100321332D01*
X108800738Y-100284745D01*
X108781460Y-100238201D01*
X108748016Y-100157459D01*
X108748009Y-100157446D01*
X108649464Y-100009965D01*
X108649461Y-100009961D01*
X108524038Y-99884538D01*
X108524034Y-99884535D01*
X108376553Y-99785990D01*
X108376540Y-99785983D01*
X108212667Y-99718106D01*
X108212658Y-99718103D01*
X108038694Y-99683500D01*
X108038691Y-99683500D01*
X107861309Y-99683500D01*
X107861306Y-99683500D01*
X107687341Y-99718103D01*
X107687332Y-99718106D01*
X107523459Y-99785983D01*
X107523446Y-99785990D01*
X107375965Y-99884535D01*
X107375961Y-99884538D01*
X107250538Y-100009961D01*
X107250535Y-100009965D01*
X107151990Y-100157446D01*
X107151983Y-100157459D01*
X107084106Y-100321332D01*
X107084103Y-100321341D01*
X107049500Y-100495304D01*
X107049500Y-100672695D01*
X107065385Y-100752555D01*
X107059158Y-100822147D01*
X107016295Y-100877324D01*
X106987101Y-100892928D01*
X106857671Y-100941202D01*
X106857664Y-100941206D01*
X106742455Y-101027452D01*
X106742452Y-101027455D01*
X106656206Y-101142664D01*
X106656202Y-101142671D01*
X106605908Y-101277517D01*
X106599501Y-101337116D01*
X106599500Y-101337135D01*
X105601500Y-101337135D01*
X105601500Y-101323752D01*
X105601545Y-101320428D01*
X105602084Y-101300327D01*
X105602217Y-101297007D01*
X105603649Y-101270320D01*
X105603871Y-101267011D01*
X105605481Y-101247018D01*
X105605792Y-101243715D01*
X105616962Y-101139825D01*
X105618029Y-101132157D01*
X105625936Y-101085971D01*
X105627481Y-101078381D01*
X105641826Y-101017670D01*
X105643842Y-101010191D01*
X105657450Y-100965328D01*
X105659929Y-100957988D01*
X105733587Y-100760498D01*
X105736975Y-100752318D01*
X105755500Y-100711754D01*
X105755500Y-100083500D01*
X105003500Y-100083500D01*
X105003500Y-101585500D01*
X104005500Y-101585500D01*
X104005500Y-99085500D01*
X105003500Y-99085500D01*
X105755500Y-99085500D01*
X109253500Y-99085500D01*
X109317746Y-99085500D01*
X114369608Y-99085500D01*
X115755500Y-99085500D01*
X115755500Y-98272804D01*
X117704800Y-98272804D01*
X117704800Y-98450195D01*
X117739403Y-98624158D01*
X117739406Y-98624167D01*
X117807283Y-98788040D01*
X117807290Y-98788053D01*
X117905835Y-98935534D01*
X117905838Y-98935538D01*
X118031261Y-99060961D01*
X118031265Y-99060964D01*
X118178746Y-99159509D01*
X118178759Y-99159516D01*
X118301663Y-99210423D01*
X118342634Y-99227394D01*
X118342636Y-99227394D01*
X118342641Y-99227396D01*
X118516604Y-99261999D01*
X118516607Y-99262000D01*
X118516609Y-99262000D01*
X118693993Y-99262000D01*
X118693994Y-99261999D01*
X118751982Y-99250464D01*
X118867958Y-99227396D01*
X118867961Y-99227394D01*
X118867966Y-99227394D01*
X119031847Y-99159513D01*
X119085439Y-99123704D01*
X130163500Y-99123704D01*
X130163500Y-99301095D01*
X130198103Y-99475058D01*
X130198106Y-99475067D01*
X130265983Y-99638940D01*
X130265990Y-99638953D01*
X130364535Y-99786434D01*
X130364538Y-99786438D01*
X130489961Y-99911861D01*
X130489965Y-99911864D01*
X130637446Y-100010409D01*
X130637459Y-100010416D01*
X130755195Y-100059183D01*
X130801334Y-100078294D01*
X130801336Y-100078294D01*
X130801341Y-100078296D01*
X130975304Y-100112899D01*
X130975307Y-100112900D01*
X130975309Y-100112900D01*
X131152693Y-100112900D01*
X131152694Y-100112899D01*
X131210682Y-100101364D01*
X131326658Y-100078296D01*
X131326661Y-100078294D01*
X131326666Y-100078294D01*
X131483181Y-100013464D01*
X131490540Y-100010416D01*
X131490540Y-100010415D01*
X131490547Y-100010413D01*
X131638035Y-99911864D01*
X131763464Y-99786435D01*
X131862013Y-99638947D01*
X131929894Y-99475066D01*
X131944291Y-99402691D01*
X131964499Y-99301095D01*
X131964500Y-99301093D01*
X131964500Y-99225304D01*
X132500300Y-99225304D01*
X132500300Y-99402695D01*
X132534903Y-99576658D01*
X132534906Y-99576667D01*
X132602783Y-99740540D01*
X132602790Y-99740553D01*
X132701335Y-99888034D01*
X132701338Y-99888038D01*
X132826761Y-100013461D01*
X132826765Y-100013464D01*
X132974246Y-100112009D01*
X132974259Y-100112016D01*
X133084637Y-100157735D01*
X133138134Y-100179894D01*
X133138136Y-100179894D01*
X133138141Y-100179896D01*
X133312104Y-100214499D01*
X133312107Y-100214500D01*
X133312109Y-100214500D01*
X133489493Y-100214500D01*
X133489494Y-100214499D01*
X133547482Y-100202964D01*
X133663458Y-100179896D01*
X133663461Y-100179894D01*
X133663466Y-100179894D01*
X133827347Y-100112013D01*
X133974835Y-100013464D01*
X134100264Y-99888035D01*
X134198813Y-99740547D01*
X134266694Y-99576666D01*
X134301300Y-99402691D01*
X134301300Y-99225309D01*
X134301300Y-99225306D01*
X134301299Y-99225304D01*
X134266696Y-99051341D01*
X134266693Y-99051332D01*
X134198816Y-98887459D01*
X134198809Y-98887446D01*
X134100264Y-98739965D01*
X134100261Y-98739961D01*
X133974838Y-98614538D01*
X133974834Y-98614535D01*
X133827353Y-98515990D01*
X133827340Y-98515983D01*
X133663467Y-98448106D01*
X133663458Y-98448103D01*
X133489494Y-98413500D01*
X133489491Y-98413500D01*
X133312109Y-98413500D01*
X133312106Y-98413500D01*
X133138141Y-98448103D01*
X133138132Y-98448106D01*
X132974259Y-98515983D01*
X132974246Y-98515990D01*
X132826765Y-98614535D01*
X132826761Y-98614538D01*
X132701338Y-98739961D01*
X132701335Y-98739965D01*
X132602790Y-98887446D01*
X132602783Y-98887459D01*
X132534906Y-99051332D01*
X132534903Y-99051341D01*
X132500300Y-99225304D01*
X131964500Y-99225304D01*
X131964500Y-99123706D01*
X131964499Y-99123704D01*
X131929896Y-98949741D01*
X131929893Y-98949732D01*
X131862016Y-98785859D01*
X131862009Y-98785846D01*
X131763464Y-98638365D01*
X131763461Y-98638361D01*
X131638038Y-98512938D01*
X131638034Y-98512935D01*
X131490553Y-98414390D01*
X131490540Y-98414383D01*
X131326667Y-98346506D01*
X131326658Y-98346503D01*
X131152694Y-98311900D01*
X131152691Y-98311900D01*
X130975309Y-98311900D01*
X130975306Y-98311900D01*
X130801341Y-98346503D01*
X130801332Y-98346506D01*
X130637459Y-98414383D01*
X130637446Y-98414390D01*
X130489965Y-98512935D01*
X130489961Y-98512938D01*
X130364538Y-98638361D01*
X130364535Y-98638365D01*
X130265990Y-98785846D01*
X130265983Y-98785859D01*
X130198106Y-98949732D01*
X130198103Y-98949741D01*
X130163500Y-99123704D01*
X119085439Y-99123704D01*
X119179335Y-99060964D01*
X119304764Y-98935535D01*
X119403313Y-98788047D01*
X119404779Y-98784509D01*
X119413258Y-98764035D01*
X119471194Y-98624166D01*
X119473110Y-98614538D01*
X119500399Y-98477344D01*
X119505800Y-98450191D01*
X119505800Y-98349214D01*
X119525485Y-98282175D01*
X119578289Y-98236420D01*
X119647447Y-98226476D01*
X119653975Y-98227594D01*
X119698346Y-98236420D01*
X119813106Y-98259248D01*
X119813109Y-98259248D01*
X119990493Y-98259248D01*
X119990494Y-98259247D01*
X120069390Y-98243554D01*
X120164458Y-98224644D01*
X120164461Y-98224642D01*
X120164466Y-98224642D01*
X120320153Y-98160155D01*
X120328340Y-98156764D01*
X120328340Y-98156763D01*
X120328347Y-98156761D01*
X120475835Y-98058212D01*
X120601264Y-97932783D01*
X120699813Y-97785295D01*
X120700883Y-97782713D01*
X120701589Y-97781008D01*
X121753500Y-97781008D01*
X121753500Y-99085500D01*
X122638813Y-99085500D01*
X124375187Y-99085500D01*
X125755500Y-99085500D01*
X126753500Y-99085500D01*
X128255500Y-99085500D01*
X128255500Y-97613381D01*
X134253500Y-97613381D01*
X134270738Y-97621534D01*
X134276177Y-97624271D01*
X134319399Y-97647373D01*
X134324694Y-97650373D01*
X134356288Y-97669309D01*
X134361432Y-97672566D01*
X134549669Y-97798343D01*
X134554645Y-97801847D01*
X134584217Y-97823779D01*
X134589015Y-97827524D01*
X134626897Y-97858613D01*
X134631504Y-97862587D01*
X134658791Y-97887318D01*
X134663200Y-97891516D01*
X134823284Y-98051600D01*
X134827482Y-98056009D01*
X134852213Y-98083296D01*
X134856187Y-98087903D01*
X134887276Y-98125785D01*
X134891021Y-98130583D01*
X134912953Y-98160155D01*
X134916457Y-98165131D01*
X135042234Y-98353368D01*
X135045491Y-98358512D01*
X135064427Y-98390106D01*
X135067427Y-98395401D01*
X135090529Y-98438623D01*
X135093266Y-98444062D01*
X135109006Y-98477344D01*
X135111471Y-98482905D01*
X135198101Y-98692051D01*
X135200291Y-98697728D01*
X135212690Y-98732380D01*
X135214598Y-98738155D01*
X135228825Y-98785048D01*
X135230449Y-98790916D01*
X135239401Y-98826651D01*
X135240735Y-98832592D01*
X135284904Y-99054643D01*
X135285945Y-99060640D01*
X135289633Y-99085500D01*
X135755500Y-99085500D01*
X136753500Y-99085500D01*
X138255500Y-99085500D01*
X139253500Y-99085500D01*
X140367588Y-99085500D01*
X140341099Y-99021549D01*
X140338909Y-99015872D01*
X140326510Y-98981220D01*
X140324602Y-98975445D01*
X140310375Y-98928552D01*
X140308751Y-98922684D01*
X140299799Y-98886949D01*
X140298465Y-98881008D01*
X140254296Y-98658957D01*
X140253255Y-98652960D01*
X140247851Y-98616529D01*
X140247106Y-98610488D01*
X140242303Y-98561716D01*
X140241855Y-98555646D01*
X140240049Y-98518874D01*
X140239900Y-98512791D01*
X140239900Y-98286409D01*
X140240049Y-98280326D01*
X140241855Y-98243554D01*
X140242303Y-98237484D01*
X140247106Y-98188712D01*
X140247851Y-98182671D01*
X140253255Y-98146240D01*
X140254296Y-98140243D01*
X140298465Y-97918192D01*
X140299799Y-97912251D01*
X140308751Y-97876516D01*
X140310375Y-97870648D01*
X140324602Y-97823755D01*
X140326510Y-97817980D01*
X140338909Y-97783328D01*
X140341099Y-97777651D01*
X140421518Y-97583500D01*
X139253500Y-97583500D01*
X139253500Y-99085500D01*
X138255500Y-99085500D01*
X138255500Y-97583500D01*
X136753500Y-97583500D01*
X136753500Y-99085500D01*
X135755500Y-99085500D01*
X135755500Y-97583500D01*
X134253500Y-97583500D01*
X134253500Y-97613381D01*
X128255500Y-97613381D01*
X128255500Y-97583500D01*
X126753500Y-97583500D01*
X126753500Y-99085500D01*
X125755500Y-99085500D01*
X125755500Y-97583500D01*
X124737343Y-97583500D01*
X124795383Y-97762130D01*
X124799925Y-97781050D01*
X124829473Y-97967609D01*
X124831000Y-97987007D01*
X124831000Y-98175891D01*
X124829473Y-98195289D01*
X124799925Y-98381848D01*
X124795383Y-98400768D01*
X124737015Y-98580407D01*
X124729569Y-98598384D01*
X124643817Y-98766681D01*
X124633650Y-98783271D01*
X124522627Y-98936082D01*
X124509990Y-98950878D01*
X124376429Y-99084439D01*
X124375187Y-99085500D01*
X122638813Y-99085500D01*
X122637571Y-99084439D01*
X122504010Y-98950878D01*
X122491373Y-98936082D01*
X122380350Y-98783271D01*
X122370183Y-98766681D01*
X122284431Y-98598384D01*
X122276985Y-98580407D01*
X122218617Y-98400768D01*
X122214075Y-98381848D01*
X122184527Y-98195289D01*
X122183000Y-98175891D01*
X122183000Y-97987007D01*
X122184527Y-97967609D01*
X122214075Y-97781050D01*
X122218617Y-97762130D01*
X122276657Y-97583500D01*
X121791189Y-97583500D01*
X121786945Y-97612108D01*
X121785904Y-97618105D01*
X121753500Y-97781008D01*
X120701589Y-97781008D01*
X120735086Y-97700138D01*
X120767694Y-97621414D01*
X120768353Y-97618105D01*
X120792719Y-97495606D01*
X120802300Y-97447439D01*
X120802300Y-97270057D01*
X120802300Y-97270054D01*
X120802299Y-97270052D01*
X120767696Y-97096089D01*
X120767693Y-97096080D01*
X120766206Y-97092491D01*
X120746334Y-97044514D01*
X120699816Y-96932207D01*
X120699809Y-96932194D01*
X120601264Y-96784713D01*
X120601261Y-96784709D01*
X120475838Y-96659286D01*
X120475834Y-96659283D01*
X120328353Y-96560738D01*
X120328340Y-96560731D01*
X120221726Y-96516571D01*
X121753500Y-96516571D01*
X121753500Y-96585500D01*
X123255500Y-96585500D01*
X123255500Y-95288509D01*
X123228696Y-95153758D01*
X123227655Y-95147760D01*
X123222251Y-95111329D01*
X123221506Y-95105288D01*
X123219360Y-95083500D01*
X122548500Y-95083500D01*
X122548500Y-95083791D01*
X122548351Y-95089874D01*
X122546545Y-95126646D01*
X122546097Y-95132716D01*
X122541294Y-95181488D01*
X122540549Y-95187529D01*
X122535145Y-95223960D01*
X122534104Y-95229957D01*
X122489935Y-95452008D01*
X122488601Y-95457949D01*
X122479649Y-95493684D01*
X122478025Y-95499552D01*
X122463798Y-95546445D01*
X122461890Y-95552220D01*
X122449491Y-95586872D01*
X122447301Y-95592549D01*
X122360671Y-95801695D01*
X122358206Y-95807256D01*
X122342466Y-95840538D01*
X122339729Y-95845977D01*
X122316627Y-95889199D01*
X122313627Y-95894494D01*
X122294691Y-95926088D01*
X122291434Y-95931232D01*
X122165657Y-96119469D01*
X122162153Y-96124445D01*
X122140221Y-96154017D01*
X122136476Y-96158815D01*
X122105387Y-96196697D01*
X122101413Y-96201304D01*
X122076682Y-96228591D01*
X122072484Y-96233000D01*
X121912400Y-96393084D01*
X121907991Y-96397282D01*
X121880704Y-96422013D01*
X121876097Y-96425987D01*
X121838215Y-96457076D01*
X121833417Y-96460821D01*
X121803845Y-96482753D01*
X121798869Y-96486257D01*
X121753500Y-96516571D01*
X120221726Y-96516571D01*
X120164467Y-96492854D01*
X120164458Y-96492851D01*
X119990494Y-96458248D01*
X119990491Y-96458248D01*
X119813109Y-96458248D01*
X119813106Y-96458248D01*
X119639141Y-96492851D01*
X119639132Y-96492854D01*
X119475259Y-96560731D01*
X119475246Y-96560738D01*
X119327765Y-96659283D01*
X119327761Y-96659286D01*
X119202338Y-96784709D01*
X119202335Y-96784713D01*
X119103790Y-96932194D01*
X119103783Y-96932207D01*
X119035906Y-97096080D01*
X119035903Y-97096089D01*
X119001300Y-97270052D01*
X119001300Y-97371033D01*
X118981615Y-97438072D01*
X118928811Y-97483827D01*
X118859653Y-97493771D01*
X118853109Y-97492650D01*
X118693994Y-97461000D01*
X118693991Y-97461000D01*
X118516609Y-97461000D01*
X118516606Y-97461000D01*
X118342641Y-97495603D01*
X118342632Y-97495606D01*
X118178759Y-97563483D01*
X118178746Y-97563490D01*
X118031265Y-97662035D01*
X118031261Y-97662038D01*
X117905838Y-97787461D01*
X117905835Y-97787465D01*
X117807290Y-97934946D01*
X117807283Y-97934959D01*
X117739406Y-98098832D01*
X117739403Y-98098841D01*
X117704800Y-98272804D01*
X115755500Y-98272804D01*
X115755500Y-97583500D01*
X115217156Y-97583500D01*
X115210983Y-97603845D01*
X115209075Y-97609620D01*
X115196676Y-97644272D01*
X115194486Y-97649949D01*
X115107856Y-97859095D01*
X115105391Y-97864656D01*
X115089651Y-97897938D01*
X115086914Y-97903377D01*
X115063812Y-97946599D01*
X115060812Y-97951894D01*
X115041876Y-97983488D01*
X115038619Y-97988632D01*
X114912842Y-98176869D01*
X114909338Y-98181845D01*
X114887406Y-98211417D01*
X114883661Y-98216215D01*
X114852572Y-98254097D01*
X114848598Y-98258704D01*
X114823867Y-98285991D01*
X114819669Y-98290400D01*
X114659585Y-98450484D01*
X114655176Y-98454682D01*
X114627889Y-98479413D01*
X114623282Y-98483387D01*
X114585400Y-98514476D01*
X114580602Y-98518221D01*
X114551496Y-98539806D01*
X114526125Y-98699999D01*
X114521583Y-98718919D01*
X114463215Y-98898558D01*
X114455769Y-98916535D01*
X114370017Y-99084832D01*
X114369608Y-99085500D01*
X109317746Y-99085500D01*
X109336155Y-99071847D01*
X109341131Y-99068343D01*
X109529368Y-98942566D01*
X109534512Y-98939309D01*
X109566106Y-98920373D01*
X109571401Y-98917373D01*
X109614623Y-98894271D01*
X109620062Y-98891534D01*
X109653344Y-98875794D01*
X109658905Y-98873329D01*
X109868051Y-98786699D01*
X109873728Y-98784509D01*
X109908380Y-98772110D01*
X109914155Y-98770202D01*
X109961048Y-98755975D01*
X109966916Y-98754351D01*
X110002651Y-98745399D01*
X110008592Y-98744065D01*
X110230643Y-98699896D01*
X110236640Y-98698855D01*
X110273071Y-98693451D01*
X110279112Y-98692706D01*
X110327884Y-98687903D01*
X110333954Y-98687455D01*
X110370726Y-98685649D01*
X110376809Y-98685500D01*
X110603191Y-98685500D01*
X110609274Y-98685649D01*
X110646046Y-98687455D01*
X110652116Y-98687903D01*
X110700888Y-98692706D01*
X110706929Y-98693451D01*
X110743360Y-98698855D01*
X110749357Y-98699896D01*
X110755500Y-98701117D01*
X110755500Y-97583500D01*
X109253500Y-97583500D01*
X109253500Y-99085500D01*
X105755500Y-99085500D01*
X105755500Y-97583500D01*
X105003500Y-97583500D01*
X105003500Y-99085500D01*
X104005500Y-99085500D01*
X104005500Y-96939304D01*
X112496685Y-96939304D01*
X112496685Y-97116695D01*
X112531288Y-97290658D01*
X112531291Y-97290667D01*
X112599168Y-97454540D01*
X112599175Y-97454553D01*
X112697720Y-97602034D01*
X112697723Y-97602038D01*
X112823146Y-97727461D01*
X112823150Y-97727464D01*
X112970631Y-97826009D01*
X112970644Y-97826016D01*
X113092564Y-97876516D01*
X113134519Y-97893894D01*
X113134521Y-97893894D01*
X113134526Y-97893896D01*
X113308489Y-97928499D01*
X113308492Y-97928500D01*
X113308494Y-97928500D01*
X113485878Y-97928500D01*
X113485879Y-97928499D01*
X113567565Y-97912251D01*
X113659843Y-97893896D01*
X113659846Y-97893894D01*
X113659851Y-97893894D01*
X113823732Y-97826013D01*
X113971220Y-97727464D01*
X114096649Y-97602035D01*
X114195198Y-97454547D01*
X114263079Y-97290666D01*
X114267179Y-97270057D01*
X114297684Y-97116695D01*
X114297685Y-97116693D01*
X114297685Y-96939306D01*
X114297684Y-96939304D01*
X114263081Y-96765341D01*
X114263078Y-96765332D01*
X114260910Y-96760099D01*
X114219152Y-96659283D01*
X114195201Y-96601459D01*
X114195194Y-96601446D01*
X114096649Y-96453965D01*
X114096646Y-96453961D01*
X113971223Y-96328538D01*
X113971219Y-96328535D01*
X113823738Y-96229990D01*
X113823725Y-96229983D01*
X113659852Y-96162106D01*
X113659843Y-96162103D01*
X113485879Y-96127500D01*
X113485876Y-96127500D01*
X113308494Y-96127500D01*
X113308491Y-96127500D01*
X113134526Y-96162103D01*
X113134517Y-96162106D01*
X112970644Y-96229983D01*
X112970631Y-96229990D01*
X112823150Y-96328535D01*
X112823146Y-96328538D01*
X112697723Y-96453961D01*
X112697720Y-96453965D01*
X112599175Y-96601446D01*
X112599168Y-96601459D01*
X112531291Y-96765332D01*
X112531288Y-96765341D01*
X112496685Y-96939304D01*
X104005500Y-96939304D01*
X104005500Y-96585500D01*
X105003500Y-96585500D01*
X105755500Y-96585500D01*
X106753500Y-96585500D01*
X108255500Y-96585500D01*
X109253500Y-96585500D01*
X110755500Y-96585500D01*
X110755500Y-96070923D01*
X111753500Y-96070923D01*
X111755751Y-96067368D01*
X111881528Y-95879131D01*
X111885032Y-95874155D01*
X111906964Y-95844583D01*
X111910709Y-95839785D01*
X111941798Y-95801903D01*
X111945772Y-95797296D01*
X111970503Y-95770009D01*
X111974701Y-95765600D01*
X112134785Y-95605516D01*
X112139194Y-95601318D01*
X112166481Y-95576587D01*
X112171088Y-95572613D01*
X112208970Y-95541524D01*
X112213768Y-95537779D01*
X112243340Y-95515847D01*
X112248316Y-95512343D01*
X112436553Y-95386566D01*
X112441697Y-95383309D01*
X112473291Y-95364373D01*
X112478586Y-95361373D01*
X112521808Y-95338271D01*
X112527247Y-95335534D01*
X112540871Y-95329091D01*
X114253500Y-95329091D01*
X114267123Y-95335534D01*
X114272562Y-95338271D01*
X114315784Y-95361373D01*
X114321079Y-95364373D01*
X114352673Y-95383309D01*
X114357817Y-95386566D01*
X114546054Y-95512343D01*
X114551030Y-95515847D01*
X114580602Y-95537779D01*
X114585400Y-95541524D01*
X114623282Y-95572613D01*
X114627889Y-95576587D01*
X114655176Y-95601318D01*
X114659585Y-95605516D01*
X114819669Y-95765600D01*
X114823867Y-95770009D01*
X114848598Y-95797296D01*
X114852572Y-95801903D01*
X114883661Y-95839785D01*
X114887406Y-95844583D01*
X114909338Y-95874155D01*
X114912842Y-95879131D01*
X115038619Y-96067368D01*
X115041876Y-96072512D01*
X115060812Y-96104106D01*
X115063812Y-96109401D01*
X115086914Y-96152623D01*
X115089651Y-96158062D01*
X115105391Y-96191344D01*
X115107856Y-96196905D01*
X115194486Y-96406051D01*
X115196676Y-96411728D01*
X115209075Y-96446380D01*
X115210983Y-96452155D01*
X115225210Y-96499048D01*
X115226834Y-96504916D01*
X115235786Y-96540651D01*
X115237120Y-96546591D01*
X115244860Y-96585500D01*
X115755500Y-96585500D01*
X115755500Y-95770904D01*
X117057100Y-95770904D01*
X117057100Y-95948295D01*
X117091703Y-96122258D01*
X117091706Y-96122267D01*
X117159583Y-96286140D01*
X117159590Y-96286153D01*
X117258135Y-96433634D01*
X117258138Y-96433638D01*
X117383561Y-96559061D01*
X117383565Y-96559064D01*
X117531046Y-96657609D01*
X117531059Y-96657616D01*
X117653687Y-96708409D01*
X117694934Y-96725494D01*
X117694936Y-96725494D01*
X117694941Y-96725496D01*
X117868904Y-96760099D01*
X117868907Y-96760100D01*
X117868909Y-96760100D01*
X118046293Y-96760100D01*
X118046294Y-96760099D01*
X118104282Y-96748564D01*
X118220258Y-96725496D01*
X118220261Y-96725494D01*
X118220266Y-96725494D01*
X118384147Y-96657613D01*
X118531635Y-96559064D01*
X118657064Y-96433635D01*
X118755613Y-96286147D01*
X118823494Y-96122266D01*
X118824051Y-96119469D01*
X118849110Y-95993484D01*
X118858100Y-95948291D01*
X118858100Y-95770909D01*
X118858100Y-95770906D01*
X118858099Y-95770904D01*
X118823496Y-95596941D01*
X118823493Y-95596932D01*
X118820869Y-95590598D01*
X118800543Y-95541524D01*
X118755616Y-95433059D01*
X118755614Y-95433055D01*
X118755613Y-95433053D01*
X118738643Y-95407656D01*
X118689514Y-95334129D01*
X118668636Y-95267452D01*
X118687120Y-95200072D01*
X118739099Y-95153381D01*
X118745126Y-95150692D01*
X118802031Y-95127122D01*
X118957708Y-95023102D01*
X119090102Y-94890708D01*
X119095985Y-94881904D01*
X119749500Y-94881904D01*
X119749500Y-95059295D01*
X119784103Y-95233258D01*
X119784106Y-95233267D01*
X119851983Y-95397140D01*
X119851990Y-95397153D01*
X119950535Y-95544634D01*
X119950538Y-95544638D01*
X120075961Y-95670061D01*
X120075965Y-95670064D01*
X120223446Y-95768609D01*
X120223459Y-95768616D01*
X120303823Y-95801903D01*
X120387334Y-95836494D01*
X120387336Y-95836494D01*
X120387341Y-95836496D01*
X120561304Y-95871099D01*
X120561307Y-95871100D01*
X120561309Y-95871100D01*
X120738693Y-95871100D01*
X120738694Y-95871099D01*
X120796682Y-95859564D01*
X120912658Y-95836496D01*
X120912661Y-95836494D01*
X120912666Y-95836494D01*
X121076547Y-95768613D01*
X121224035Y-95670064D01*
X121349464Y-95544635D01*
X121448013Y-95397147D01*
X121515894Y-95233266D01*
X121516553Y-95229957D01*
X121542412Y-95099952D01*
X121550500Y-95059291D01*
X121550500Y-94881909D01*
X121550500Y-94881906D01*
X121550499Y-94881904D01*
X121535342Y-94805704D01*
X124212300Y-94805704D01*
X124212300Y-94983095D01*
X124246903Y-95157058D01*
X124246906Y-95157067D01*
X124314783Y-95320940D01*
X124314790Y-95320953D01*
X124413335Y-95468434D01*
X124413338Y-95468438D01*
X124538761Y-95593861D01*
X124538765Y-95593864D01*
X124686246Y-95692409D01*
X124686259Y-95692416D01*
X124809163Y-95743323D01*
X124850134Y-95760294D01*
X124850136Y-95760294D01*
X124850141Y-95760296D01*
X125024104Y-95794899D01*
X125024107Y-95794900D01*
X125024109Y-95794900D01*
X125201493Y-95794900D01*
X125201494Y-95794899D01*
X125282868Y-95778713D01*
X125375458Y-95760296D01*
X125375461Y-95760294D01*
X125375466Y-95760294D01*
X125539347Y-95692413D01*
X125686835Y-95593864D01*
X125812264Y-95468435D01*
X125910813Y-95320947D01*
X125978694Y-95157066D01*
X125979579Y-95152620D01*
X126010423Y-94997553D01*
X126013300Y-94983091D01*
X126013300Y-94805709D01*
X126013300Y-94805706D01*
X126013299Y-94805704D01*
X126011683Y-94797580D01*
X126539270Y-94797580D01*
X126539270Y-94974971D01*
X126573873Y-95148934D01*
X126573876Y-95148943D01*
X126641753Y-95312816D01*
X126641760Y-95312829D01*
X126740305Y-95460310D01*
X126740308Y-95460314D01*
X126865731Y-95585737D01*
X126865735Y-95585740D01*
X127013216Y-95684285D01*
X127013229Y-95684292D01*
X127111135Y-95724845D01*
X127177104Y-95752170D01*
X127177106Y-95752170D01*
X127177111Y-95752172D01*
X127351074Y-95786775D01*
X127351077Y-95786776D01*
X127351079Y-95786776D01*
X127528463Y-95786776D01*
X127528464Y-95786775D01*
X127586452Y-95775240D01*
X127702428Y-95752172D01*
X127702431Y-95752170D01*
X127702436Y-95752170D01*
X127842305Y-95694234D01*
X127866310Y-95684292D01*
X127866310Y-95684291D01*
X127866317Y-95684289D01*
X128013805Y-95585740D01*
X128137219Y-95462326D01*
X129253500Y-95462326D01*
X129253500Y-96585500D01*
X130755500Y-96585500D01*
X130755500Y-96306476D01*
X131753500Y-96306476D01*
X131753500Y-96585500D01*
X133255500Y-96585500D01*
X134253500Y-96585500D01*
X135755500Y-96585500D01*
X136753500Y-96585500D01*
X138255500Y-96585500D01*
X139253500Y-96585500D01*
X140515515Y-96585500D01*
X140493499Y-96532349D01*
X140491309Y-96526672D01*
X140478910Y-96492020D01*
X140477002Y-96486245D01*
X140462775Y-96439352D01*
X140461151Y-96433484D01*
X140452199Y-96397749D01*
X140450865Y-96391808D01*
X140429913Y-96286479D01*
X140418305Y-96281671D01*
X140412744Y-96279206D01*
X140379462Y-96263466D01*
X140374023Y-96260729D01*
X140330801Y-96237627D01*
X140325506Y-96234627D01*
X140293912Y-96215691D01*
X140288768Y-96212434D01*
X140100531Y-96086657D01*
X140095555Y-96083153D01*
X140065983Y-96061221D01*
X140061185Y-96057476D01*
X140023303Y-96026387D01*
X140018696Y-96022413D01*
X139991409Y-95997682D01*
X139987000Y-95993484D01*
X139826916Y-95833400D01*
X139822718Y-95828991D01*
X139797987Y-95801704D01*
X139794013Y-95797097D01*
X139762924Y-95759215D01*
X139759179Y-95754417D01*
X139737247Y-95724845D01*
X139733743Y-95719869D01*
X139607966Y-95531632D01*
X139604709Y-95526488D01*
X139585773Y-95494894D01*
X139582773Y-95489599D01*
X139559671Y-95446377D01*
X139556934Y-95440938D01*
X139541194Y-95407656D01*
X139538729Y-95402095D01*
X139452099Y-95192949D01*
X139449909Y-95187272D01*
X139437510Y-95152620D01*
X139435602Y-95146845D01*
X139421375Y-95099952D01*
X139419751Y-95094084D01*
X139417100Y-95083500D01*
X139253500Y-95083500D01*
X139253500Y-96585500D01*
X138255500Y-96585500D01*
X138255500Y-95546286D01*
X138188349Y-95574101D01*
X138182672Y-95576291D01*
X138148020Y-95588690D01*
X138142245Y-95590598D01*
X138095352Y-95604825D01*
X138089484Y-95606449D01*
X138053749Y-95615401D01*
X138047808Y-95616735D01*
X137825757Y-95660904D01*
X137819760Y-95661945D01*
X137783329Y-95667349D01*
X137777288Y-95668094D01*
X137728516Y-95672897D01*
X137722446Y-95673345D01*
X137685674Y-95675151D01*
X137679591Y-95675300D01*
X137453209Y-95675300D01*
X137447126Y-95675151D01*
X137410354Y-95673345D01*
X137404284Y-95672897D01*
X137355512Y-95668094D01*
X137349471Y-95667349D01*
X137313040Y-95661945D01*
X137307043Y-95660904D01*
X137084992Y-95616735D01*
X137079051Y-95615401D01*
X137043316Y-95606449D01*
X137037448Y-95604825D01*
X136990555Y-95590598D01*
X136984780Y-95588690D01*
X136950128Y-95576291D01*
X136944451Y-95574101D01*
X136753500Y-95495007D01*
X136753500Y-96585500D01*
X135755500Y-96585500D01*
X135755500Y-95083500D01*
X134253500Y-95083500D01*
X134253500Y-96585500D01*
X133255500Y-96585500D01*
X133255500Y-95083500D01*
X133206815Y-95083500D01*
X133130271Y-95268295D01*
X133127806Y-95273856D01*
X133112066Y-95307138D01*
X133109329Y-95312577D01*
X133086227Y-95355799D01*
X133083227Y-95361094D01*
X133064291Y-95392688D01*
X133061034Y-95397832D01*
X132935257Y-95586069D01*
X132931753Y-95591045D01*
X132909821Y-95620617D01*
X132906076Y-95625415D01*
X132874987Y-95663297D01*
X132871013Y-95667904D01*
X132846282Y-95695191D01*
X132842084Y-95699600D01*
X132682000Y-95859684D01*
X132677591Y-95863882D01*
X132650304Y-95888613D01*
X132645697Y-95892587D01*
X132607815Y-95923676D01*
X132603017Y-95927421D01*
X132573445Y-95949353D01*
X132568469Y-95952857D01*
X132380232Y-96078634D01*
X132375088Y-96081891D01*
X132343494Y-96100827D01*
X132338199Y-96103827D01*
X132294977Y-96126929D01*
X132289538Y-96129666D01*
X132256256Y-96145406D01*
X132250695Y-96147871D01*
X132041549Y-96234501D01*
X132035872Y-96236691D01*
X132001220Y-96249090D01*
X131995445Y-96250998D01*
X131948552Y-96265225D01*
X131942684Y-96266849D01*
X131906949Y-96275801D01*
X131901008Y-96277135D01*
X131753500Y-96306476D01*
X130755500Y-96306476D01*
X130755500Y-96217041D01*
X130588505Y-96147871D01*
X130582944Y-96145406D01*
X130549662Y-96129666D01*
X130544223Y-96126929D01*
X130501001Y-96103827D01*
X130495706Y-96100827D01*
X130464112Y-96081891D01*
X130458968Y-96078634D01*
X130270731Y-95952857D01*
X130265755Y-95949353D01*
X130236183Y-95927421D01*
X130231385Y-95923676D01*
X130193503Y-95892587D01*
X130188896Y-95888613D01*
X130161609Y-95863882D01*
X130157200Y-95859684D01*
X129997116Y-95699600D01*
X129992918Y-95695191D01*
X129968187Y-95667904D01*
X129964213Y-95663297D01*
X129933124Y-95625415D01*
X129929379Y-95620617D01*
X129907447Y-95591045D01*
X129903943Y-95586069D01*
X129778166Y-95397832D01*
X129774909Y-95392688D01*
X129755973Y-95361094D01*
X129752973Y-95355799D01*
X129729871Y-95312577D01*
X129727134Y-95307138D01*
X129711394Y-95273856D01*
X129708929Y-95268295D01*
X129632385Y-95083500D01*
X129332410Y-95083500D01*
X129331064Y-95097164D01*
X129330319Y-95103205D01*
X129324915Y-95139636D01*
X129323874Y-95145633D01*
X129279705Y-95367684D01*
X129278371Y-95373625D01*
X129269419Y-95409360D01*
X129267795Y-95415228D01*
X129253568Y-95462121D01*
X129253500Y-95462326D01*
X128137219Y-95462326D01*
X128139234Y-95460311D01*
X128237783Y-95312823D01*
X128305664Y-95148942D01*
X128305900Y-95147760D01*
X128335777Y-94997553D01*
X128340270Y-94974967D01*
X128340270Y-94797585D01*
X128340270Y-94797582D01*
X128340269Y-94797580D01*
X128305666Y-94623617D01*
X128305663Y-94623608D01*
X128237786Y-94459735D01*
X128237779Y-94459722D01*
X128163464Y-94348504D01*
X130519100Y-94348504D01*
X130519100Y-94525895D01*
X130553703Y-94699858D01*
X130553706Y-94699867D01*
X130621583Y-94863740D01*
X130621590Y-94863753D01*
X130720135Y-95011234D01*
X130720138Y-95011238D01*
X130845561Y-95136661D01*
X130845565Y-95136664D01*
X130993046Y-95235209D01*
X130993059Y-95235216D01*
X131078150Y-95270461D01*
X131156934Y-95303094D01*
X131156936Y-95303094D01*
X131156941Y-95303096D01*
X131330904Y-95337699D01*
X131330907Y-95337700D01*
X131330909Y-95337700D01*
X131508293Y-95337700D01*
X131508294Y-95337699D01*
X131566282Y-95326164D01*
X131682258Y-95303096D01*
X131682261Y-95303094D01*
X131682266Y-95303094D01*
X131846147Y-95235213D01*
X131993635Y-95136664D01*
X132119064Y-95011235D01*
X132217613Y-94863747D01*
X132285494Y-94699866D01*
X132288164Y-94686447D01*
X132320099Y-94525895D01*
X132320100Y-94525893D01*
X132320100Y-94348506D01*
X132320099Y-94348504D01*
X132285496Y-94174541D01*
X132285493Y-94174532D01*
X132284687Y-94172587D01*
X132249758Y-94088259D01*
X132217616Y-94010659D01*
X132217609Y-94010646D01*
X132119064Y-93863165D01*
X132119061Y-93863161D01*
X131993638Y-93737738D01*
X131993634Y-93737735D01*
X131846153Y-93639190D01*
X131846140Y-93639183D01*
X131682267Y-93571306D01*
X131682258Y-93571303D01*
X131508294Y-93536700D01*
X131508291Y-93536700D01*
X131330909Y-93536700D01*
X131330906Y-93536700D01*
X131156941Y-93571303D01*
X131156932Y-93571306D01*
X130993059Y-93639183D01*
X130993046Y-93639190D01*
X130845565Y-93737735D01*
X130845561Y-93737738D01*
X130720138Y-93863161D01*
X130720135Y-93863165D01*
X130621590Y-94010646D01*
X130621583Y-94010659D01*
X130553706Y-94174532D01*
X130553703Y-94174541D01*
X130519100Y-94348504D01*
X128163464Y-94348504D01*
X128139234Y-94312241D01*
X128139231Y-94312237D01*
X128013808Y-94186814D01*
X128013804Y-94186811D01*
X127866323Y-94088266D01*
X127866310Y-94088259D01*
X127859649Y-94085500D01*
X129253500Y-94085500D01*
X129553864Y-94085500D01*
X129579665Y-93955792D01*
X129580999Y-93949851D01*
X129589951Y-93914116D01*
X129591575Y-93908248D01*
X129605802Y-93861355D01*
X129607710Y-93855580D01*
X129620109Y-93820928D01*
X129622299Y-93815251D01*
X129708929Y-93606105D01*
X129711394Y-93600544D01*
X129727134Y-93567262D01*
X129729871Y-93561823D01*
X129752973Y-93518601D01*
X129755973Y-93513306D01*
X129774909Y-93481712D01*
X129778166Y-93476568D01*
X129903943Y-93288331D01*
X129907447Y-93283355D01*
X129929379Y-93253783D01*
X129933124Y-93248985D01*
X129964213Y-93211103D01*
X129968187Y-93206496D01*
X129992918Y-93179209D01*
X129997116Y-93174800D01*
X130157200Y-93014716D01*
X130161609Y-93010518D01*
X130188896Y-92985787D01*
X130193503Y-92981813D01*
X130231385Y-92950724D01*
X130236183Y-92946979D01*
X130264330Y-92926104D01*
X133516300Y-92926104D01*
X133516300Y-93103495D01*
X133550903Y-93277458D01*
X133550906Y-93277467D01*
X133618783Y-93441340D01*
X133618790Y-93441353D01*
X133717335Y-93588834D01*
X133717338Y-93588838D01*
X133842761Y-93714261D01*
X133842765Y-93714264D01*
X133990246Y-93812809D01*
X133990259Y-93812816D01*
X134093503Y-93855580D01*
X134154134Y-93880694D01*
X134154136Y-93880694D01*
X134154141Y-93880696D01*
X134328104Y-93915299D01*
X134328107Y-93915300D01*
X134328109Y-93915300D01*
X134505493Y-93915300D01*
X134505494Y-93915299D01*
X134563482Y-93903764D01*
X134679458Y-93880696D01*
X134679461Y-93880694D01*
X134679466Y-93880694D01*
X134843347Y-93812813D01*
X134990835Y-93714264D01*
X135016995Y-93688104D01*
X136665900Y-93688104D01*
X136665900Y-93865495D01*
X136700503Y-94039458D01*
X136700506Y-94039467D01*
X136768383Y-94203340D01*
X136768390Y-94203353D01*
X136866935Y-94350834D01*
X136866938Y-94350838D01*
X136992361Y-94476261D01*
X136992365Y-94476264D01*
X137139846Y-94574809D01*
X137139859Y-94574816D01*
X137262763Y-94625723D01*
X137303734Y-94642694D01*
X137303736Y-94642694D01*
X137303741Y-94642696D01*
X137477704Y-94677299D01*
X137477707Y-94677300D01*
X137477709Y-94677300D01*
X137655093Y-94677300D01*
X137655094Y-94677299D01*
X137743617Y-94659691D01*
X137829058Y-94642696D01*
X137829061Y-94642694D01*
X137829066Y-94642694D01*
X137992947Y-94574813D01*
X138140435Y-94476264D01*
X138265864Y-94350835D01*
X138364413Y-94203347D01*
X138432294Y-94039466D01*
X138437139Y-94015112D01*
X138456992Y-93915300D01*
X138466900Y-93865491D01*
X138466900Y-93688109D01*
X138466900Y-93688106D01*
X138466899Y-93688104D01*
X138432296Y-93514141D01*
X138432293Y-93514132D01*
X138418864Y-93481712D01*
X138402615Y-93442481D01*
X138364416Y-93350259D01*
X138364409Y-93350246D01*
X138265864Y-93202765D01*
X138265861Y-93202761D01*
X138140438Y-93077338D01*
X138140434Y-93077335D01*
X137992953Y-92978790D01*
X137992940Y-92978783D01*
X137829067Y-92910906D01*
X137829058Y-92910903D01*
X137655094Y-92876300D01*
X137655091Y-92876300D01*
X137477709Y-92876300D01*
X137477706Y-92876300D01*
X137303741Y-92910903D01*
X137303732Y-92910906D01*
X137139859Y-92978783D01*
X137139846Y-92978790D01*
X136992365Y-93077335D01*
X136992361Y-93077338D01*
X136866938Y-93202761D01*
X136866935Y-93202765D01*
X136768390Y-93350246D01*
X136768383Y-93350259D01*
X136700506Y-93514132D01*
X136700503Y-93514141D01*
X136665900Y-93688104D01*
X135016995Y-93688104D01*
X135116264Y-93588835D01*
X135214813Y-93441347D01*
X135282694Y-93277466D01*
X135288360Y-93248985D01*
X135317299Y-93103495D01*
X135317300Y-93103493D01*
X135317300Y-92926106D01*
X135317299Y-92926104D01*
X135282696Y-92752141D01*
X135282693Y-92752132D01*
X135280762Y-92747471D01*
X135270586Y-92722904D01*
X140069500Y-92722904D01*
X140069500Y-92900295D01*
X140104103Y-93074258D01*
X140104106Y-93074267D01*
X140171983Y-93238140D01*
X140171990Y-93238153D01*
X140270535Y-93385634D01*
X140270538Y-93385638D01*
X140395961Y-93511061D01*
X140395965Y-93511064D01*
X140543446Y-93609609D01*
X140543459Y-93609616D01*
X140652540Y-93654798D01*
X140706944Y-93698638D01*
X140729009Y-93764932D01*
X140711730Y-93832632D01*
X140679353Y-93866795D01*
X140680073Y-93867672D01*
X140675361Y-93871538D01*
X140549938Y-93996961D01*
X140549935Y-93996965D01*
X140451390Y-94144446D01*
X140451383Y-94144459D01*
X140383506Y-94308332D01*
X140383503Y-94308341D01*
X140348900Y-94482304D01*
X140348900Y-94659695D01*
X140383503Y-94833658D01*
X140383506Y-94833667D01*
X140451383Y-94997540D01*
X140451390Y-94997553D01*
X140549935Y-95145034D01*
X140549938Y-95145038D01*
X140675361Y-95270461D01*
X140675365Y-95270464D01*
X140822846Y-95369009D01*
X140822859Y-95369016D01*
X140916146Y-95407656D01*
X140986734Y-95436894D01*
X140986736Y-95436894D01*
X140986741Y-95436896D01*
X141160704Y-95471499D01*
X141160707Y-95471500D01*
X141312326Y-95471500D01*
X141379365Y-95491185D01*
X141425120Y-95543989D01*
X141435064Y-95613147D01*
X141426888Y-95642948D01*
X141425310Y-95646756D01*
X141424905Y-95647736D01*
X141424903Y-95647741D01*
X141390300Y-95821704D01*
X141390300Y-95999095D01*
X141424903Y-96173058D01*
X141424906Y-96173067D01*
X141492783Y-96336940D01*
X141492790Y-96336953D01*
X141591335Y-96484434D01*
X141591338Y-96484438D01*
X141716761Y-96609861D01*
X141716765Y-96609864D01*
X141864246Y-96708409D01*
X141864259Y-96708416D01*
X141905495Y-96725496D01*
X142028134Y-96776294D01*
X142028136Y-96776294D01*
X142028141Y-96776296D01*
X142202104Y-96810899D01*
X142202107Y-96810900D01*
X142202109Y-96810900D01*
X142379493Y-96810900D01*
X142379494Y-96810899D01*
X142437482Y-96799364D01*
X142553458Y-96776296D01*
X142553461Y-96776294D01*
X142553466Y-96776294D01*
X142717347Y-96708413D01*
X142858269Y-96614250D01*
X142924944Y-96593374D01*
X142992324Y-96611858D01*
X143027476Y-96644469D01*
X143114890Y-96764786D01*
X143265213Y-96915109D01*
X143437182Y-97040050D01*
X143445946Y-97044516D01*
X143496742Y-97092491D01*
X143513536Y-97160312D01*
X143490998Y-97226447D01*
X143445946Y-97265484D01*
X143437182Y-97269949D01*
X143265213Y-97394890D01*
X143114890Y-97545213D01*
X142989950Y-97717180D01*
X142979512Y-97737666D01*
X142931536Y-97788460D01*
X142863714Y-97805253D01*
X142797580Y-97782713D01*
X142781348Y-97769048D01*
X142712438Y-97700138D01*
X142712434Y-97700135D01*
X142564953Y-97601590D01*
X142564940Y-97601583D01*
X142401067Y-97533706D01*
X142401058Y-97533703D01*
X142227094Y-97499100D01*
X142227091Y-97499100D01*
X142049709Y-97499100D01*
X142049706Y-97499100D01*
X141875741Y-97533703D01*
X141875732Y-97533706D01*
X141711859Y-97601583D01*
X141711846Y-97601590D01*
X141564365Y-97700135D01*
X141564361Y-97700138D01*
X141438938Y-97825561D01*
X141438935Y-97825565D01*
X141340390Y-97973046D01*
X141340383Y-97973059D01*
X141272506Y-98136932D01*
X141272503Y-98136941D01*
X141237900Y-98310904D01*
X141237900Y-98488295D01*
X141272503Y-98662258D01*
X141272506Y-98662267D01*
X141340383Y-98826140D01*
X141340390Y-98826153D01*
X141438935Y-98973634D01*
X141438938Y-98973638D01*
X141564361Y-99099061D01*
X141564365Y-99099064D01*
X141711846Y-99197609D01*
X141711859Y-99197616D01*
X141783749Y-99227393D01*
X141875734Y-99265494D01*
X141875736Y-99265494D01*
X141875741Y-99265496D01*
X142049704Y-99300099D01*
X142049707Y-99300100D01*
X142049709Y-99300100D01*
X142227093Y-99300100D01*
X142227094Y-99300099D01*
X142285082Y-99288564D01*
X142401058Y-99265496D01*
X142401061Y-99265494D01*
X142401066Y-99265494D01*
X142564947Y-99197613D01*
X142712435Y-99099064D01*
X142764203Y-99047295D01*
X142825522Y-99013812D01*
X142895213Y-99018795D01*
X142951148Y-99060666D01*
X142962367Y-99078683D01*
X142989951Y-99132820D01*
X143114890Y-99304786D01*
X143265213Y-99455109D01*
X143437179Y-99580048D01*
X143437181Y-99580049D01*
X143437184Y-99580051D01*
X143626588Y-99676557D01*
X143828757Y-99742246D01*
X144038713Y-99775500D01*
X144038714Y-99775500D01*
X144251286Y-99775500D01*
X144251287Y-99775500D01*
X144461243Y-99742246D01*
X144663412Y-99676557D01*
X144852816Y-99580051D01*
X144874789Y-99564086D01*
X145024786Y-99455109D01*
X145024788Y-99455106D01*
X145024792Y-99455104D01*
X145175104Y-99304792D01*
X145175106Y-99304788D01*
X145175109Y-99304786D01*
X145300048Y-99132820D01*
X145300047Y-99132820D01*
X145300051Y-99132816D01*
X145396557Y-98943412D01*
X145462246Y-98741243D01*
X145495500Y-98531287D01*
X145495500Y-98318713D01*
X145462246Y-98108757D01*
X145396557Y-97906588D01*
X145300051Y-97717184D01*
X145300049Y-97717181D01*
X145300048Y-97717179D01*
X145175109Y-97545213D01*
X145024786Y-97394890D01*
X144852820Y-97269951D01*
X144852115Y-97269591D01*
X144844054Y-97265485D01*
X144793259Y-97217512D01*
X144776463Y-97149692D01*
X144798999Y-97083556D01*
X144844054Y-97044515D01*
X144852816Y-97040051D01*
X144874789Y-97024086D01*
X145024786Y-96915109D01*
X145024788Y-96915106D01*
X145024792Y-96915104D01*
X145175104Y-96764792D01*
X145175106Y-96764788D01*
X145175109Y-96764786D01*
X145287667Y-96609861D01*
X145300051Y-96592816D01*
X145396557Y-96403412D01*
X145462246Y-96201243D01*
X145495500Y-95991287D01*
X145495500Y-95778713D01*
X145462246Y-95568757D01*
X145396557Y-95366588D01*
X145300051Y-95177184D01*
X145300049Y-95177181D01*
X145300048Y-95177179D01*
X145175109Y-95005213D01*
X145024786Y-94854890D01*
X144852820Y-94729951D01*
X144852115Y-94729591D01*
X144844054Y-94725485D01*
X144793259Y-94677512D01*
X144776463Y-94609692D01*
X144798999Y-94543556D01*
X144844054Y-94504515D01*
X144852816Y-94500051D01*
X144908315Y-94459729D01*
X145024786Y-94375109D01*
X145024788Y-94375106D01*
X145024792Y-94375104D01*
X145175104Y-94224792D01*
X145175106Y-94224788D01*
X145175109Y-94224786D01*
X145300048Y-94052820D01*
X145300047Y-94052820D01*
X145300051Y-94052816D01*
X145396557Y-93863412D01*
X145462246Y-93661243D01*
X145495500Y-93451287D01*
X145495500Y-93238713D01*
X145462246Y-93028757D01*
X145396557Y-92826588D01*
X145300051Y-92637184D01*
X145300049Y-92637181D01*
X145300048Y-92637179D01*
X145175109Y-92465213D01*
X145061181Y-92351285D01*
X145027696Y-92289962D01*
X145032680Y-92220270D01*
X145074552Y-92164337D01*
X145105529Y-92147422D01*
X145237086Y-92098354D01*
X145237093Y-92098350D01*
X145352187Y-92012190D01*
X145352190Y-92012187D01*
X145438350Y-91897093D01*
X145438354Y-91897086D01*
X145488596Y-91762379D01*
X145488598Y-91762372D01*
X145494999Y-91702844D01*
X145495000Y-91702827D01*
X145495000Y-91055000D01*
X144578012Y-91055000D01*
X144610925Y-90997993D01*
X144645000Y-90870826D01*
X144645000Y-90739174D01*
X144610925Y-90612007D01*
X144578012Y-90555000D01*
X145495000Y-90555000D01*
X145495000Y-89907172D01*
X145494999Y-89907155D01*
X145488598Y-89847627D01*
X145488596Y-89847620D01*
X145438354Y-89712913D01*
X145438350Y-89712906D01*
X145352190Y-89597812D01*
X145352187Y-89597809D01*
X145237093Y-89511649D01*
X145237086Y-89511645D01*
X145102379Y-89461403D01*
X145102372Y-89461401D01*
X145042844Y-89455000D01*
X144395000Y-89455000D01*
X144395000Y-90371988D01*
X144337993Y-90339075D01*
X144210826Y-90305000D01*
X144079174Y-90305000D01*
X143952007Y-90339075D01*
X143895000Y-90371988D01*
X143895000Y-89455000D01*
X143247155Y-89455000D01*
X143187627Y-89461401D01*
X143187620Y-89461403D01*
X143052913Y-89511645D01*
X143052906Y-89511649D01*
X142937812Y-89597809D01*
X142937809Y-89597812D01*
X142851649Y-89712906D01*
X142851645Y-89712913D01*
X142801403Y-89847620D01*
X142801401Y-89847627D01*
X142795000Y-89907155D01*
X142795000Y-90555000D01*
X143711988Y-90555000D01*
X143679075Y-90612007D01*
X143645000Y-90739174D01*
X143645000Y-90870826D01*
X143679075Y-90997993D01*
X143711988Y-91055000D01*
X142795000Y-91055000D01*
X142795000Y-91702844D01*
X142801401Y-91762372D01*
X142801403Y-91762379D01*
X142851645Y-91897086D01*
X142851649Y-91897093D01*
X142937809Y-92012187D01*
X142937812Y-92012190D01*
X143052906Y-92098350D01*
X143052913Y-92098354D01*
X143184470Y-92147422D01*
X143240404Y-92189293D01*
X143264821Y-92254758D01*
X143249969Y-92323031D01*
X143228819Y-92351285D01*
X143114889Y-92465215D01*
X142989951Y-92637179D01*
X142893444Y-92826585D01*
X142827753Y-93028760D01*
X142794500Y-93238713D01*
X142794500Y-93451286D01*
X142824260Y-93639187D01*
X142827754Y-93661243D01*
X142893361Y-93863161D01*
X142893444Y-93863414D01*
X142989951Y-94052820D01*
X143114890Y-94224786D01*
X143265213Y-94375109D01*
X143437182Y-94500050D01*
X143445946Y-94504516D01*
X143496742Y-94552491D01*
X143513536Y-94620312D01*
X143490998Y-94686447D01*
X143445946Y-94725484D01*
X143437182Y-94729949D01*
X143265213Y-94854890D01*
X143114894Y-95005209D01*
X143114890Y-95005214D01*
X143002630Y-95159728D01*
X142947300Y-95202394D01*
X142877687Y-95208373D01*
X142833421Y-95189945D01*
X142717353Y-95112390D01*
X142717340Y-95112383D01*
X142553467Y-95044506D01*
X142553458Y-95044503D01*
X142379494Y-95009900D01*
X142379491Y-95009900D01*
X142227874Y-95009900D01*
X142160835Y-94990215D01*
X142115080Y-94937411D01*
X142105136Y-94868253D01*
X142113311Y-94838451D01*
X142115294Y-94833666D01*
X142134915Y-94735028D01*
X142146397Y-94677300D01*
X142149900Y-94659691D01*
X142149900Y-94482309D01*
X142149900Y-94482306D01*
X142149899Y-94482304D01*
X142115296Y-94308341D01*
X142115293Y-94308332D01*
X142047416Y-94144459D01*
X142047409Y-94144446D01*
X141948864Y-93996965D01*
X141948861Y-93996961D01*
X141823438Y-93871538D01*
X141823434Y-93871535D01*
X141675953Y-93772990D01*
X141675940Y-93772983D01*
X141566859Y-93727801D01*
X141512455Y-93683960D01*
X141490390Y-93617666D01*
X141507669Y-93549967D01*
X141540050Y-93515809D01*
X141539327Y-93514928D01*
X141544031Y-93511066D01*
X141544035Y-93511064D01*
X141669464Y-93385635D01*
X141768013Y-93238147D01*
X141835894Y-93074266D01*
X141841184Y-93047675D01*
X141865576Y-92925047D01*
X141870500Y-92900291D01*
X141870500Y-92722909D01*
X141870500Y-92722906D01*
X141870499Y-92722904D01*
X141835896Y-92548941D01*
X141835893Y-92548932D01*
X141768016Y-92385059D01*
X141768009Y-92385046D01*
X141669464Y-92237565D01*
X141669461Y-92237561D01*
X141544038Y-92112138D01*
X141544034Y-92112135D01*
X141396553Y-92013590D01*
X141396540Y-92013583D01*
X141232667Y-91945706D01*
X141232658Y-91945703D01*
X141058694Y-91911100D01*
X141058691Y-91911100D01*
X140881309Y-91911100D01*
X140881306Y-91911100D01*
X140707341Y-91945703D01*
X140707332Y-91945706D01*
X140543459Y-92013583D01*
X140543446Y-92013590D01*
X140395965Y-92112135D01*
X140395961Y-92112138D01*
X140270538Y-92237561D01*
X140270535Y-92237565D01*
X140171990Y-92385046D01*
X140171983Y-92385059D01*
X140104106Y-92548932D01*
X140104103Y-92548941D01*
X140069500Y-92722904D01*
X135270586Y-92722904D01*
X135219134Y-92598684D01*
X135214816Y-92588259D01*
X135214809Y-92588246D01*
X135136380Y-92470870D01*
X135115502Y-92404193D01*
X135133986Y-92336813D01*
X135151803Y-92314296D01*
X135167062Y-92299037D01*
X135167064Y-92299035D01*
X135265613Y-92151547D01*
X135333494Y-91987666D01*
X135341841Y-91945706D01*
X135368099Y-91813695D01*
X135368100Y-91813693D01*
X135368100Y-91636306D01*
X135368099Y-91636304D01*
X135333496Y-91462341D01*
X135333493Y-91462332D01*
X135332921Y-91460952D01*
X135313228Y-91413408D01*
X135265616Y-91298459D01*
X135265609Y-91298446D01*
X135167064Y-91150965D01*
X135167061Y-91150961D01*
X135041638Y-91025538D01*
X135041634Y-91025535D01*
X134894153Y-90926990D01*
X134894140Y-90926983D01*
X134730267Y-90859106D01*
X134730258Y-90859103D01*
X134556294Y-90824500D01*
X134556291Y-90824500D01*
X134378909Y-90824500D01*
X134378906Y-90824500D01*
X134204941Y-90859103D01*
X134204932Y-90859106D01*
X134041059Y-90926983D01*
X134041046Y-90926990D01*
X133893565Y-91025535D01*
X133893561Y-91025538D01*
X133768138Y-91150961D01*
X133768135Y-91150965D01*
X133669590Y-91298446D01*
X133669583Y-91298459D01*
X133601706Y-91462332D01*
X133601703Y-91462341D01*
X133567100Y-91636304D01*
X133567100Y-91813695D01*
X133601703Y-91987658D01*
X133601706Y-91987667D01*
X133669583Y-92151540D01*
X133669590Y-92151553D01*
X133748019Y-92268929D01*
X133768897Y-92335606D01*
X133750413Y-92402987D01*
X133732600Y-92425499D01*
X133717339Y-92440759D01*
X133717335Y-92440765D01*
X133618790Y-92588246D01*
X133618783Y-92588259D01*
X133550906Y-92752132D01*
X133550903Y-92752141D01*
X133516300Y-92926104D01*
X130264330Y-92926104D01*
X130265755Y-92925047D01*
X130270731Y-92921543D01*
X130458968Y-92795766D01*
X130464112Y-92792509D01*
X130495706Y-92773573D01*
X130501001Y-92770573D01*
X130544223Y-92747471D01*
X130549662Y-92744734D01*
X130582944Y-92728994D01*
X130588505Y-92726529D01*
X130755500Y-92657358D01*
X130755500Y-92583500D01*
X129253500Y-92583500D01*
X129253500Y-94085500D01*
X127859649Y-94085500D01*
X127702437Y-94020382D01*
X127702428Y-94020379D01*
X127528464Y-93985776D01*
X127528461Y-93985776D01*
X127351079Y-93985776D01*
X127351076Y-93985776D01*
X127177111Y-94020379D01*
X127177102Y-94020382D01*
X127013229Y-94088259D01*
X127013216Y-94088266D01*
X126865735Y-94186811D01*
X126865731Y-94186814D01*
X126740308Y-94312237D01*
X126740305Y-94312241D01*
X126641760Y-94459722D01*
X126641753Y-94459735D01*
X126573876Y-94623608D01*
X126573873Y-94623617D01*
X126539270Y-94797580D01*
X126011683Y-94797580D01*
X125978696Y-94631741D01*
X125978693Y-94631732D01*
X125910816Y-94467859D01*
X125910809Y-94467846D01*
X125812264Y-94320365D01*
X125812261Y-94320361D01*
X125686838Y-94194938D01*
X125686834Y-94194935D01*
X125539353Y-94096390D01*
X125539340Y-94096383D01*
X125375467Y-94028506D01*
X125375458Y-94028503D01*
X125201494Y-93993900D01*
X125201491Y-93993900D01*
X125024109Y-93993900D01*
X125024106Y-93993900D01*
X124850141Y-94028503D01*
X124850132Y-94028506D01*
X124686259Y-94096383D01*
X124686246Y-94096390D01*
X124538765Y-94194935D01*
X124538761Y-94194938D01*
X124413338Y-94320361D01*
X124413335Y-94320365D01*
X124314790Y-94467846D01*
X124314783Y-94467859D01*
X124246906Y-94631732D01*
X124246903Y-94631741D01*
X124212300Y-94805704D01*
X121535342Y-94805704D01*
X121515896Y-94707941D01*
X121515893Y-94707932D01*
X121512552Y-94699867D01*
X121484331Y-94631734D01*
X121448016Y-94544059D01*
X121448009Y-94544046D01*
X121349464Y-94396565D01*
X121349461Y-94396561D01*
X121224038Y-94271138D01*
X121224034Y-94271135D01*
X121076553Y-94172590D01*
X121076540Y-94172583D01*
X120912667Y-94104706D01*
X120912658Y-94104703D01*
X120738694Y-94070100D01*
X120738691Y-94070100D01*
X120561309Y-94070100D01*
X120561306Y-94070100D01*
X120387341Y-94104703D01*
X120387332Y-94104706D01*
X120223459Y-94172583D01*
X120223446Y-94172590D01*
X120075965Y-94271135D01*
X120075961Y-94271138D01*
X119950538Y-94396561D01*
X119950535Y-94396565D01*
X119851990Y-94544046D01*
X119851983Y-94544059D01*
X119784106Y-94707932D01*
X119784103Y-94707941D01*
X119749500Y-94881904D01*
X119095985Y-94881904D01*
X119194122Y-94735031D01*
X119265773Y-94562051D01*
X119302300Y-94378416D01*
X119302300Y-94191184D01*
X119265773Y-94007549D01*
X119194122Y-93834569D01*
X119194121Y-93834568D01*
X119194118Y-93834562D01*
X119090102Y-93678892D01*
X119090099Y-93678888D01*
X118957711Y-93546500D01*
X118957707Y-93546497D01*
X118802037Y-93442481D01*
X118802028Y-93442476D01*
X118758939Y-93424628D01*
X121753500Y-93424628D01*
X121798869Y-93454943D01*
X121803845Y-93458447D01*
X121833417Y-93480379D01*
X121838215Y-93484124D01*
X121876097Y-93515213D01*
X121880704Y-93519187D01*
X121907991Y-93543918D01*
X121912400Y-93548116D01*
X122072484Y-93708200D01*
X122076682Y-93712609D01*
X122101413Y-93739896D01*
X122105387Y-93744503D01*
X122136476Y-93782385D01*
X122140221Y-93787183D01*
X122162153Y-93816755D01*
X122165657Y-93821731D01*
X122291434Y-94009968D01*
X122294691Y-94015112D01*
X122313627Y-94046706D01*
X122316627Y-94052001D01*
X122334532Y-94085500D01*
X123255500Y-94085500D01*
X123255500Y-93918491D01*
X123252647Y-93914645D01*
X123249143Y-93909669D01*
X123123366Y-93721432D01*
X123120109Y-93716288D01*
X123101173Y-93684694D01*
X123098173Y-93679399D01*
X123075071Y-93636177D01*
X123072334Y-93630738D01*
X123056594Y-93597456D01*
X123054129Y-93591895D01*
X122967499Y-93382749D01*
X122965309Y-93377072D01*
X122952910Y-93342420D01*
X122951002Y-93336645D01*
X122936775Y-93289752D01*
X122935151Y-93283884D01*
X122926199Y-93248149D01*
X122924865Y-93242208D01*
X122880696Y-93020157D01*
X122879655Y-93014160D01*
X122874251Y-92977729D01*
X122873506Y-92971688D01*
X122868703Y-92922916D01*
X122868255Y-92916846D01*
X122866449Y-92880074D01*
X122866300Y-92873991D01*
X122866300Y-92672104D01*
X123864300Y-92672104D01*
X123864300Y-92849495D01*
X123898903Y-93023458D01*
X123898906Y-93023467D01*
X123966783Y-93187340D01*
X123966790Y-93187353D01*
X124065335Y-93334834D01*
X124065338Y-93334838D01*
X124190761Y-93460261D01*
X124190765Y-93460264D01*
X124338246Y-93558809D01*
X124338259Y-93558816D01*
X124452427Y-93606105D01*
X124502134Y-93626694D01*
X124502136Y-93626694D01*
X124502141Y-93626696D01*
X124676104Y-93661299D01*
X124676107Y-93661300D01*
X124676109Y-93661300D01*
X124853493Y-93661300D01*
X124853494Y-93661299D01*
X124911482Y-93649764D01*
X125027458Y-93626696D01*
X125027461Y-93626694D01*
X125027466Y-93626694D01*
X125191347Y-93558813D01*
X125338835Y-93460264D01*
X125464264Y-93334835D01*
X125562813Y-93187347D01*
X125592524Y-93115617D01*
X126753500Y-93115617D01*
X126817821Y-93088975D01*
X126823498Y-93086785D01*
X126858150Y-93074386D01*
X126863925Y-93072478D01*
X126910818Y-93058251D01*
X126916686Y-93056627D01*
X126952421Y-93047675D01*
X126958362Y-93046341D01*
X127180413Y-93002172D01*
X127186410Y-93001131D01*
X127222841Y-92995727D01*
X127228882Y-92994982D01*
X127277654Y-92990179D01*
X127283724Y-92989731D01*
X127320496Y-92987925D01*
X127326579Y-92987776D01*
X127552961Y-92987776D01*
X127559044Y-92987925D01*
X127595816Y-92989731D01*
X127601886Y-92990179D01*
X127650658Y-92994982D01*
X127656699Y-92995727D01*
X127693130Y-93001131D01*
X127699127Y-93002172D01*
X127921178Y-93046341D01*
X127927119Y-93047675D01*
X127962854Y-93056627D01*
X127968722Y-93058251D01*
X128015615Y-93072478D01*
X128021390Y-93074386D01*
X128056042Y-93086785D01*
X128061719Y-93088975D01*
X128255500Y-93169240D01*
X128255500Y-92583500D01*
X126753500Y-92583500D01*
X126753500Y-93115617D01*
X125592524Y-93115617D01*
X125630694Y-93023466D01*
X125631353Y-93020157D01*
X125659967Y-92876300D01*
X125665300Y-92849491D01*
X125665300Y-92672109D01*
X125665300Y-92672106D01*
X125665299Y-92672104D01*
X125630696Y-92498141D01*
X125630693Y-92498132D01*
X125562816Y-92334259D01*
X125562809Y-92334246D01*
X125464264Y-92186765D01*
X125464261Y-92186761D01*
X125338838Y-92061338D01*
X125338834Y-92061335D01*
X125191353Y-91962790D01*
X125191340Y-91962783D01*
X125027467Y-91894906D01*
X125027458Y-91894903D01*
X124853494Y-91860300D01*
X124853491Y-91860300D01*
X124676109Y-91860300D01*
X124676106Y-91860300D01*
X124502141Y-91894903D01*
X124502132Y-91894906D01*
X124338259Y-91962783D01*
X124338246Y-91962790D01*
X124190765Y-92061335D01*
X124190761Y-92061338D01*
X124065338Y-92186761D01*
X124065335Y-92186765D01*
X123966790Y-92334246D01*
X123966783Y-92334259D01*
X123898906Y-92498132D01*
X123898903Y-92498141D01*
X123864300Y-92672104D01*
X122866300Y-92672104D01*
X122866300Y-92647609D01*
X122866449Y-92641526D01*
X122868255Y-92604754D01*
X122868703Y-92598684D01*
X122870198Y-92583500D01*
X121753500Y-92583500D01*
X121753500Y-93424628D01*
X118758939Y-93424628D01*
X118629051Y-93370827D01*
X118629043Y-93370825D01*
X118445420Y-93334300D01*
X118445416Y-93334300D01*
X118258184Y-93334300D01*
X118258179Y-93334300D01*
X118074556Y-93370825D01*
X118074548Y-93370827D01*
X117901571Y-93442476D01*
X117901562Y-93442481D01*
X117745892Y-93546497D01*
X117745888Y-93546500D01*
X117613500Y-93678888D01*
X117613497Y-93678892D01*
X117509481Y-93834562D01*
X117509476Y-93834571D01*
X117437827Y-94007548D01*
X117437825Y-94007556D01*
X117401300Y-94191179D01*
X117401300Y-94378420D01*
X117437825Y-94562043D01*
X117437827Y-94562051D01*
X117509476Y-94735028D01*
X117509481Y-94735037D01*
X117601109Y-94872167D01*
X117621987Y-94938845D01*
X117603503Y-95006225D01*
X117551524Y-95052915D01*
X117545461Y-95055619D01*
X117531053Y-95061587D01*
X117531046Y-95061590D01*
X117383565Y-95160135D01*
X117383561Y-95160138D01*
X117258138Y-95285561D01*
X117258135Y-95285565D01*
X117159590Y-95433046D01*
X117159583Y-95433059D01*
X117091706Y-95596932D01*
X117091703Y-95596941D01*
X117057100Y-95770904D01*
X115755500Y-95770904D01*
X115755500Y-95083500D01*
X114253500Y-95083500D01*
X114253500Y-95329091D01*
X112540871Y-95329091D01*
X112560529Y-95319794D01*
X112566090Y-95317329D01*
X112775236Y-95230699D01*
X112780913Y-95228509D01*
X112815565Y-95216110D01*
X112821340Y-95214202D01*
X112868233Y-95199975D01*
X112874101Y-95198351D01*
X112909836Y-95189399D01*
X112915777Y-95188065D01*
X113137828Y-95143896D01*
X113143825Y-95142855D01*
X113180256Y-95137451D01*
X113186297Y-95136706D01*
X113235069Y-95131903D01*
X113241139Y-95131455D01*
X113255500Y-95130749D01*
X113255500Y-95083500D01*
X111753500Y-95083500D01*
X111753500Y-96070923D01*
X110755500Y-96070923D01*
X110755500Y-95083500D01*
X109253500Y-95083500D01*
X109253500Y-96585500D01*
X108255500Y-96585500D01*
X108255500Y-95083500D01*
X106753500Y-95083500D01*
X106753500Y-96585500D01*
X105755500Y-96585500D01*
X105755500Y-95083500D01*
X105003500Y-95083500D01*
X105003500Y-96585500D01*
X104005500Y-96585500D01*
X104005500Y-94085500D01*
X105003500Y-94085500D01*
X105755500Y-94085500D01*
X106753500Y-94085500D01*
X108255500Y-94085500D01*
X109253500Y-94085500D01*
X110755500Y-94085500D01*
X111753500Y-94085500D01*
X113255500Y-94085500D01*
X114253500Y-94085500D01*
X115755500Y-94085500D01*
X115755500Y-92583500D01*
X114253500Y-92583500D01*
X114253500Y-94085500D01*
X113255500Y-94085500D01*
X113255500Y-92583500D01*
X111753500Y-92583500D01*
X111753500Y-94085500D01*
X110755500Y-94085500D01*
X110755500Y-92583500D01*
X109253500Y-92583500D01*
X109253500Y-94085500D01*
X108255500Y-94085500D01*
X108255500Y-92583500D01*
X106753500Y-92583500D01*
X106753500Y-94085500D01*
X105755500Y-94085500D01*
X105755500Y-92583500D01*
X105003500Y-92583500D01*
X105003500Y-94085500D01*
X104005500Y-94085500D01*
X104005500Y-91585500D01*
X105003500Y-91585500D01*
X105755500Y-91585500D01*
X106753500Y-91585500D01*
X108255500Y-91585500D01*
X109253500Y-91585500D01*
X110755500Y-91585500D01*
X111753500Y-91585500D01*
X113255500Y-91585500D01*
X114253500Y-91585500D01*
X115755500Y-91585500D01*
X116753500Y-91585500D01*
X117392568Y-91585500D01*
X117379499Y-91553949D01*
X117377309Y-91548272D01*
X117364910Y-91513620D01*
X117363002Y-91507845D01*
X117348775Y-91460952D01*
X117347151Y-91455084D01*
X117338199Y-91419349D01*
X117336865Y-91413408D01*
X117292696Y-91191357D01*
X117291655Y-91185360D01*
X117286251Y-91148929D01*
X117285506Y-91142888D01*
X117280703Y-91094116D01*
X117280255Y-91088046D01*
X117278449Y-91051274D01*
X117278300Y-91045191D01*
X117278300Y-90843304D01*
X118276300Y-90843304D01*
X118276300Y-91020695D01*
X118310903Y-91194658D01*
X118310906Y-91194667D01*
X118378783Y-91358540D01*
X118378790Y-91358553D01*
X118477335Y-91506034D01*
X118477338Y-91506038D01*
X118602761Y-91631461D01*
X118602765Y-91631464D01*
X118750246Y-91730009D01*
X118750259Y-91730016D01*
X118828375Y-91762372D01*
X118914134Y-91797894D01*
X118914142Y-91797895D01*
X118917489Y-91798911D01*
X118919033Y-91799923D01*
X118919762Y-91800225D01*
X118919704Y-91800363D01*
X118975926Y-91837210D01*
X119003107Y-91893379D01*
X119035904Y-92058259D01*
X119035906Y-92058267D01*
X119103783Y-92222140D01*
X119103790Y-92222153D01*
X119202335Y-92369634D01*
X119202338Y-92369638D01*
X119327761Y-92495061D01*
X119327765Y-92495064D01*
X119475246Y-92593609D01*
X119475259Y-92593616D01*
X119580432Y-92637179D01*
X119639134Y-92661494D01*
X119639136Y-92661494D01*
X119639141Y-92661496D01*
X119813104Y-92696099D01*
X119813107Y-92696100D01*
X119813109Y-92696100D01*
X119990493Y-92696100D01*
X119990494Y-92696099D01*
X120048482Y-92684564D01*
X120164458Y-92661496D01*
X120164461Y-92661494D01*
X120164466Y-92661494D01*
X120304335Y-92603558D01*
X120328340Y-92593616D01*
X120328340Y-92593615D01*
X120328347Y-92593613D01*
X120475835Y-92495064D01*
X120601264Y-92369635D01*
X120699813Y-92222147D01*
X120700591Y-92220270D01*
X120713421Y-92189293D01*
X120767694Y-92058266D01*
X120767694Y-92058261D01*
X120767696Y-92058258D01*
X120796967Y-91911100D01*
X120802300Y-91884291D01*
X120802300Y-91706909D01*
X120802300Y-91706906D01*
X120802299Y-91706904D01*
X120767696Y-91532941D01*
X120767693Y-91532932D01*
X120757395Y-91508071D01*
X120750723Y-91491963D01*
X120701588Y-91373338D01*
X121753500Y-91373338D01*
X121785904Y-91536243D01*
X121786945Y-91542240D01*
X121792349Y-91578671D01*
X121793094Y-91584712D01*
X121793172Y-91585500D01*
X123255500Y-91585500D01*
X123255500Y-91099228D01*
X126753500Y-91099228D01*
X126753500Y-91585500D01*
X128255500Y-91585500D01*
X128255500Y-91198300D01*
X129253500Y-91198300D01*
X129253500Y-91585500D01*
X130755500Y-91585500D01*
X131753500Y-91585500D01*
X132570242Y-91585500D01*
X132571055Y-91568954D01*
X132571503Y-91562884D01*
X132576306Y-91514112D01*
X132577051Y-91508071D01*
X132582455Y-91471640D01*
X132583496Y-91465643D01*
X132627665Y-91243592D01*
X132628999Y-91237651D01*
X132637951Y-91201916D01*
X132639575Y-91196048D01*
X132653802Y-91149155D01*
X132655710Y-91143380D01*
X132668109Y-91108728D01*
X132670299Y-91103051D01*
X132756929Y-90893905D01*
X132759394Y-90888344D01*
X132775134Y-90855062D01*
X132777871Y-90849623D01*
X132800973Y-90806401D01*
X132803973Y-90801106D01*
X132822909Y-90769512D01*
X132826166Y-90764368D01*
X132867945Y-90701842D01*
X136753500Y-90701842D01*
X136753500Y-91585500D01*
X138255500Y-91585500D01*
X139253500Y-91585500D01*
X139514616Y-91585500D01*
X139518587Y-91580896D01*
X139543318Y-91553609D01*
X139547516Y-91549200D01*
X139707600Y-91389116D01*
X139712009Y-91384918D01*
X139739296Y-91360187D01*
X139743903Y-91356213D01*
X139781785Y-91325124D01*
X139786583Y-91321379D01*
X139816155Y-91299447D01*
X139821131Y-91295943D01*
X140009368Y-91170166D01*
X140014512Y-91166909D01*
X140046106Y-91147973D01*
X140051401Y-91144973D01*
X140094623Y-91121871D01*
X140100062Y-91119134D01*
X140133344Y-91103394D01*
X140138905Y-91100929D01*
X140348051Y-91014299D01*
X140353728Y-91012109D01*
X140388380Y-90999710D01*
X140394155Y-90997802D01*
X140441048Y-90983575D01*
X140446916Y-90981951D01*
X140482651Y-90972999D01*
X140488592Y-90971665D01*
X140710643Y-90927496D01*
X140716640Y-90926455D01*
X140753071Y-90921051D01*
X140755500Y-90920751D01*
X140755500Y-90083500D01*
X139253500Y-90083500D01*
X139253500Y-91585500D01*
X138255500Y-91585500D01*
X138255500Y-90580683D01*
X138238577Y-90589729D01*
X138233138Y-90592466D01*
X138199856Y-90608206D01*
X138194295Y-90610671D01*
X137985149Y-90697301D01*
X137979472Y-90699491D01*
X137944820Y-90711890D01*
X137939045Y-90713798D01*
X137892152Y-90728025D01*
X137886284Y-90729649D01*
X137850549Y-90738601D01*
X137844608Y-90739935D01*
X137622557Y-90784104D01*
X137616560Y-90785145D01*
X137580129Y-90790549D01*
X137574088Y-90791294D01*
X137525316Y-90796097D01*
X137519246Y-90796545D01*
X137482474Y-90798351D01*
X137476391Y-90798500D01*
X137250009Y-90798500D01*
X137243926Y-90798351D01*
X137207154Y-90796545D01*
X137201084Y-90796097D01*
X137152312Y-90791294D01*
X137146271Y-90790549D01*
X137109840Y-90785145D01*
X137103843Y-90784104D01*
X136881792Y-90739935D01*
X136875851Y-90738601D01*
X136840116Y-90729649D01*
X136834248Y-90728025D01*
X136787355Y-90713798D01*
X136781580Y-90711890D01*
X136753500Y-90701842D01*
X132867945Y-90701842D01*
X132951943Y-90576131D01*
X132955447Y-90571155D01*
X132977379Y-90541583D01*
X132981124Y-90536785D01*
X133012213Y-90498903D01*
X133016187Y-90494296D01*
X133040918Y-90467009D01*
X133045116Y-90462600D01*
X133205200Y-90302516D01*
X133209609Y-90298318D01*
X133236896Y-90273587D01*
X133241503Y-90269613D01*
X133255500Y-90258125D01*
X133255500Y-90083500D01*
X131753500Y-90083500D01*
X131753500Y-91585500D01*
X130755500Y-91585500D01*
X130755500Y-90603184D01*
X130636200Y-90722484D01*
X130631791Y-90726682D01*
X130604504Y-90751413D01*
X130599897Y-90755387D01*
X130562015Y-90786476D01*
X130557217Y-90790221D01*
X130527645Y-90812153D01*
X130522669Y-90815657D01*
X130334432Y-90941434D01*
X130329288Y-90944691D01*
X130297694Y-90963627D01*
X130292399Y-90966627D01*
X130249177Y-90989729D01*
X130243738Y-90992466D01*
X130210456Y-91008206D01*
X130204895Y-91010671D01*
X129995749Y-91097301D01*
X129990072Y-91099491D01*
X129955420Y-91111890D01*
X129949645Y-91113798D01*
X129902752Y-91128025D01*
X129896884Y-91129649D01*
X129861149Y-91138601D01*
X129855208Y-91139935D01*
X129633157Y-91184104D01*
X129627160Y-91185145D01*
X129590729Y-91190549D01*
X129584688Y-91191294D01*
X129535916Y-91196097D01*
X129529846Y-91196545D01*
X129493074Y-91198351D01*
X129486991Y-91198500D01*
X129260609Y-91198500D01*
X129254526Y-91198351D01*
X129253500Y-91198300D01*
X128255500Y-91198300D01*
X128255500Y-90836082D01*
X128224931Y-90815657D01*
X128219955Y-90812153D01*
X128190383Y-90790221D01*
X128185585Y-90786476D01*
X128147703Y-90755387D01*
X128143096Y-90751413D01*
X128115809Y-90726682D01*
X128111400Y-90722484D01*
X127951316Y-90562400D01*
X127947118Y-90557991D01*
X127922387Y-90530704D01*
X127918413Y-90526097D01*
X127887324Y-90488215D01*
X127883579Y-90483417D01*
X127861647Y-90453845D01*
X127858143Y-90448869D01*
X127732366Y-90260632D01*
X127729109Y-90255488D01*
X127710173Y-90223894D01*
X127707173Y-90218599D01*
X127684071Y-90175377D01*
X127681334Y-90169938D01*
X127665594Y-90136656D01*
X127663129Y-90131095D01*
X127643415Y-90083500D01*
X127483114Y-90083500D01*
X127462924Y-90210976D01*
X127458382Y-90229896D01*
X127400014Y-90409535D01*
X127392568Y-90427512D01*
X127306816Y-90595809D01*
X127296649Y-90612399D01*
X127185626Y-90765210D01*
X127172989Y-90780006D01*
X127039428Y-90913567D01*
X127024632Y-90926204D01*
X126871821Y-91037227D01*
X126855231Y-91047394D01*
X126753500Y-91099228D01*
X123255500Y-91099228D01*
X123255500Y-90928198D01*
X124253500Y-90928198D01*
X124277451Y-90922199D01*
X124283392Y-90920865D01*
X124505443Y-90876696D01*
X124511440Y-90875655D01*
X124547871Y-90870251D01*
X124553912Y-90869506D01*
X124602684Y-90864703D01*
X124608754Y-90864255D01*
X124645526Y-90862449D01*
X124651609Y-90862300D01*
X124877991Y-90862300D01*
X124884074Y-90862449D01*
X124920846Y-90864255D01*
X124926916Y-90864703D01*
X124975688Y-90869506D01*
X124981729Y-90870251D01*
X125018160Y-90875655D01*
X125024157Y-90876696D01*
X125246208Y-90920865D01*
X125252149Y-90922199D01*
X125287884Y-90931151D01*
X125293752Y-90932775D01*
X125340645Y-90947002D01*
X125346420Y-90948910D01*
X125346810Y-90949049D01*
X125315366Y-90926204D01*
X125300570Y-90913567D01*
X125167009Y-90780006D01*
X125154372Y-90765210D01*
X125043349Y-90612399D01*
X125033182Y-90595809D01*
X124947430Y-90427512D01*
X124939984Y-90409535D01*
X124881616Y-90229896D01*
X124877074Y-90210976D01*
X124856884Y-90083500D01*
X124253500Y-90083500D01*
X124253500Y-90928198D01*
X123255500Y-90928198D01*
X123255500Y-90083500D01*
X121753500Y-90083500D01*
X121753500Y-91373338D01*
X120701588Y-91373338D01*
X120699816Y-91369059D01*
X120699809Y-91369046D01*
X120601264Y-91221565D01*
X120601261Y-91221561D01*
X120475838Y-91096138D01*
X120475834Y-91096135D01*
X120328353Y-90997590D01*
X120328340Y-90997583D01*
X120164463Y-90929704D01*
X120161106Y-90928686D01*
X120159563Y-90927675D01*
X120158839Y-90927375D01*
X120158895Y-90927237D01*
X120102670Y-90890385D01*
X120075492Y-90834219D01*
X120042696Y-90669341D01*
X120042693Y-90669332D01*
X119974816Y-90505459D01*
X119974809Y-90505446D01*
X119876264Y-90357965D01*
X119876261Y-90357961D01*
X119750838Y-90232538D01*
X119750834Y-90232535D01*
X119603353Y-90133990D01*
X119603340Y-90133983D01*
X119439467Y-90066106D01*
X119439458Y-90066103D01*
X119265494Y-90031500D01*
X119265491Y-90031500D01*
X119088109Y-90031500D01*
X119088106Y-90031500D01*
X118914141Y-90066103D01*
X118914132Y-90066106D01*
X118750259Y-90133983D01*
X118750246Y-90133990D01*
X118602765Y-90232535D01*
X118602761Y-90232538D01*
X118477338Y-90357961D01*
X118477335Y-90357965D01*
X118378790Y-90505446D01*
X118378783Y-90505459D01*
X118310906Y-90669332D01*
X118310903Y-90669341D01*
X118276300Y-90843304D01*
X117278300Y-90843304D01*
X117278300Y-90818809D01*
X117278449Y-90812726D01*
X117280255Y-90775954D01*
X117280703Y-90769884D01*
X117285506Y-90721112D01*
X117286251Y-90715071D01*
X117291655Y-90678640D01*
X117292696Y-90672643D01*
X117336865Y-90450592D01*
X117338199Y-90444651D01*
X117347151Y-90408916D01*
X117348775Y-90403048D01*
X117363002Y-90356155D01*
X117364910Y-90350380D01*
X117377309Y-90315728D01*
X117379499Y-90310051D01*
X117466129Y-90100905D01*
X117468594Y-90095344D01*
X117474195Y-90083500D01*
X116753500Y-90083500D01*
X116753500Y-91585500D01*
X115755500Y-91585500D01*
X115755500Y-90083500D01*
X114253500Y-90083500D01*
X114253500Y-91585500D01*
X113255500Y-91585500D01*
X113255500Y-90083500D01*
X111753500Y-90083500D01*
X111753500Y-91585500D01*
X110755500Y-91585500D01*
X110755500Y-90083500D01*
X109253500Y-90083500D01*
X109253500Y-91585500D01*
X108255500Y-91585500D01*
X108255500Y-90083500D01*
X106753500Y-90083500D01*
X106753500Y-91585500D01*
X105755500Y-91585500D01*
X105755500Y-90083500D01*
X105003500Y-90083500D01*
X105003500Y-91585500D01*
X104005500Y-91585500D01*
X104005500Y-89211304D01*
X128473300Y-89211304D01*
X128473300Y-89388695D01*
X128507903Y-89562658D01*
X128507906Y-89562667D01*
X128575783Y-89726540D01*
X128575790Y-89726553D01*
X128674335Y-89874034D01*
X128674338Y-89874038D01*
X128799761Y-89999461D01*
X128799765Y-89999464D01*
X128947246Y-90098009D01*
X128947259Y-90098016D01*
X129034110Y-90133990D01*
X129111134Y-90165894D01*
X129111136Y-90165894D01*
X129111141Y-90165896D01*
X129285104Y-90200499D01*
X129285107Y-90200500D01*
X129285109Y-90200500D01*
X129462493Y-90200500D01*
X129462494Y-90200499D01*
X129520482Y-90188964D01*
X129636458Y-90165896D01*
X129636461Y-90165894D01*
X129636466Y-90165894D01*
X129800347Y-90098013D01*
X129947835Y-89999464D01*
X130073264Y-89874035D01*
X130171813Y-89726547D01*
X130239694Y-89562666D01*
X130274300Y-89388691D01*
X130274300Y-89211309D01*
X130274300Y-89211306D01*
X130274299Y-89211304D01*
X130249275Y-89085500D01*
X131753500Y-89085500D01*
X133255500Y-89085500D01*
X134253500Y-89085500D01*
X134900921Y-89085500D01*
X134886773Y-89061894D01*
X134883773Y-89056599D01*
X134860671Y-89013377D01*
X134857934Y-89007938D01*
X134842194Y-88974656D01*
X134839729Y-88969095D01*
X134753099Y-88759949D01*
X134750909Y-88754272D01*
X134738510Y-88719620D01*
X134736602Y-88713845D01*
X134722375Y-88666952D01*
X134720751Y-88661084D01*
X134711799Y-88625349D01*
X134710465Y-88619408D01*
X134666296Y-88397357D01*
X134665255Y-88391360D01*
X134659851Y-88354929D01*
X134659106Y-88348888D01*
X134654303Y-88300116D01*
X134653855Y-88294046D01*
X134652049Y-88257274D01*
X134651900Y-88251191D01*
X134651900Y-88049304D01*
X135649900Y-88049304D01*
X135649900Y-88226695D01*
X135684503Y-88400658D01*
X135684506Y-88400667D01*
X135752383Y-88564540D01*
X135752390Y-88564553D01*
X135850935Y-88712034D01*
X135850938Y-88712038D01*
X135976361Y-88837461D01*
X135976365Y-88837464D01*
X136123846Y-88936009D01*
X136123859Y-88936016D01*
X136208764Y-88971184D01*
X136287734Y-89003894D01*
X136287736Y-89003894D01*
X136287741Y-89003896D01*
X136391794Y-89024593D01*
X136453705Y-89056977D01*
X136488279Y-89117693D01*
X136489220Y-89122018D01*
X136497304Y-89162659D01*
X136497306Y-89162667D01*
X136565183Y-89326540D01*
X136565190Y-89326553D01*
X136663735Y-89474034D01*
X136663738Y-89474038D01*
X136789161Y-89599461D01*
X136789165Y-89599464D01*
X136936646Y-89698009D01*
X136936659Y-89698016D01*
X137005555Y-89726553D01*
X137100534Y-89765894D01*
X137100536Y-89765894D01*
X137100541Y-89765896D01*
X137274504Y-89800499D01*
X137274507Y-89800500D01*
X137274509Y-89800500D01*
X137451893Y-89800500D01*
X137451894Y-89800499D01*
X137509882Y-89788964D01*
X137625858Y-89765896D01*
X137625861Y-89765894D01*
X137625866Y-89765894D01*
X137789747Y-89698013D01*
X137937235Y-89599464D01*
X138062664Y-89474035D01*
X138161213Y-89326547D01*
X138229094Y-89162666D01*
X138229094Y-89162661D01*
X138229096Y-89162658D01*
X138253266Y-89041148D01*
X138263700Y-88988691D01*
X138263700Y-88811309D01*
X138263700Y-88811306D01*
X138263699Y-88811304D01*
X138229096Y-88637341D01*
X138229093Y-88637332D01*
X138161216Y-88473459D01*
X138161209Y-88473446D01*
X138062664Y-88325965D01*
X138062661Y-88325961D01*
X137937238Y-88200538D01*
X137937234Y-88200535D01*
X137789753Y-88101990D01*
X137789740Y-88101983D01*
X137662559Y-88049304D01*
X138864100Y-88049304D01*
X138864100Y-88226695D01*
X138898703Y-88400658D01*
X138898706Y-88400667D01*
X138966583Y-88564540D01*
X138966590Y-88564553D01*
X139065135Y-88712034D01*
X139065138Y-88712038D01*
X139190561Y-88837461D01*
X139190565Y-88837464D01*
X139338046Y-88936009D01*
X139338059Y-88936016D01*
X139422964Y-88971184D01*
X139501934Y-89003894D01*
X139501936Y-89003894D01*
X139501941Y-89003896D01*
X139675904Y-89038499D01*
X139675907Y-89038500D01*
X139675909Y-89038500D01*
X139853293Y-89038500D01*
X139853294Y-89038499D01*
X139923206Y-89024593D01*
X140027258Y-89003896D01*
X140027261Y-89003894D01*
X140027266Y-89003894D01*
X140191147Y-88936013D01*
X140338635Y-88837464D01*
X140464064Y-88712035D01*
X140562613Y-88564547D01*
X140566720Y-88554633D01*
X140588526Y-88501987D01*
X140630494Y-88400666D01*
X140631153Y-88397357D01*
X140659017Y-88257274D01*
X140665100Y-88226691D01*
X140665100Y-88049309D01*
X140665100Y-88049306D01*
X140665099Y-88049304D01*
X140643314Y-87939783D01*
X141753500Y-87939783D01*
X141753500Y-89085500D01*
X142074665Y-89085500D01*
X142160243Y-88971184D01*
X142165796Y-88964293D01*
X142200876Y-88923808D01*
X142206908Y-88917329D01*
X142257329Y-88866908D01*
X142263808Y-88860876D01*
X142304293Y-88825796D01*
X142311184Y-88820243D01*
X142483368Y-88691345D01*
X142490638Y-88686297D01*
X142535705Y-88657333D01*
X142543319Y-88652815D01*
X142605909Y-88618638D01*
X142613823Y-88614677D01*
X142662559Y-88592419D01*
X142670739Y-88589030D01*
X142868096Y-88515421D01*
X142875436Y-88512942D01*
X142920305Y-88499332D01*
X142927788Y-88497315D01*
X142988499Y-88482972D01*
X142996084Y-88481428D01*
X143042262Y-88473522D01*
X143049931Y-88472455D01*
X143153783Y-88461289D01*
X143157095Y-88460977D01*
X143177144Y-88459364D01*
X143180458Y-88459142D01*
X143207145Y-88457713D01*
X143210461Y-88457580D01*
X143230509Y-88457044D01*
X143233823Y-88457000D01*
X143255500Y-88457000D01*
X143255500Y-88061958D01*
X143018407Y-88024406D01*
X143013619Y-88023551D01*
X142984756Y-88017811D01*
X142980004Y-88016769D01*
X142941887Y-88007621D01*
X142937171Y-88006391D01*
X142908794Y-87998389D01*
X142904130Y-87996974D01*
X142766498Y-87952255D01*
X144253500Y-87952255D01*
X144253500Y-88457000D01*
X145056177Y-88457000D01*
X145059491Y-88457044D01*
X145079539Y-88457580D01*
X145082855Y-88457713D01*
X145109542Y-88459142D01*
X145112856Y-88459364D01*
X145132905Y-88460977D01*
X145136217Y-88461289D01*
X145186500Y-88466695D01*
X145186500Y-87583500D01*
X144946649Y-87583500D01*
X144788308Y-87698542D01*
X144784313Y-87701326D01*
X144759815Y-87717695D01*
X144755713Y-87720321D01*
X144722289Y-87740803D01*
X144718089Y-87743264D01*
X144692394Y-87757654D01*
X144688100Y-87759950D01*
X144463845Y-87874215D01*
X144459463Y-87876340D01*
X144432719Y-87888669D01*
X144428261Y-87890619D01*
X144392045Y-87905621D01*
X144387509Y-87907396D01*
X144359864Y-87917595D01*
X144355263Y-87919191D01*
X144253500Y-87952255D01*
X142766498Y-87952255D01*
X142664737Y-87919191D01*
X142660136Y-87917595D01*
X142632491Y-87907396D01*
X142627955Y-87905621D01*
X142591739Y-87890619D01*
X142587281Y-87888669D01*
X142560537Y-87876340D01*
X142556154Y-87874214D01*
X142331890Y-87759944D01*
X142327595Y-87757648D01*
X142301883Y-87743248D01*
X142297681Y-87740785D01*
X142264260Y-87720303D01*
X142260159Y-87717678D01*
X142240452Y-87704509D01*
X142220073Y-87718126D01*
X142215973Y-87720750D01*
X142182550Y-87741231D01*
X142178350Y-87743693D01*
X142152654Y-87758083D01*
X142148361Y-87760378D01*
X141924019Y-87874686D01*
X141919636Y-87876811D01*
X141892861Y-87889154D01*
X141888392Y-87891109D01*
X141852175Y-87906107D01*
X141847647Y-87907879D01*
X141820037Y-87918064D01*
X141815440Y-87919658D01*
X141753500Y-87939783D01*
X140643314Y-87939783D01*
X140630496Y-87875341D01*
X140630493Y-87875333D01*
X140583187Y-87761123D01*
X140562616Y-87711459D01*
X140562609Y-87711446D01*
X140464064Y-87563965D01*
X140464061Y-87563961D01*
X140338638Y-87438538D01*
X140338634Y-87438535D01*
X140191153Y-87339990D01*
X140191140Y-87339983D01*
X140027267Y-87272106D01*
X140027258Y-87272103D01*
X139853294Y-87237500D01*
X139853291Y-87237500D01*
X139675909Y-87237500D01*
X139675906Y-87237500D01*
X139501941Y-87272103D01*
X139501932Y-87272106D01*
X139338059Y-87339983D01*
X139338046Y-87339990D01*
X139190565Y-87438535D01*
X139190561Y-87438538D01*
X139065138Y-87563961D01*
X139065135Y-87563965D01*
X138966590Y-87711446D01*
X138966583Y-87711459D01*
X138898706Y-87875332D01*
X138898703Y-87875341D01*
X138864100Y-88049304D01*
X137662559Y-88049304D01*
X137625867Y-88034106D01*
X137625859Y-88034104D01*
X137521804Y-88013406D01*
X137459893Y-87981021D01*
X137425319Y-87920305D01*
X137424386Y-87916018D01*
X137416294Y-87875334D01*
X137368987Y-87761123D01*
X137348416Y-87711459D01*
X137348409Y-87711446D01*
X137249864Y-87563965D01*
X137249861Y-87563961D01*
X137124438Y-87438538D01*
X137124434Y-87438535D01*
X136976953Y-87339990D01*
X136976940Y-87339983D01*
X136813067Y-87272106D01*
X136813058Y-87272103D01*
X136639094Y-87237500D01*
X136639091Y-87237500D01*
X136461709Y-87237500D01*
X136461706Y-87237500D01*
X136287741Y-87272103D01*
X136287732Y-87272106D01*
X136123859Y-87339983D01*
X136123846Y-87339990D01*
X135976365Y-87438535D01*
X135976361Y-87438538D01*
X135850938Y-87563961D01*
X135850935Y-87563965D01*
X135752390Y-87711446D01*
X135752383Y-87711459D01*
X135684506Y-87875332D01*
X135684503Y-87875341D01*
X135649900Y-88049304D01*
X134651900Y-88049304D01*
X134651900Y-88024809D01*
X134652049Y-88018726D01*
X134653855Y-87981954D01*
X134654303Y-87975884D01*
X134659106Y-87927112D01*
X134659851Y-87921071D01*
X134665255Y-87884640D01*
X134666296Y-87878643D01*
X134710465Y-87656592D01*
X134711799Y-87650651D01*
X134720751Y-87614916D01*
X134722375Y-87609048D01*
X134730126Y-87583500D01*
X134253500Y-87583500D01*
X134253500Y-89085500D01*
X133255500Y-89085500D01*
X133255500Y-87583500D01*
X131753500Y-87583500D01*
X131753500Y-89085500D01*
X130249275Y-89085500D01*
X130239696Y-89037341D01*
X130239693Y-89037332D01*
X130238167Y-89033649D01*
X130197726Y-88936013D01*
X130171816Y-88873459D01*
X130171809Y-88873446D01*
X130073264Y-88725965D01*
X130073261Y-88725961D01*
X129947838Y-88600538D01*
X129947834Y-88600535D01*
X129800353Y-88501990D01*
X129800340Y-88501983D01*
X129636467Y-88434106D01*
X129636458Y-88434103D01*
X129462494Y-88399500D01*
X129462491Y-88399500D01*
X129285109Y-88399500D01*
X129285106Y-88399500D01*
X129111141Y-88434103D01*
X129111132Y-88434106D01*
X128947259Y-88501983D01*
X128947246Y-88501990D01*
X128799765Y-88600535D01*
X128799761Y-88600538D01*
X128674338Y-88725961D01*
X128674335Y-88725965D01*
X128575790Y-88873446D01*
X128575783Y-88873459D01*
X128507906Y-89037332D01*
X128507903Y-89037341D01*
X128473300Y-89211304D01*
X104005500Y-89211304D01*
X104005500Y-89085500D01*
X105003500Y-89085500D01*
X105755500Y-89085500D01*
X106753500Y-89085500D01*
X108255500Y-89085500D01*
X109253500Y-89085500D01*
X110755500Y-89085500D01*
X110755500Y-89033500D01*
X119253500Y-89033500D01*
X119289991Y-89033500D01*
X119296074Y-89033649D01*
X119332846Y-89035455D01*
X119338916Y-89035903D01*
X119387688Y-89040706D01*
X119393729Y-89041451D01*
X119430160Y-89046855D01*
X119436157Y-89047896D01*
X119625204Y-89085500D01*
X120755500Y-89085500D01*
X121753500Y-89085500D01*
X123255500Y-89085500D01*
X123255500Y-88993075D01*
X123175964Y-88993075D01*
X123169881Y-88992926D01*
X123133109Y-88991120D01*
X123127039Y-88990672D01*
X123078267Y-88985869D01*
X123072226Y-88985124D01*
X123035795Y-88979720D01*
X123029798Y-88978679D01*
X122807747Y-88934510D01*
X122801806Y-88933176D01*
X122766071Y-88924224D01*
X122760203Y-88922600D01*
X122713310Y-88908373D01*
X122707535Y-88906465D01*
X122672883Y-88894066D01*
X122667206Y-88891876D01*
X122458060Y-88805246D01*
X122452499Y-88802781D01*
X122419217Y-88787041D01*
X122413778Y-88784304D01*
X122370556Y-88761202D01*
X122365261Y-88758202D01*
X122333667Y-88739266D01*
X122328523Y-88736009D01*
X122324810Y-88733528D01*
X124253500Y-88733528D01*
X124253500Y-89085500D01*
X125132898Y-89085500D01*
X125154372Y-89055944D01*
X125167009Y-89041148D01*
X125300570Y-88907587D01*
X125315366Y-88894950D01*
X125468177Y-88783927D01*
X125484767Y-88773760D01*
X125546844Y-88742129D01*
X125510367Y-88715627D01*
X125495571Y-88702990D01*
X125362010Y-88569429D01*
X125349373Y-88554633D01*
X125238350Y-88401822D01*
X125228183Y-88385232D01*
X125142431Y-88216935D01*
X125134985Y-88198958D01*
X125076617Y-88019319D01*
X125072075Y-88000399D01*
X125043528Y-87820161D01*
X124999826Y-87925670D01*
X124997361Y-87931231D01*
X124981621Y-87964513D01*
X124978884Y-87969952D01*
X124955782Y-88013174D01*
X124952782Y-88018469D01*
X124933846Y-88050063D01*
X124930589Y-88055207D01*
X124804812Y-88243444D01*
X124801308Y-88248420D01*
X124779376Y-88277992D01*
X124775631Y-88282790D01*
X124744542Y-88320672D01*
X124740568Y-88325279D01*
X124715837Y-88352566D01*
X124711639Y-88356975D01*
X124551555Y-88517059D01*
X124547146Y-88521257D01*
X124519859Y-88545988D01*
X124515252Y-88549962D01*
X124477370Y-88581051D01*
X124472572Y-88584796D01*
X124443000Y-88606728D01*
X124438024Y-88610232D01*
X124253500Y-88733528D01*
X122324810Y-88733528D01*
X122140286Y-88610232D01*
X122135310Y-88606728D01*
X122105738Y-88584796D01*
X122100940Y-88581051D01*
X122063058Y-88549962D01*
X122058451Y-88545988D01*
X122031164Y-88521257D01*
X122026755Y-88517059D01*
X121866671Y-88356975D01*
X121862473Y-88352566D01*
X121837742Y-88325279D01*
X121833768Y-88320672D01*
X121802679Y-88282790D01*
X121798934Y-88277992D01*
X121777002Y-88248420D01*
X121773498Y-88243444D01*
X121753500Y-88213515D01*
X121753500Y-89085500D01*
X120755500Y-89085500D01*
X120755500Y-87583500D01*
X119253500Y-87583500D01*
X119253500Y-89033500D01*
X110755500Y-89033500D01*
X110755500Y-87583500D01*
X109253500Y-87583500D01*
X109253500Y-89085500D01*
X108255500Y-89085500D01*
X108255500Y-87583500D01*
X106753500Y-87583500D01*
X106753500Y-89085500D01*
X105755500Y-89085500D01*
X105755500Y-87583500D01*
X105003500Y-87583500D01*
X105003500Y-89085500D01*
X104005500Y-89085500D01*
X104005500Y-86875979D01*
X111876300Y-86875979D01*
X111876300Y-87063220D01*
X111912825Y-87246843D01*
X111912827Y-87246851D01*
X111984476Y-87419828D01*
X111984481Y-87419837D01*
X112088497Y-87575507D01*
X112088500Y-87575511D01*
X112220888Y-87707899D01*
X112220892Y-87707902D01*
X112376562Y-87811918D01*
X112376571Y-87811923D01*
X112415756Y-87828154D01*
X112549549Y-87883573D01*
X112722948Y-87918064D01*
X112733179Y-87920099D01*
X112733183Y-87920100D01*
X112733184Y-87920100D01*
X112920417Y-87920100D01*
X112920418Y-87920099D01*
X113104051Y-87883573D01*
X113277031Y-87811922D01*
X113432708Y-87707902D01*
X113565102Y-87575508D01*
X113669122Y-87419831D01*
X113740773Y-87246851D01*
X113777300Y-87063216D01*
X113777300Y-86875984D01*
X113767194Y-86825179D01*
X115787900Y-86825179D01*
X115787900Y-87012420D01*
X115824425Y-87196043D01*
X115824427Y-87196051D01*
X115896076Y-87369028D01*
X115896081Y-87369037D01*
X116000097Y-87524707D01*
X116000100Y-87524711D01*
X116132488Y-87657099D01*
X116132492Y-87657102D01*
X116288162Y-87761118D01*
X116288168Y-87761121D01*
X116288169Y-87761122D01*
X116461149Y-87832773D01*
X116644779Y-87869299D01*
X116644783Y-87869300D01*
X116644784Y-87869300D01*
X116832017Y-87869300D01*
X116832018Y-87869299D01*
X117015651Y-87832773D01*
X117188631Y-87761122D01*
X117344308Y-87657102D01*
X117476702Y-87524708D01*
X117580722Y-87369031D01*
X117652373Y-87196051D01*
X117688900Y-87012416D01*
X117688900Y-87005879D01*
X122388655Y-87005879D01*
X122388655Y-87183270D01*
X122423258Y-87357233D01*
X122423261Y-87357242D01*
X122491138Y-87521115D01*
X122491145Y-87521128D01*
X122589690Y-87668609D01*
X122589693Y-87668613D01*
X122715116Y-87794036D01*
X122715120Y-87794039D01*
X122862601Y-87892584D01*
X122862614Y-87892591D01*
X122945957Y-87927112D01*
X123026489Y-87960469D01*
X123026491Y-87960469D01*
X123026496Y-87960471D01*
X123200459Y-87995074D01*
X123200462Y-87995075D01*
X123200464Y-87995075D01*
X123377848Y-87995075D01*
X123377849Y-87995074D01*
X123448500Y-87981021D01*
X123551813Y-87960471D01*
X123551816Y-87960469D01*
X123551821Y-87960469D01*
X123715702Y-87892588D01*
X123863190Y-87794039D01*
X123988619Y-87668610D01*
X124087168Y-87521122D01*
X124155049Y-87357241D01*
X124158481Y-87339990D01*
X124189654Y-87183270D01*
X124189655Y-87183268D01*
X124189655Y-87005881D01*
X124189654Y-87005879D01*
X124155051Y-86831916D01*
X124155048Y-86831907D01*
X124116171Y-86738048D01*
X124108702Y-86668579D01*
X124125529Y-86626904D01*
X127623500Y-86626904D01*
X127623500Y-86804295D01*
X127658103Y-86978258D01*
X127658106Y-86978267D01*
X127725983Y-87142140D01*
X127725990Y-87142153D01*
X127824535Y-87289634D01*
X127824538Y-87289638D01*
X127949961Y-87415061D01*
X127949965Y-87415064D01*
X128097446Y-87513609D01*
X128097459Y-87513616D01*
X128219005Y-87563961D01*
X128261334Y-87581494D01*
X128261336Y-87581494D01*
X128261341Y-87581496D01*
X128435304Y-87616099D01*
X128435307Y-87616100D01*
X128435309Y-87616100D01*
X128612693Y-87616100D01*
X128612694Y-87616099D01*
X128670682Y-87604564D01*
X128786658Y-87581496D01*
X128786661Y-87581494D01*
X128786666Y-87581494D01*
X128932404Y-87521128D01*
X128950540Y-87513616D01*
X128950540Y-87513615D01*
X128950547Y-87513613D01*
X129098035Y-87415064D01*
X129223464Y-87289635D01*
X129322013Y-87142147D01*
X129389894Y-86978266D01*
X129399852Y-86928205D01*
X129432236Y-86866294D01*
X129492952Y-86831720D01*
X129562721Y-86835459D01*
X129590360Y-86849294D01*
X129672246Y-86904009D01*
X129672259Y-86904016D01*
X129730658Y-86928205D01*
X129836134Y-86971894D01*
X129836136Y-86971894D01*
X129836141Y-86971896D01*
X130010104Y-87006499D01*
X130010107Y-87006500D01*
X130010109Y-87006500D01*
X130187493Y-87006500D01*
X130187494Y-87006499D01*
X130245482Y-86994964D01*
X130361458Y-86971896D01*
X130361461Y-86971894D01*
X130361466Y-86971894D01*
X130525347Y-86904013D01*
X130672835Y-86805464D01*
X130798264Y-86680035D01*
X130896813Y-86532547D01*
X130899527Y-86525996D01*
X130928301Y-86456527D01*
X130964694Y-86368666D01*
X130965353Y-86365357D01*
X130988805Y-86247451D01*
X130999300Y-86194691D01*
X130999300Y-86017309D01*
X130999300Y-86017306D01*
X130999299Y-86017304D01*
X130964696Y-85843341D01*
X130964693Y-85843332D01*
X130962211Y-85837341D01*
X130921089Y-85738060D01*
X130896816Y-85679459D01*
X130896809Y-85679446D01*
X130798264Y-85531965D01*
X130798261Y-85531961D01*
X130672838Y-85406538D01*
X130672834Y-85406535D01*
X130525353Y-85307990D01*
X130525340Y-85307983D01*
X130361467Y-85240106D01*
X130361458Y-85240103D01*
X130187494Y-85205500D01*
X130187491Y-85205500D01*
X130010109Y-85205500D01*
X130010106Y-85205500D01*
X129836141Y-85240103D01*
X129836132Y-85240106D01*
X129672259Y-85307983D01*
X129672246Y-85307990D01*
X129524765Y-85406535D01*
X129524761Y-85406538D01*
X129399338Y-85531961D01*
X129399335Y-85531965D01*
X129300790Y-85679446D01*
X129300783Y-85679459D01*
X129232906Y-85843332D01*
X129232904Y-85843339D01*
X129222947Y-85893396D01*
X129190561Y-85955307D01*
X129129845Y-85989880D01*
X129060075Y-85986139D01*
X129032439Y-85972305D01*
X128950553Y-85917590D01*
X128950540Y-85917583D01*
X128786667Y-85849706D01*
X128786658Y-85849703D01*
X128612694Y-85815100D01*
X128612691Y-85815100D01*
X128435309Y-85815100D01*
X128435306Y-85815100D01*
X128261341Y-85849703D01*
X128261332Y-85849706D01*
X128097459Y-85917583D01*
X128097446Y-85917590D01*
X127949965Y-86016135D01*
X127949961Y-86016138D01*
X127824538Y-86141561D01*
X127824535Y-86141565D01*
X127725990Y-86289046D01*
X127725983Y-86289059D01*
X127658106Y-86452932D01*
X127658103Y-86452941D01*
X127623500Y-86626904D01*
X124125529Y-86626904D01*
X124127628Y-86621706D01*
X124191213Y-86526547D01*
X124259094Y-86362666D01*
X124266366Y-86326110D01*
X124292506Y-86194693D01*
X124293700Y-86188691D01*
X124293700Y-86011309D01*
X124293700Y-86011306D01*
X124293699Y-86011304D01*
X124259096Y-85837341D01*
X124259093Y-85837332D01*
X124249968Y-85815303D01*
X124224706Y-85754312D01*
X124191216Y-85673459D01*
X124191214Y-85673455D01*
X124191213Y-85673453D01*
X124181672Y-85659174D01*
X124166756Y-85636850D01*
X124145878Y-85570173D01*
X124164362Y-85502793D01*
X124216341Y-85456102D01*
X124285311Y-85444926D01*
X124338748Y-85464856D01*
X124439853Y-85532413D01*
X124439855Y-85532414D01*
X124439859Y-85532416D01*
X124561779Y-85582916D01*
X124603734Y-85600294D01*
X124603736Y-85600294D01*
X124603741Y-85600296D01*
X124777704Y-85634899D01*
X124777707Y-85634900D01*
X124777709Y-85634900D01*
X124955093Y-85634900D01*
X124955094Y-85634899D01*
X125036780Y-85618651D01*
X125129058Y-85600296D01*
X125129061Y-85600294D01*
X125129066Y-85600294D01*
X125292947Y-85532413D01*
X125440435Y-85433864D01*
X125565864Y-85308435D01*
X125660228Y-85167211D01*
X131753500Y-85167211D01*
X131762427Y-85182106D01*
X131765427Y-85187401D01*
X131788529Y-85230623D01*
X131791266Y-85236062D01*
X131807006Y-85269344D01*
X131809471Y-85274905D01*
X131896101Y-85484051D01*
X131898291Y-85489728D01*
X131910690Y-85524380D01*
X131912598Y-85530155D01*
X131926825Y-85577048D01*
X131928449Y-85582916D01*
X131937401Y-85618651D01*
X131938735Y-85624592D01*
X131982904Y-85846643D01*
X131983945Y-85852640D01*
X131989349Y-85889071D01*
X131990094Y-85895112D01*
X131994897Y-85943884D01*
X131995345Y-85949954D01*
X131997151Y-85986726D01*
X131997300Y-85992809D01*
X131997300Y-86219191D01*
X131997151Y-86225274D01*
X131995345Y-86262046D01*
X131994897Y-86268116D01*
X131990094Y-86316888D01*
X131989349Y-86322929D01*
X131983945Y-86359360D01*
X131982904Y-86365357D01*
X131939115Y-86585500D01*
X133255500Y-86585500D01*
X134253500Y-86585500D01*
X135456670Y-86585500D01*
X135589768Y-86496566D01*
X135594912Y-86493309D01*
X135626506Y-86474373D01*
X135631801Y-86471373D01*
X135675023Y-86448271D01*
X135680462Y-86445534D01*
X135713744Y-86429794D01*
X135719304Y-86427329D01*
X135755500Y-86412336D01*
X135755500Y-86245939D01*
X136753500Y-86245939D01*
X136761288Y-86246706D01*
X136767329Y-86247451D01*
X136803760Y-86252855D01*
X136809757Y-86253896D01*
X137031808Y-86298065D01*
X137037749Y-86299399D01*
X137073484Y-86308351D01*
X137079352Y-86309975D01*
X137126245Y-86324202D01*
X137132020Y-86326110D01*
X137166672Y-86338509D01*
X137172349Y-86340699D01*
X137381495Y-86427329D01*
X137387056Y-86429794D01*
X137420338Y-86445534D01*
X137425777Y-86448271D01*
X137468999Y-86471373D01*
X137474294Y-86474373D01*
X137505888Y-86493309D01*
X137511032Y-86496566D01*
X137644130Y-86585500D01*
X138255500Y-86585500D01*
X138255500Y-85083500D01*
X136753500Y-85083500D01*
X136753500Y-86245939D01*
X135755500Y-86245939D01*
X135755500Y-85083500D01*
X134253500Y-85083500D01*
X134253500Y-86585500D01*
X133255500Y-86585500D01*
X133255500Y-85083500D01*
X131753500Y-85083500D01*
X131753500Y-85167211D01*
X125660228Y-85167211D01*
X125664413Y-85160947D01*
X125732294Y-84997066D01*
X125736759Y-84974622D01*
X125766899Y-84823095D01*
X125766900Y-84823093D01*
X125766900Y-84645706D01*
X125766899Y-84645704D01*
X125732296Y-84471741D01*
X125732293Y-84471732D01*
X125664416Y-84307859D01*
X125664409Y-84307846D01*
X125565864Y-84160365D01*
X125565861Y-84160361D01*
X125440438Y-84034938D01*
X125440434Y-84034935D01*
X125292953Y-83936390D01*
X125292940Y-83936383D01*
X125129067Y-83868506D01*
X125129058Y-83868503D01*
X124955094Y-83833900D01*
X124955091Y-83833900D01*
X124777709Y-83833900D01*
X124777706Y-83833900D01*
X124603741Y-83868503D01*
X124603732Y-83868506D01*
X124439859Y-83936383D01*
X124439846Y-83936390D01*
X124292365Y-84034935D01*
X124292361Y-84034938D01*
X124166938Y-84160361D01*
X124166935Y-84160365D01*
X124068390Y-84307846D01*
X124068383Y-84307859D01*
X124000506Y-84471732D01*
X124000503Y-84471741D01*
X123965900Y-84645704D01*
X123965900Y-84823095D01*
X124000503Y-84997058D01*
X124000506Y-84997067D01*
X124068383Y-85160940D01*
X124068390Y-85160953D01*
X124092843Y-85197549D01*
X124113721Y-85264227D01*
X124095236Y-85331607D01*
X124043258Y-85378297D01*
X123974288Y-85389473D01*
X123920850Y-85369542D01*
X123819752Y-85301990D01*
X123819740Y-85301983D01*
X123655867Y-85234106D01*
X123655858Y-85234103D01*
X123481894Y-85199500D01*
X123481891Y-85199500D01*
X123304509Y-85199500D01*
X123304506Y-85199500D01*
X123130541Y-85234103D01*
X123130532Y-85234106D01*
X122966659Y-85301983D01*
X122966646Y-85301990D01*
X122819165Y-85400535D01*
X122819161Y-85400538D01*
X122693738Y-85525961D01*
X122693735Y-85525965D01*
X122595190Y-85673446D01*
X122595183Y-85673459D01*
X122527306Y-85837332D01*
X122527303Y-85837341D01*
X122492700Y-86011304D01*
X122492700Y-86188695D01*
X122527304Y-86362663D01*
X122527307Y-86362671D01*
X122566183Y-86456527D01*
X122573652Y-86525996D01*
X122554724Y-86572870D01*
X122491145Y-86668021D01*
X122491138Y-86668034D01*
X122423261Y-86831907D01*
X122423258Y-86831916D01*
X122388655Y-87005879D01*
X117688900Y-87005879D01*
X117688900Y-86825184D01*
X117652373Y-86641549D01*
X117582811Y-86473613D01*
X117580723Y-86468571D01*
X117580718Y-86468562D01*
X117476702Y-86312892D01*
X117476699Y-86312888D01*
X117344311Y-86180500D01*
X117344307Y-86180497D01*
X117188637Y-86076481D01*
X117188628Y-86076476D01*
X117015651Y-86004827D01*
X117015643Y-86004825D01*
X116832020Y-85968300D01*
X116832016Y-85968300D01*
X116644784Y-85968300D01*
X116644779Y-85968300D01*
X116461156Y-86004825D01*
X116461148Y-86004827D01*
X116288171Y-86076476D01*
X116288162Y-86076481D01*
X116132492Y-86180497D01*
X116132488Y-86180500D01*
X116000100Y-86312888D01*
X116000097Y-86312892D01*
X115896081Y-86468562D01*
X115896076Y-86468571D01*
X115824427Y-86641548D01*
X115824425Y-86641556D01*
X115787900Y-86825179D01*
X113767194Y-86825179D01*
X113740773Y-86692349D01*
X113669122Y-86519369D01*
X113669121Y-86519368D01*
X113669118Y-86519362D01*
X113565102Y-86363692D01*
X113565099Y-86363688D01*
X113432711Y-86231300D01*
X113432707Y-86231297D01*
X113277037Y-86127281D01*
X113277028Y-86127276D01*
X113104051Y-86055627D01*
X113104043Y-86055625D01*
X112920420Y-86019100D01*
X112920416Y-86019100D01*
X112733184Y-86019100D01*
X112733179Y-86019100D01*
X112549556Y-86055625D01*
X112549548Y-86055627D01*
X112376571Y-86127276D01*
X112376562Y-86127281D01*
X112220892Y-86231297D01*
X112220888Y-86231300D01*
X112088500Y-86363688D01*
X112088497Y-86363692D01*
X111984481Y-86519362D01*
X111984476Y-86519371D01*
X111912827Y-86692348D01*
X111912825Y-86692356D01*
X111876300Y-86875979D01*
X104005500Y-86875979D01*
X104005500Y-86585500D01*
X105003500Y-86585500D01*
X105755500Y-86585500D01*
X105755500Y-86168000D01*
X106753500Y-86168000D01*
X106753500Y-86585500D01*
X108255500Y-86585500D01*
X109253500Y-86585500D01*
X110755500Y-86585500D01*
X110755500Y-85640705D01*
X114253500Y-85640705D01*
X114288122Y-85675327D01*
X114292320Y-85679736D01*
X114317051Y-85707023D01*
X114321025Y-85711630D01*
X114352114Y-85749512D01*
X114355860Y-85754312D01*
X114377793Y-85783886D01*
X114381296Y-85788860D01*
X114512544Y-85985286D01*
X114515801Y-85990430D01*
X114534736Y-86022022D01*
X114537736Y-86027318D01*
X114560837Y-86070539D01*
X114563573Y-86075974D01*
X114579313Y-86109254D01*
X114581779Y-86114817D01*
X114672180Y-86333065D01*
X114674370Y-86338741D01*
X114686773Y-86373403D01*
X114688682Y-86379182D01*
X114702909Y-86426078D01*
X114704533Y-86431948D01*
X114713482Y-86467676D01*
X114714815Y-86473613D01*
X114737071Y-86585500D01*
X114818025Y-86585500D01*
X114850385Y-86422813D01*
X114851718Y-86416876D01*
X114860667Y-86381148D01*
X114862291Y-86375278D01*
X114876518Y-86328382D01*
X114878427Y-86322603D01*
X114890830Y-86287941D01*
X114893020Y-86282265D01*
X114983421Y-86064017D01*
X114985887Y-86058454D01*
X115001627Y-86025174D01*
X115004363Y-86019739D01*
X115027464Y-85976518D01*
X115030464Y-85971222D01*
X115049399Y-85939630D01*
X115052656Y-85934486D01*
X115132834Y-85814492D01*
X119253500Y-85814492D01*
X119253500Y-86585500D01*
X120755500Y-86585500D01*
X120755500Y-85083500D01*
X120253078Y-85083500D01*
X120212907Y-85143619D01*
X120209403Y-85148595D01*
X120187471Y-85178167D01*
X120183726Y-85182965D01*
X120152637Y-85220847D01*
X120148663Y-85225454D01*
X120123932Y-85252741D01*
X120119734Y-85257150D01*
X119959650Y-85417234D01*
X119955241Y-85421432D01*
X119927954Y-85446163D01*
X119923347Y-85450137D01*
X119885465Y-85481226D01*
X119880667Y-85484971D01*
X119851095Y-85506903D01*
X119846119Y-85510407D01*
X119657882Y-85636184D01*
X119652738Y-85639441D01*
X119621144Y-85658377D01*
X119615849Y-85661377D01*
X119572627Y-85684479D01*
X119567188Y-85687216D01*
X119533906Y-85702956D01*
X119528345Y-85705421D01*
X119319199Y-85792051D01*
X119313522Y-85794241D01*
X119278870Y-85806640D01*
X119273095Y-85808548D01*
X119253500Y-85814492D01*
X115132834Y-85814492D01*
X115183904Y-85738060D01*
X115187407Y-85733086D01*
X115209340Y-85703512D01*
X115213086Y-85698712D01*
X115244175Y-85660830D01*
X115248149Y-85656223D01*
X115272880Y-85628936D01*
X115277078Y-85624527D01*
X115444127Y-85457478D01*
X115448536Y-85453280D01*
X115475823Y-85428549D01*
X115480430Y-85424575D01*
X115518312Y-85393486D01*
X115523112Y-85389740D01*
X115552686Y-85367807D01*
X115557660Y-85364304D01*
X115733700Y-85246676D01*
X115704017Y-85155319D01*
X115699475Y-85136399D01*
X115691097Y-85083500D01*
X114253500Y-85083500D01*
X114253500Y-85640705D01*
X110755500Y-85640705D01*
X110755500Y-85083500D01*
X109253500Y-85083500D01*
X109253500Y-86585500D01*
X108255500Y-86585500D01*
X108255500Y-85550309D01*
X108243009Y-85572614D01*
X108207705Y-85612343D01*
X107958308Y-85793542D01*
X107954313Y-85796326D01*
X107929815Y-85812695D01*
X107925713Y-85815321D01*
X107892289Y-85835803D01*
X107888089Y-85838264D01*
X107862394Y-85852654D01*
X107858100Y-85854950D01*
X107633845Y-85969215D01*
X107629463Y-85971340D01*
X107602719Y-85983669D01*
X107598261Y-85985619D01*
X107562045Y-86000621D01*
X107557509Y-86002396D01*
X107529864Y-86012595D01*
X107525263Y-86014191D01*
X107285870Y-86091974D01*
X107281206Y-86093389D01*
X107252829Y-86101391D01*
X107248113Y-86102621D01*
X107209996Y-86111769D01*
X107205244Y-86112811D01*
X107176381Y-86118551D01*
X107171593Y-86119406D01*
X106923020Y-86158777D01*
X106918196Y-86159445D01*
X106888962Y-86162905D01*
X106884125Y-86163381D01*
X106845046Y-86166459D01*
X106840181Y-86166746D01*
X106810729Y-86167904D01*
X106805857Y-86168000D01*
X106753500Y-86168000D01*
X105755500Y-86168000D01*
X105755500Y-85982847D01*
X105730537Y-85971340D01*
X105726154Y-85969214D01*
X105501890Y-85854944D01*
X105497595Y-85852648D01*
X105471883Y-85838248D01*
X105467681Y-85835785D01*
X105434260Y-85815303D01*
X105430159Y-85812678D01*
X105405682Y-85796322D01*
X105401691Y-85793541D01*
X105152301Y-85612351D01*
X105116997Y-85572622D01*
X105048924Y-85451072D01*
X105003500Y-85425633D01*
X105003500Y-86585500D01*
X104005500Y-86585500D01*
X104005500Y-80382129D01*
X105329500Y-80382129D01*
X105329500Y-82177870D01*
X105329501Y-82177876D01*
X105335908Y-82237483D01*
X105386202Y-82372328D01*
X105386206Y-82372335D01*
X105472452Y-82487544D01*
X105472455Y-82487547D01*
X105587664Y-82573793D01*
X105587671Y-82573797D01*
X105613687Y-82583500D01*
X105722517Y-82624091D01*
X105782127Y-82630500D01*
X105792685Y-82630499D01*
X105859723Y-82650179D01*
X105880372Y-82666818D01*
X106550591Y-83337037D01*
X106487007Y-83354075D01*
X106372993Y-83419901D01*
X106279901Y-83512993D01*
X106214075Y-83627007D01*
X106197037Y-83690591D01*
X105564728Y-83058282D01*
X105564727Y-83058282D01*
X105525380Y-83112439D01*
X105428904Y-83301782D01*
X105363242Y-83503869D01*
X105363242Y-83503872D01*
X105330000Y-83713753D01*
X105330000Y-83926246D01*
X105363242Y-84136127D01*
X105363242Y-84136130D01*
X105428904Y-84338217D01*
X105525375Y-84527550D01*
X105564728Y-84581716D01*
X106197037Y-83949408D01*
X106214075Y-84012993D01*
X106279901Y-84127007D01*
X106372993Y-84220099D01*
X106487007Y-84285925D01*
X106550590Y-84302962D01*
X105918282Y-84935269D01*
X105918282Y-84935270D01*
X105972449Y-84974624D01*
X106161782Y-85071095D01*
X106363870Y-85136757D01*
X106573754Y-85170000D01*
X106786246Y-85170000D01*
X106996127Y-85136757D01*
X106996130Y-85136757D01*
X107198217Y-85071095D01*
X107387554Y-84974622D01*
X107441716Y-84935270D01*
X107441717Y-84935270D01*
X106809408Y-84302962D01*
X106872993Y-84285925D01*
X106987007Y-84220099D01*
X107080099Y-84127007D01*
X107145925Y-84012993D01*
X107162962Y-83949408D01*
X107795270Y-84581717D01*
X107795270Y-84581716D01*
X107834622Y-84527554D01*
X107931095Y-84338217D01*
X107996757Y-84136130D01*
X107996757Y-84136127D01*
X108004776Y-84085500D01*
X109253500Y-84085500D01*
X110755500Y-84085500D01*
X111753500Y-84085500D01*
X113255500Y-84085500D01*
X114253500Y-84085500D01*
X115755500Y-84085500D01*
X115755500Y-83906054D01*
X117796750Y-83906054D01*
X117796750Y-84083445D01*
X117831353Y-84257408D01*
X117831356Y-84257417D01*
X117899233Y-84421290D01*
X117899240Y-84421303D01*
X117997785Y-84568784D01*
X117997788Y-84568788D01*
X118123211Y-84694211D01*
X118123215Y-84694214D01*
X118270696Y-84792759D01*
X118270709Y-84792766D01*
X118393613Y-84843673D01*
X118434584Y-84860644D01*
X118434586Y-84860644D01*
X118434591Y-84860646D01*
X118608554Y-84895249D01*
X118608557Y-84895250D01*
X118608559Y-84895250D01*
X118785943Y-84895250D01*
X118785944Y-84895249D01*
X118878685Y-84876802D01*
X118959908Y-84860646D01*
X118959911Y-84860644D01*
X118959916Y-84860644D01*
X119123797Y-84792763D01*
X119271285Y-84694214D01*
X119396714Y-84568785D01*
X119495263Y-84421297D01*
X119563144Y-84257416D01*
X119571560Y-84215109D01*
X119597749Y-84083445D01*
X119597750Y-84083443D01*
X119597750Y-83906056D01*
X119597749Y-83906054D01*
X119563146Y-83732091D01*
X119563143Y-83732082D01*
X119495266Y-83568209D01*
X119495259Y-83568196D01*
X119396714Y-83420715D01*
X119396711Y-83420711D01*
X119271288Y-83295288D01*
X119271284Y-83295285D01*
X119158274Y-83219773D01*
X119113469Y-83166160D01*
X119104762Y-83096835D01*
X119134917Y-83033808D01*
X119194360Y-82997089D01*
X119212691Y-82993698D01*
X119388658Y-82958696D01*
X119388661Y-82958694D01*
X119388666Y-82958694D01*
X119552547Y-82890813D01*
X119642506Y-82830704D01*
X121124500Y-82830704D01*
X121124500Y-83008095D01*
X121159103Y-83182058D01*
X121159106Y-83182067D01*
X121226983Y-83345940D01*
X121226990Y-83345953D01*
X121325535Y-83493434D01*
X121325538Y-83493438D01*
X121450961Y-83618861D01*
X121450965Y-83618864D01*
X121598446Y-83717409D01*
X121598459Y-83717416D01*
X121687203Y-83754174D01*
X121762334Y-83785294D01*
X121762336Y-83785294D01*
X121762341Y-83785296D01*
X121936304Y-83819899D01*
X121936307Y-83819900D01*
X121936309Y-83819900D01*
X122113693Y-83819900D01*
X122113694Y-83819899D01*
X122171682Y-83808364D01*
X122287658Y-83785296D01*
X122287661Y-83785294D01*
X122287666Y-83785294D01*
X122451547Y-83717413D01*
X122599035Y-83618864D01*
X122724464Y-83493435D01*
X122823013Y-83345947D01*
X122829246Y-83330900D01*
X126753500Y-83330900D01*
X126753500Y-84085500D01*
X127488371Y-84085500D01*
X127486509Y-84080672D01*
X127474110Y-84046020D01*
X127472202Y-84040245D01*
X127457975Y-83993352D01*
X127456351Y-83987484D01*
X127447399Y-83951749D01*
X127446065Y-83945808D01*
X127401896Y-83723757D01*
X127400855Y-83717760D01*
X127395451Y-83681329D01*
X127394706Y-83675288D01*
X127389903Y-83626516D01*
X127389455Y-83620446D01*
X127387649Y-83583674D01*
X127387500Y-83577591D01*
X127387500Y-83375704D01*
X128385500Y-83375704D01*
X128385500Y-83553095D01*
X128420103Y-83727058D01*
X128420106Y-83727067D01*
X128487983Y-83890940D01*
X128487990Y-83890953D01*
X128586535Y-84038434D01*
X128586538Y-84038438D01*
X128711961Y-84163861D01*
X128711965Y-84163864D01*
X128859446Y-84262409D01*
X128859459Y-84262416D01*
X128974417Y-84310032D01*
X129023334Y-84330294D01*
X129023336Y-84330294D01*
X129023341Y-84330296D01*
X129197304Y-84364899D01*
X129197307Y-84364900D01*
X129197309Y-84364900D01*
X129374693Y-84364900D01*
X129374694Y-84364899D01*
X129432682Y-84353364D01*
X129548658Y-84330296D01*
X129548661Y-84330294D01*
X129548666Y-84330294D01*
X129712547Y-84262413D01*
X129860035Y-84163864D01*
X129938399Y-84085500D01*
X131753500Y-84085500D01*
X133255500Y-84085500D01*
X134253500Y-84085500D01*
X135755500Y-84085500D01*
X135755500Y-83275491D01*
X135747316Y-83276297D01*
X135741246Y-83276745D01*
X135704474Y-83278551D01*
X135698391Y-83278700D01*
X135472009Y-83278700D01*
X135465926Y-83278551D01*
X135429154Y-83276745D01*
X135423084Y-83276297D01*
X135374312Y-83271494D01*
X135368271Y-83270749D01*
X135331840Y-83265345D01*
X135325843Y-83264304D01*
X135103792Y-83220135D01*
X135097851Y-83218801D01*
X135062116Y-83209849D01*
X135056248Y-83208225D01*
X135009355Y-83193998D01*
X135003580Y-83192090D01*
X134968928Y-83179691D01*
X134963251Y-83177501D01*
X134754105Y-83090871D01*
X134748544Y-83088406D01*
X134715262Y-83072666D01*
X134709823Y-83069929D01*
X134666601Y-83046827D01*
X134661306Y-83043827D01*
X134629712Y-83024891D01*
X134624568Y-83021634D01*
X134436331Y-82895857D01*
X134431355Y-82892353D01*
X134416899Y-82881632D01*
X136753500Y-82881632D01*
X136753500Y-84085500D01*
X138255500Y-84085500D01*
X138255500Y-82583500D01*
X137059296Y-82583500D01*
X137040587Y-82606297D01*
X137036613Y-82610904D01*
X137011882Y-82638191D01*
X137007684Y-82642600D01*
X136847600Y-82802684D01*
X136843191Y-82806882D01*
X136815904Y-82831613D01*
X136811297Y-82835587D01*
X136773415Y-82866676D01*
X136768617Y-82870421D01*
X136753500Y-82881632D01*
X134416899Y-82881632D01*
X134401783Y-82870421D01*
X134396985Y-82866676D01*
X134359103Y-82835587D01*
X134354496Y-82831613D01*
X134327209Y-82806882D01*
X134322800Y-82802684D01*
X134253500Y-82733384D01*
X134253500Y-84085500D01*
X133255500Y-84085500D01*
X133255500Y-82583500D01*
X131753500Y-82583500D01*
X131753500Y-84085500D01*
X129938399Y-84085500D01*
X129985464Y-84038435D01*
X130084013Y-83890947D01*
X130151894Y-83727066D01*
X130152553Y-83723757D01*
X130181578Y-83577837D01*
X130186500Y-83553091D01*
X130186500Y-83375709D01*
X130186500Y-83375706D01*
X130186499Y-83375704D01*
X130151896Y-83201741D01*
X130151893Y-83201732D01*
X130149822Y-83196733D01*
X130121706Y-83128853D01*
X130084016Y-83037859D01*
X130084009Y-83037846D01*
X129985464Y-82890365D01*
X129985461Y-82890361D01*
X129860038Y-82764938D01*
X129860034Y-82764935D01*
X129712553Y-82666390D01*
X129712540Y-82666383D01*
X129548667Y-82598506D01*
X129548658Y-82598503D01*
X129374694Y-82563900D01*
X129374691Y-82563900D01*
X129197309Y-82563900D01*
X129197306Y-82563900D01*
X129023341Y-82598503D01*
X129023332Y-82598506D01*
X128859459Y-82666383D01*
X128859446Y-82666390D01*
X128711965Y-82764935D01*
X128711961Y-82764938D01*
X128586538Y-82890361D01*
X128586535Y-82890365D01*
X128487990Y-83037846D01*
X128487983Y-83037859D01*
X128420106Y-83201732D01*
X128420103Y-83201741D01*
X128385500Y-83375704D01*
X127387500Y-83375704D01*
X127387500Y-83351209D01*
X127387649Y-83345126D01*
X127389455Y-83308354D01*
X127389903Y-83302284D01*
X127394706Y-83253512D01*
X127395451Y-83247471D01*
X127400855Y-83211040D01*
X127401896Y-83205043D01*
X127408721Y-83170729D01*
X127266349Y-83229701D01*
X127260672Y-83231891D01*
X127226020Y-83244290D01*
X127220245Y-83246198D01*
X127173352Y-83260425D01*
X127167484Y-83262049D01*
X127131749Y-83271001D01*
X127125808Y-83272335D01*
X126903757Y-83316504D01*
X126897760Y-83317545D01*
X126861329Y-83322949D01*
X126855288Y-83323694D01*
X126806516Y-83328497D01*
X126800446Y-83328945D01*
X126763674Y-83330751D01*
X126757591Y-83330900D01*
X126753500Y-83330900D01*
X122829246Y-83330900D01*
X122890894Y-83182066D01*
X122891367Y-83179691D01*
X122919581Y-83037846D01*
X122925500Y-83008091D01*
X122925500Y-82830709D01*
X122925500Y-82830706D01*
X122925499Y-82830704D01*
X122890896Y-82656741D01*
X122890893Y-82656732D01*
X122885039Y-82642600D01*
X122870003Y-82606297D01*
X122823016Y-82492859D01*
X122823009Y-82492846D01*
X122724464Y-82345365D01*
X122724461Y-82345361D01*
X122599038Y-82219938D01*
X122599034Y-82219935D01*
X122451553Y-82121390D01*
X122451540Y-82121383D01*
X122287667Y-82053506D01*
X122287658Y-82053503D01*
X122113694Y-82018900D01*
X122113691Y-82018900D01*
X121936309Y-82018900D01*
X121936306Y-82018900D01*
X121762341Y-82053503D01*
X121762332Y-82053506D01*
X121598459Y-82121383D01*
X121598446Y-82121390D01*
X121450965Y-82219935D01*
X121450961Y-82219938D01*
X121325538Y-82345361D01*
X121325535Y-82345365D01*
X121226990Y-82492846D01*
X121226983Y-82492859D01*
X121159106Y-82656732D01*
X121159103Y-82656741D01*
X121124500Y-82830704D01*
X119642506Y-82830704D01*
X119700035Y-82792264D01*
X119825464Y-82666835D01*
X119924013Y-82519347D01*
X119991894Y-82355466D01*
X119993904Y-82345365D01*
X120018853Y-82219935D01*
X120026500Y-82181491D01*
X120026500Y-82004109D01*
X120026500Y-82004106D01*
X120026499Y-82004104D01*
X119991896Y-81830141D01*
X119991893Y-81830132D01*
X119924016Y-81666259D01*
X119924009Y-81666246D01*
X119825464Y-81518765D01*
X119825461Y-81518761D01*
X119700038Y-81393338D01*
X119700034Y-81393335D01*
X119552553Y-81294790D01*
X119552540Y-81294783D01*
X119388667Y-81226906D01*
X119388658Y-81226903D01*
X119214694Y-81192300D01*
X119214691Y-81192300D01*
X119037309Y-81192300D01*
X119037306Y-81192300D01*
X118863341Y-81226903D01*
X118863332Y-81226906D01*
X118699459Y-81294783D01*
X118699446Y-81294790D01*
X118551965Y-81393335D01*
X118551961Y-81393338D01*
X118426538Y-81518761D01*
X118426535Y-81518765D01*
X118327990Y-81666246D01*
X118327983Y-81666259D01*
X118260106Y-81830132D01*
X118260103Y-81830141D01*
X118225500Y-82004104D01*
X118225500Y-82181495D01*
X118260103Y-82355458D01*
X118260106Y-82355467D01*
X118327983Y-82519340D01*
X118327990Y-82519353D01*
X118426535Y-82666834D01*
X118426538Y-82666838D01*
X118551961Y-82792261D01*
X118551965Y-82792264D01*
X118664975Y-82867776D01*
X118709780Y-82921389D01*
X118718487Y-82990714D01*
X118688332Y-83053741D01*
X118628889Y-83090460D01*
X118610499Y-83093863D01*
X118434591Y-83128853D01*
X118434582Y-83128856D01*
X118270709Y-83196733D01*
X118270696Y-83196740D01*
X118123215Y-83295285D01*
X118123211Y-83295288D01*
X117997788Y-83420711D01*
X117997785Y-83420715D01*
X117899240Y-83568196D01*
X117899233Y-83568209D01*
X117831356Y-83732082D01*
X117831353Y-83732091D01*
X117796750Y-83906054D01*
X115755500Y-83906054D01*
X115755500Y-82583500D01*
X114253500Y-82583500D01*
X114253500Y-84085500D01*
X113255500Y-84085500D01*
X113255500Y-82583500D01*
X111753500Y-82583500D01*
X111753500Y-84085500D01*
X110755500Y-84085500D01*
X110755500Y-82583500D01*
X109253500Y-82583500D01*
X109253500Y-84085500D01*
X108004776Y-84085500D01*
X108030000Y-83926246D01*
X108030000Y-83713753D01*
X107996757Y-83503872D01*
X107996757Y-83503869D01*
X107931095Y-83301782D01*
X107834624Y-83112449D01*
X107795270Y-83058282D01*
X107795269Y-83058282D01*
X107162962Y-83690590D01*
X107145925Y-83627007D01*
X107080099Y-83512993D01*
X106987007Y-83419901D01*
X106872993Y-83354075D01*
X106809409Y-83337037D01*
X107479627Y-82666818D01*
X107540950Y-82633333D01*
X107567307Y-82630499D01*
X107577872Y-82630499D01*
X107637483Y-82624091D01*
X107772331Y-82573796D01*
X107887546Y-82487546D01*
X107973796Y-82372331D01*
X108024091Y-82237483D01*
X108030500Y-82177873D01*
X108030500Y-81585500D01*
X109253500Y-81585500D01*
X110755500Y-81585500D01*
X111753500Y-81585500D01*
X113255500Y-81585500D01*
X116753500Y-81585500D01*
X117292397Y-81585500D01*
X117296351Y-81569716D01*
X117297975Y-81563848D01*
X117312202Y-81516955D01*
X117314110Y-81511180D01*
X117326509Y-81476528D01*
X117328699Y-81470851D01*
X117415329Y-81261705D01*
X117417794Y-81256144D01*
X117433534Y-81222862D01*
X117436271Y-81217423D01*
X117459373Y-81174201D01*
X117462373Y-81168906D01*
X117481309Y-81137312D01*
X117484566Y-81132168D01*
X117610343Y-80943931D01*
X117613847Y-80938955D01*
X117635779Y-80909383D01*
X117639524Y-80904585D01*
X117670613Y-80866703D01*
X117674587Y-80862096D01*
X117699318Y-80834809D01*
X117703516Y-80830400D01*
X117863600Y-80670316D01*
X117868009Y-80666118D01*
X117895296Y-80641387D01*
X117899903Y-80637413D01*
X117937785Y-80606324D01*
X117942583Y-80602579D01*
X117972155Y-80580647D01*
X117977131Y-80577143D01*
X118165368Y-80451366D01*
X118170512Y-80448109D01*
X118202106Y-80429173D01*
X118207401Y-80426173D01*
X118250623Y-80403071D01*
X118255500Y-80400616D01*
X118255500Y-80194853D01*
X119253500Y-80194853D01*
X119282046Y-80196255D01*
X119288116Y-80196703D01*
X119336888Y-80201506D01*
X119342929Y-80202251D01*
X119379360Y-80207655D01*
X119385357Y-80208696D01*
X119607408Y-80252865D01*
X119613349Y-80254199D01*
X119649084Y-80263151D01*
X119654952Y-80264775D01*
X119701845Y-80279002D01*
X119707620Y-80280910D01*
X119742272Y-80293309D01*
X119747949Y-80295499D01*
X119957095Y-80382129D01*
X119962656Y-80384594D01*
X119995938Y-80400334D01*
X120001377Y-80403071D01*
X120044599Y-80426173D01*
X120049894Y-80429173D01*
X120081488Y-80448109D01*
X120086632Y-80451366D01*
X120274869Y-80577143D01*
X120279845Y-80580647D01*
X120309417Y-80602579D01*
X120314215Y-80606324D01*
X120352097Y-80637413D01*
X120356704Y-80641387D01*
X120383991Y-80666118D01*
X120388400Y-80670316D01*
X120548484Y-80830400D01*
X120552682Y-80834809D01*
X120577413Y-80862096D01*
X120581387Y-80866703D01*
X120612476Y-80904585D01*
X120616221Y-80909383D01*
X120638153Y-80938955D01*
X120641657Y-80943931D01*
X120755500Y-81114307D01*
X120755500Y-81037711D01*
X121753500Y-81037711D01*
X121765643Y-81035296D01*
X121771640Y-81034255D01*
X121808071Y-81028851D01*
X121814112Y-81028106D01*
X121862884Y-81023303D01*
X121868954Y-81022855D01*
X121905726Y-81021049D01*
X121911809Y-81020900D01*
X122138191Y-81020900D01*
X122144274Y-81021049D01*
X122181046Y-81022855D01*
X122187116Y-81023303D01*
X122235888Y-81028106D01*
X122241929Y-81028851D01*
X122278360Y-81034255D01*
X122284357Y-81035296D01*
X122506408Y-81079465D01*
X122512349Y-81080799D01*
X122548084Y-81089751D01*
X122553952Y-81091375D01*
X122600845Y-81105602D01*
X122606620Y-81107510D01*
X122641272Y-81119909D01*
X122646949Y-81122099D01*
X122856095Y-81208729D01*
X122861656Y-81211194D01*
X122894938Y-81226934D01*
X122900377Y-81229671D01*
X122943599Y-81252773D01*
X122948894Y-81255773D01*
X122980488Y-81274709D01*
X122985632Y-81277966D01*
X123173869Y-81403743D01*
X123178845Y-81407247D01*
X123208417Y-81429179D01*
X123213215Y-81432924D01*
X123251097Y-81464013D01*
X123255500Y-81467811D01*
X123255500Y-81320648D01*
X123143601Y-81302925D01*
X123124681Y-81298383D01*
X122945042Y-81240015D01*
X122927065Y-81232569D01*
X122758768Y-81146817D01*
X122742178Y-81136650D01*
X122634500Y-81058418D01*
X124253500Y-81058418D01*
X124253500Y-81585500D01*
X124747710Y-81585500D01*
X124746049Y-81551674D01*
X124745900Y-81545591D01*
X124745900Y-81343704D01*
X125743900Y-81343704D01*
X125743900Y-81521095D01*
X125778503Y-81695058D01*
X125778506Y-81695067D01*
X125846383Y-81858940D01*
X125846390Y-81858953D01*
X125944935Y-82006434D01*
X125944938Y-82006438D01*
X126070361Y-82131861D01*
X126070365Y-82131864D01*
X126217846Y-82230409D01*
X126217859Y-82230416D01*
X126339255Y-82280699D01*
X126381734Y-82298294D01*
X126381736Y-82298294D01*
X126381741Y-82298296D01*
X126555704Y-82332899D01*
X126555707Y-82332900D01*
X126555709Y-82332900D01*
X126733093Y-82332900D01*
X126733094Y-82332899D01*
X126791082Y-82321364D01*
X126907058Y-82298296D01*
X126907061Y-82298294D01*
X126907066Y-82298294D01*
X127070947Y-82230413D01*
X127218435Y-82131864D01*
X127343864Y-82006435D01*
X127442413Y-81858947D01*
X127510294Y-81695066D01*
X127516026Y-81666253D01*
X127534405Y-81573851D01*
X127544900Y-81521091D01*
X127544900Y-81343709D01*
X127544900Y-81343706D01*
X127544899Y-81343704D01*
X127510296Y-81169741D01*
X127510293Y-81169732D01*
X127507063Y-81161935D01*
X127488672Y-81117534D01*
X127442416Y-81005859D01*
X127442409Y-81005846D01*
X127343864Y-80858365D01*
X127343861Y-80858361D01*
X127218438Y-80732938D01*
X127218434Y-80732935D01*
X127070953Y-80634390D01*
X127070940Y-80634383D01*
X126907067Y-80566506D01*
X126907058Y-80566503D01*
X126733094Y-80531900D01*
X126733091Y-80531900D01*
X126555709Y-80531900D01*
X126555706Y-80531900D01*
X126381741Y-80566503D01*
X126381732Y-80566506D01*
X126217859Y-80634383D01*
X126217846Y-80634390D01*
X126070365Y-80732935D01*
X126070361Y-80732938D01*
X125944938Y-80858361D01*
X125944935Y-80858365D01*
X125846390Y-81005846D01*
X125846383Y-81005859D01*
X125778506Y-81169732D01*
X125778503Y-81169741D01*
X125743900Y-81343704D01*
X124745900Y-81343704D01*
X124745900Y-81319209D01*
X124746049Y-81313126D01*
X124747855Y-81276354D01*
X124748303Y-81270284D01*
X124753106Y-81221512D01*
X124753851Y-81215471D01*
X124759255Y-81179040D01*
X124760296Y-81173043D01*
X124804465Y-80950992D01*
X124805799Y-80945051D01*
X124814751Y-80909316D01*
X124816375Y-80903448D01*
X124830602Y-80856555D01*
X124832510Y-80850780D01*
X124844909Y-80816128D01*
X124847099Y-80810451D01*
X124933729Y-80601305D01*
X124936194Y-80595744D01*
X124951934Y-80562462D01*
X124954671Y-80557023D01*
X124977773Y-80513801D01*
X124980773Y-80508506D01*
X124999709Y-80476912D01*
X125002966Y-80471768D01*
X125105711Y-80318000D01*
X129253500Y-80318000D01*
X129253500Y-81565900D01*
X129399191Y-81565900D01*
X129405274Y-81566049D01*
X129442046Y-81567855D01*
X129448116Y-81568303D01*
X129496888Y-81573106D01*
X129502929Y-81573851D01*
X129539360Y-81579255D01*
X129545357Y-81580296D01*
X129571519Y-81585500D01*
X130755500Y-81585500D01*
X131753500Y-81585500D01*
X133255500Y-81585500D01*
X133255500Y-81291504D01*
X134684700Y-81291504D01*
X134684700Y-81468895D01*
X134719303Y-81642858D01*
X134719306Y-81642867D01*
X134787183Y-81806740D01*
X134787190Y-81806753D01*
X134885735Y-81954234D01*
X134885738Y-81954238D01*
X135011161Y-82079661D01*
X135011165Y-82079664D01*
X135158646Y-82178209D01*
X135158659Y-82178216D01*
X135259380Y-82219935D01*
X135322534Y-82246094D01*
X135322536Y-82246094D01*
X135322541Y-82246096D01*
X135496504Y-82280699D01*
X135496507Y-82280700D01*
X135496509Y-82280700D01*
X135673893Y-82280700D01*
X135673894Y-82280699D01*
X135731882Y-82269164D01*
X135847858Y-82246096D01*
X135847861Y-82246094D01*
X135847866Y-82246094D01*
X135987735Y-82188158D01*
X136011740Y-82178216D01*
X136011740Y-82178215D01*
X136011747Y-82178213D01*
X136159235Y-82079664D01*
X136284664Y-81954235D01*
X136383213Y-81806747D01*
X136451094Y-81642866D01*
X136469570Y-81549984D01*
X136479617Y-81499474D01*
X136485700Y-81468891D01*
X136485700Y-81291509D01*
X136485700Y-81291506D01*
X136485699Y-81291504D01*
X136451096Y-81117541D01*
X136451093Y-81117532D01*
X136383216Y-80953659D01*
X136383209Y-80953646D01*
X136284664Y-80806165D01*
X136284661Y-80806161D01*
X136159238Y-80680738D01*
X136159234Y-80680735D01*
X136011753Y-80582190D01*
X136011740Y-80582183D01*
X135847867Y-80514306D01*
X135847858Y-80514303D01*
X135673894Y-80479700D01*
X135673891Y-80479700D01*
X135496509Y-80479700D01*
X135496506Y-80479700D01*
X135322541Y-80514303D01*
X135322532Y-80514306D01*
X135158659Y-80582183D01*
X135158646Y-80582190D01*
X135011165Y-80680735D01*
X135011161Y-80680738D01*
X134885738Y-80806161D01*
X134885735Y-80806165D01*
X134787190Y-80953646D01*
X134787183Y-80953659D01*
X134719306Y-81117532D01*
X134719303Y-81117541D01*
X134684700Y-81291504D01*
X133255500Y-81291504D01*
X133255500Y-80083500D01*
X136973384Y-80083500D01*
X137007684Y-80117800D01*
X137011882Y-80122209D01*
X137036613Y-80149496D01*
X137040587Y-80154103D01*
X137071676Y-80191985D01*
X137075421Y-80196783D01*
X137097353Y-80226355D01*
X137100857Y-80231331D01*
X137226634Y-80419568D01*
X137229891Y-80424712D01*
X137248827Y-80456306D01*
X137251827Y-80461601D01*
X137274929Y-80504823D01*
X137277666Y-80510262D01*
X137293406Y-80543544D01*
X137295871Y-80549105D01*
X137382501Y-80758251D01*
X137384691Y-80763928D01*
X137397090Y-80798580D01*
X137398998Y-80804355D01*
X137413225Y-80851248D01*
X137414849Y-80857116D01*
X137423801Y-80892851D01*
X137425135Y-80898792D01*
X137469304Y-81120843D01*
X137470345Y-81126840D01*
X137475749Y-81163271D01*
X137476494Y-81169312D01*
X137481297Y-81218084D01*
X137481745Y-81224154D01*
X137483551Y-81260926D01*
X137483700Y-81267009D01*
X137483700Y-81493391D01*
X137483551Y-81499474D01*
X137481745Y-81536246D01*
X137481297Y-81542316D01*
X137477044Y-81585500D01*
X138255500Y-81585500D01*
X138255500Y-80083500D01*
X136973384Y-80083500D01*
X133255500Y-80083500D01*
X131753500Y-80083500D01*
X131753500Y-81585500D01*
X130755500Y-81585500D01*
X130755500Y-80083500D01*
X129937355Y-80083500D01*
X129886222Y-80120650D01*
X129869632Y-80130817D01*
X129701335Y-80216569D01*
X129683358Y-80224015D01*
X129503719Y-80282383D01*
X129484799Y-80286925D01*
X129298240Y-80316473D01*
X129278842Y-80318000D01*
X129253500Y-80318000D01*
X125105711Y-80318000D01*
X125128743Y-80283531D01*
X125132247Y-80278555D01*
X125154179Y-80248983D01*
X125157924Y-80244185D01*
X125189013Y-80206303D01*
X125192987Y-80201696D01*
X125217718Y-80174409D01*
X125221916Y-80170000D01*
X125308416Y-80083500D01*
X124768000Y-80083500D01*
X124768000Y-80104442D01*
X124766473Y-80123840D01*
X124736925Y-80310399D01*
X124732383Y-80329319D01*
X124674015Y-80508958D01*
X124666569Y-80526935D01*
X124580817Y-80695232D01*
X124570650Y-80711822D01*
X124459627Y-80864633D01*
X124446990Y-80879429D01*
X124313429Y-81012990D01*
X124298633Y-81025628D01*
X124253500Y-81058418D01*
X122634500Y-81058418D01*
X122589367Y-81025627D01*
X122574571Y-81012990D01*
X122441010Y-80879429D01*
X122428373Y-80864633D01*
X122317350Y-80711822D01*
X122307183Y-80695232D01*
X122221431Y-80526935D01*
X122213985Y-80508958D01*
X122155617Y-80329319D01*
X122151075Y-80310399D01*
X122121527Y-80123840D01*
X122120000Y-80104442D01*
X122120000Y-80083500D01*
X121753500Y-80083500D01*
X121753500Y-81037711D01*
X120755500Y-81037711D01*
X120755500Y-80083500D01*
X119253500Y-80083500D01*
X119253500Y-80194853D01*
X118255500Y-80194853D01*
X118255500Y-80083500D01*
X116753500Y-80083500D01*
X116753500Y-81585500D01*
X113255500Y-81585500D01*
X113255500Y-81459892D01*
X113173350Y-81346822D01*
X113163183Y-81330232D01*
X113077431Y-81161935D01*
X113069985Y-81143958D01*
X113011617Y-80964319D01*
X113007075Y-80945399D01*
X112977527Y-80758840D01*
X112976000Y-80739442D01*
X112976000Y-80550558D01*
X112977527Y-80531160D01*
X113007075Y-80344601D01*
X113011617Y-80325681D01*
X113069985Y-80146042D01*
X113077431Y-80128065D01*
X113100138Y-80083500D01*
X111753500Y-80083500D01*
X111753500Y-81585500D01*
X110755500Y-81585500D01*
X110755500Y-80083500D01*
X109253500Y-80083500D01*
X109253500Y-81585500D01*
X108030500Y-81585500D01*
X108030499Y-80382128D01*
X108024091Y-80322517D01*
X108022406Y-80318000D01*
X107973797Y-80187671D01*
X107973793Y-80187664D01*
X107887547Y-80072455D01*
X107887544Y-80072452D01*
X107772335Y-79986206D01*
X107772328Y-79986202D01*
X107637482Y-79935908D01*
X107637483Y-79935908D01*
X107577883Y-79929501D01*
X107577881Y-79929500D01*
X107577873Y-79929500D01*
X107577864Y-79929500D01*
X105782129Y-79929500D01*
X105782123Y-79929501D01*
X105722516Y-79935908D01*
X105587671Y-79986202D01*
X105587664Y-79986206D01*
X105472455Y-80072452D01*
X105472452Y-80072455D01*
X105386206Y-80187664D01*
X105386202Y-80187671D01*
X105335908Y-80322517D01*
X105329501Y-80382116D01*
X105329500Y-80382129D01*
X104005500Y-80382129D01*
X104005500Y-79687862D01*
X104025185Y-79620823D01*
X104041819Y-79600181D01*
X105163924Y-78478076D01*
X106753500Y-78478076D01*
X106753500Y-78931500D01*
X107591248Y-78931500D01*
X107594572Y-78931545D01*
X107614673Y-78932084D01*
X107617993Y-78932217D01*
X107644680Y-78933649D01*
X107647989Y-78933871D01*
X107667982Y-78935481D01*
X107671285Y-78935792D01*
X107775175Y-78946962D01*
X107782843Y-78948029D01*
X107829029Y-78955936D01*
X107836619Y-78957481D01*
X107897330Y-78971826D01*
X107904809Y-78973842D01*
X107949672Y-78987450D01*
X107957012Y-78989929D01*
X108154502Y-79063587D01*
X108162682Y-79066975D01*
X108203245Y-79085500D01*
X108255500Y-79085500D01*
X109253500Y-79085500D01*
X110755500Y-79085500D01*
X111753500Y-79085500D01*
X113255500Y-79085500D01*
X114253500Y-79085500D01*
X115755500Y-79085500D01*
X116753500Y-79085500D01*
X118255500Y-79085500D01*
X119253500Y-79085500D01*
X120755500Y-79085500D01*
X121753500Y-79085500D01*
X122496081Y-79085500D01*
X122574571Y-79007010D01*
X122589367Y-78994373D01*
X122634500Y-78961582D01*
X124253500Y-78961582D01*
X124298633Y-78994373D01*
X124313429Y-79007010D01*
X124391919Y-79085500D01*
X125755500Y-79085500D01*
X126753500Y-79085500D01*
X127860400Y-79085500D01*
X131753500Y-79085500D01*
X133255500Y-79085500D01*
X134253500Y-79085500D01*
X135755500Y-79085500D01*
X136753500Y-79085500D01*
X138255500Y-79085500D01*
X138255500Y-78333500D01*
X136753500Y-78333500D01*
X136753500Y-79085500D01*
X135755500Y-79085500D01*
X135755500Y-78333500D01*
X134253500Y-78333500D01*
X134253500Y-79085500D01*
X133255500Y-79085500D01*
X133255500Y-78333500D01*
X131753500Y-78333500D01*
X131753500Y-79085500D01*
X127860400Y-79085500D01*
X127860400Y-78899558D01*
X127861927Y-78880160D01*
X127891475Y-78693601D01*
X127896017Y-78674681D01*
X127954385Y-78495042D01*
X127961831Y-78477065D01*
X128034981Y-78333500D01*
X126753500Y-78333500D01*
X126753500Y-79085500D01*
X125755500Y-79085500D01*
X125755500Y-78333500D01*
X124253500Y-78333500D01*
X124253500Y-78961582D01*
X122634500Y-78961582D01*
X122742178Y-78883350D01*
X122758768Y-78873183D01*
X122927065Y-78787431D01*
X122945042Y-78779985D01*
X123124681Y-78721617D01*
X123143601Y-78717075D01*
X123255500Y-78699351D01*
X123255500Y-78333500D01*
X121753500Y-78333500D01*
X121753500Y-79085500D01*
X120755500Y-79085500D01*
X120755500Y-78333500D01*
X119253500Y-78333500D01*
X119253500Y-79085500D01*
X118255500Y-79085500D01*
X118255500Y-78333500D01*
X116753500Y-78333500D01*
X116753500Y-79085500D01*
X115755500Y-79085500D01*
X115755500Y-78333500D01*
X114253500Y-78333500D01*
X114253500Y-79085500D01*
X113255500Y-79085500D01*
X113255500Y-78333500D01*
X111753500Y-78333500D01*
X111753500Y-79085500D01*
X110755500Y-79085500D01*
X110755500Y-78333500D01*
X109253500Y-78333500D01*
X109253500Y-79085500D01*
X108255500Y-79085500D01*
X108255500Y-78333500D01*
X106898076Y-78333500D01*
X106753500Y-78478076D01*
X105163924Y-78478076D01*
X106270181Y-77371819D01*
X106331504Y-77338334D01*
X106357862Y-77335500D01*
X143832138Y-77335500D01*
X143899177Y-77355185D01*
G37*
%TD.AperFunction*%
%TA.AperFunction,Conductor*%
G36*
X142311444Y-83838999D02*
G01*
X142350484Y-83884054D01*
X142353993Y-83890940D01*
X142354951Y-83892820D01*
X142479890Y-84064786D01*
X142630213Y-84215109D01*
X142802179Y-84340048D01*
X142802181Y-84340049D01*
X142802184Y-84340051D01*
X142811493Y-84344794D01*
X142862290Y-84392766D01*
X142879087Y-84460587D01*
X142856552Y-84526722D01*
X142811505Y-84565760D01*
X142802446Y-84570376D01*
X142802440Y-84570380D01*
X142748282Y-84609727D01*
X142748282Y-84609728D01*
X143380591Y-85242037D01*
X143317007Y-85259075D01*
X143202993Y-85324901D01*
X143109901Y-85417993D01*
X143044075Y-85532007D01*
X143027037Y-85595591D01*
X142394728Y-84963282D01*
X142394727Y-84963282D01*
X142355380Y-85017440D01*
X142355376Y-85017446D01*
X142350760Y-85026505D01*
X142302781Y-85077297D01*
X142234959Y-85094087D01*
X142168826Y-85071543D01*
X142129794Y-85026493D01*
X142125051Y-85017184D01*
X142125049Y-85017181D01*
X142125048Y-85017179D01*
X142000109Y-84845213D01*
X141849786Y-84694890D01*
X141677820Y-84569951D01*
X141675537Y-84568788D01*
X141669054Y-84565485D01*
X141618259Y-84517512D01*
X141601463Y-84449692D01*
X141623999Y-84383556D01*
X141669054Y-84344515D01*
X141677816Y-84340051D01*
X141752315Y-84285925D01*
X141849786Y-84215109D01*
X141849788Y-84215106D01*
X141849792Y-84215104D01*
X142000104Y-84064792D01*
X142000106Y-84064788D01*
X142000109Y-84064786D01*
X142125048Y-83892820D01*
X142125047Y-83892820D01*
X142125051Y-83892816D01*
X142129514Y-83884054D01*
X142177488Y-83833259D01*
X142245308Y-83816463D01*
X142311444Y-83838999D01*
G37*
%TD.AperFunction*%
%TA.AperFunction,Conductor*%
G36*
X144522875Y-84196737D02*
G01*
X144575361Y-84242857D01*
X144594580Y-84310032D01*
X144592201Y-84333361D01*
X144590700Y-84340907D01*
X144590700Y-84518295D01*
X144625303Y-84692258D01*
X144625306Y-84692267D01*
X144672967Y-84807332D01*
X144680436Y-84876802D01*
X144649160Y-84939281D01*
X144646087Y-84942465D01*
X143992962Y-85595590D01*
X143975925Y-85532007D01*
X143910099Y-85417993D01*
X143817007Y-85324901D01*
X143702993Y-85259075D01*
X143639409Y-85242037D01*
X144271716Y-84609728D01*
X144217547Y-84570373D01*
X144217547Y-84570372D01*
X144208500Y-84565763D01*
X144157706Y-84517788D01*
X144140912Y-84449966D01*
X144163451Y-84383832D01*
X144208508Y-84344793D01*
X144217816Y-84340051D01*
X144382917Y-84220099D01*
X144389776Y-84215116D01*
X144389779Y-84215113D01*
X144389792Y-84215104D01*
X144389802Y-84215093D01*
X144390032Y-84214898D01*
X144390149Y-84214845D01*
X144393734Y-84212241D01*
X144394280Y-84212993D01*
X144453787Y-84186315D01*
X144522875Y-84196737D01*
G37*
%TD.AperFunction*%
%TD*%
M02*
